<?xml version="1.0" encoding="UTF-8"?>
<svg id="Calque_1" data-name="Calque 1" xmlns="http://www.w3.org/2000/svg" viewBox="0 0 1080 1080">
  <defs>
    <style>
      .cls-1 {
        fill: #df0913;
        fill-rule: evenodd;
      }

      .cls-1, .cls-2 {
        stroke-width: 0px;
      }

      .cls-2 {
        fill: #fdebeb;
      }
    </style>
  </defs>
  <rect class="cls-2" x="-10.8" y="-10.8" width="1101.6" height="1101.6"/>
  <g>
    <path class="cls-1" d="m285.29,861.51l172.85-175.12c42.94,30.9,95.01,48.8,150.84,48.8,144.94,0,261.96-118.74,261.96-264.58s-117.02-265.12-261.96-265.12-261.96,118.74-261.96,265.12c0,56.39,17.71,108.98,47.77,152.35l-172.85,174.58c-17.18,17.35-17.18,46.09,0,63.98,17.71,17.35,46.17,17.35,63.34,0Zm323.69-603.44c116.49,0,210.43,94.88,210.43,212.53s-93.94,211.99-210.43,211.99-209.89-94.88-209.89-211.99,93.94-212.53,209.89-212.53Z"/>
    <path class="cls-1" d="m436.52,486.27h57.67l44.9,111.84c3.57,9.28,14.29,13.91,23.98,9.79,4.59-1.55,8.16-5.15,9.69-9.79l88.28-195.84,35.72,73.18c3.06,6.7,9.69,10.31,16.33,10.31h69.49c4.93,0,8.98-3.95,9.05-8.88.03-2,.03-4.04.03-6.07,0-4.69-.19-9.19-.45-13.62-.28-4.79-4.24-8.54-9.04-8.54h-57.86l-47.45-97.41c-1.53-4.12-4.59-7.21-9.19-9.27-9.18-4.13-19.9,0-23.98,9.27l-86.75,192.75-33.17-82.46c-2.55-7.73-9.18-12.89-17.35-12.89h-69.65c-4.95,0-8.99,3.98-9.05,8.93l-.26,19.51c-.07,5.05,4.01,9.18,9.05,9.18Z"/>
  </g>
</svg>