<?xml version="1.0" encoding="utf-8"?>
<!-- Generator: Adobe Illustrator 28.0.0, SVG Export Plug-In . SVG Version: 6.00 Build 0)  -->
<svg version="1.1" id="Calque_1" xmlns="http://www.w3.org/2000/svg" xmlns:xlink="http://www.w3.org/1999/xlink" x="0px" y="0px"
	 viewBox="0 0 900 900" style="enable-background:new 0 0 900 900;" xml:space="preserve">
<style type="text/css">
	.st0{opacity:0.1;fill:#E60001;}
	.st1{fill:#E60001;}
</style>
<rect class="st0" width="900" height="900"/>
<g>
	<path class="st1" d="M411.62,593.93c-7.09,0-14.17,0.06-21.26-0.02c-6.2-0.07-8.88-2.76-9.01-8.95c-0.09-4.25-0.11-8.5,0-12.75
		c0.07-2.59-0.8-4.14-3.47-4.72c-18.65-4.05-36.02-11.21-52.03-21.61c-2-1.3-3.41-0.9-4.94,0.68c-3.06,3.17-6.18,6.29-9.36,9.34
		c-4.23,4.05-8.44,4.47-12.52,0.52c-10.62-10.3-21.09-20.77-31.38-31.4c-3.82-3.94-3.48-8.2,0.28-12.19
		c3.02-3.21,6.13-6.34,9.34-9.36c1.92-1.81,2.23-3.37,0.71-5.7c-10.23-15.74-17.18-32.88-21.26-51.17c-0.62-2.78-1.93-4-4.84-3.9
		c-4.4,0.16-8.82,0.12-13.22,0c-5.55-0.14-8.4-2.95-8.43-8.56c-0.09-14.64-0.09-29.29,0-43.93c0.03-5.79,2.93-8.49,8.87-8.6
		c4.41-0.08,8.82-0.11,13.23,0c2.51,0.06,3.77-1.04,4.28-3.39c4.05-18.65,11.23-36.02,21.64-52.02c1.25-1.93,1.08-3.39-0.56-4.97
		c-3.17-3.06-6.3-6.17-9.33-9.37c-4.33-4.56-4.52-8.76-0.07-13.27c10.27-10.43,20.7-20.71,31.2-30.91c3.5-3.4,7.78-3.26,11.43,0.1
		c3.36,3.09,6.57,6.34,9.71,9.65c1.79,1.89,3.33,2.33,5.69,0.79c15.73-10.26,32.87-17.2,51.17-21.26c3.11-0.69,4.06-2.31,3.95-5.29
		c-0.16-4.4-0.14-8.82,0.01-13.22c0.17-5.02,2.99-7.95,8.01-7.99c14.96-0.11,29.92-0.11,44.87-0.01c5.26,0.04,8.02,2.98,8.17,8.33
		c0.12,4.41,0.15,8.82,0,13.22c-0.1,2.86,0.97,4.28,3.82,4.9c18.33,3.99,35.44,11.02,51.18,21.21c2.58,1.67,4.18,1.15,6.06-0.87
		c2.79-3,5.72-5.86,8.67-8.69c4.43-4.26,8.58-4.64,12.88-0.46c10.5,10.2,20.86,20.56,31.04,31.07c3.97,4.1,3.62,8.36-0.35,12.55
		c-3.03,3.2-6.15,6.32-9.35,9.36c-1.79,1.7-1.99,3.21-0.61,5.33c10.31,15.88,17.32,33.15,21.41,51.62c0.57,2.59,1.91,3.69,4.6,3.61
		c4.4-0.13,8.82-0.1,13.22,0c5.66,0.13,8.57,2.84,8.6,8.38c0.1,14.8,0.1,29.6,0,44.4c-0.04,5.33-2.92,8.13-8.21,8.29
		c-4.25,0.13-8.51,0.23-12.75-0.01c-3.55-0.2-4.91,1.25-5.68,4.65c-5.88,26.15-17.49,49.46-35.16,69.66
		c-22.61,25.84-50.84,42.34-84.18,50.1c-4.03,0.94-5.64,2.53-5.25,6.64c0.31,3.28,0.08,6.61,0.06,9.91
		c-0.05,7.76-2.48,10.25-10.1,10.29C425.48,593.96,418.55,593.93,411.62,593.93z M411.59,578.15c0.79,0,1.57,0,2.36,0
		c12.77,0,12.77,0,12.79-12.88c0.01-9.15,1.44-10.72,10.44-12.51c46.38-9.23,80.4-35.05,102.43-76.76
		c6.51-12.34,10.68-25.51,13.06-39.26c1.41-8.14,3.45-9.76,11.61-9.78c3.31-0.01,6.62-0.08,9.92,0.01c2.53,0.07,3.78-0.82,3.75-3.53
		c-0.08-7.56-0.06-15.12-0.01-22.67c0.02-2.4-1.01-3.43-3.4-3.39c-3.94,0.06-7.87,0.04-11.81-0.01c-5.98-0.07-8.5-1.79-9.53-7.61
		c-3.99-22.53-12.41-43.15-25.74-61.8c-3.14-4.39-2.53-7.8,1.34-11.83c2.72-2.84,5.5-5.63,8.35-8.35c1.64-1.56,2.15-2.85,0.27-4.69
		c-5.53-5.38-10.98-10.84-16.36-16.37c-1.81-1.86-3.1-1.46-4.69,0.21c-2.6,2.74-5.3,5.39-8.01,8.02c-4.54,4.4-7.84,4.78-12.98,1.21
		c-4.66-3.24-9.39-6.35-14.36-9.08c-14.07-7.7-28.97-12.96-44.79-15.71c-7.85-1.36-9.47-3.5-9.5-11.38
		c-0.01-3.31-0.11-6.62,0.02-9.92c0.11-2.81-0.97-3.98-3.85-3.93c-7.24,0.11-14.49,0.14-21.73-0.01c-3.14-0.06-4.18,1.22-4.06,4.21
		c0.15,3.93,0.01,7.87,0.03,11.81c0.03,4.82-2.37,7.66-7.01,8.67c-3.53,0.77-7.11,1.37-10.62,2.2
		c-18.14,4.28-34.83,11.77-50.08,22.51c-6.18,4.35-9.19,4.07-14.46-1.13c-2.47-2.43-4.99-4.82-7.33-7.37
		c-1.75-1.91-3.12-2.09-5.03-0.11c-5.25,5.44-10.61,10.76-16.03,16.04c-1.76,1.71-1.76,3.02,0.01,4.69c2.87,2.7,5.63,5.5,8.36,8.34
		c4.14,4.31,4.48,7.64,1.04,12.63c-3.22,4.67-6.35,9.38-9.08,14.36c-7.71,14.06-13.02,28.95-15.73,44.78
		c-1.37,8.01-3.49,9.6-11.76,9.62c-3.15,0.01-6.3,0.1-9.45-0.02c-2.68-0.1-4.11,0.71-4.06,3.71c0.12,7.4,0.12,14.8,0,22.2
		c-0.05,3.01,1.39,3.79,4.07,3.71c3.62-0.11,7.24-0.05,10.86-0.01c6.41,0.06,8.61,1.85,10.04,8.25c0.72,3.22,1.25,6.49,2.01,9.7
		c4.22,18,11.71,34.52,22.34,49.64c4.45,6.33,4.16,9.31-1.29,14.82c-2.44,2.46-4.83,4.97-7.37,7.33c-1.81,1.68-1.73,3.02,0.03,4.69
		c3.2,3.03,6.19,6.28,9.39,9.31c2.95,2.79,5.32,7.72,8.96,7.86c3.73,0.14,5.94-5.03,9.02-7.66c0.6-0.51,1.11-1.11,1.68-1.66
		c4.38-4.19,7.65-4.61,12.61-1.21c4.81,3.29,9.65,6.53,14.77,9.31c14.09,7.64,28.97,12.96,44.81,15.63
		c7.48,1.26,9.25,3.61,9.28,11.11c0.01,3.31,0.13,6.62-0.03,9.92c-0.14,3,0.93,4.36,4.07,4.2
		C404.66,578.01,408.13,578.15,411.59,578.15z"/>
	<path class="st1" d="M629.2,669.64c-10.48,0.03-19.65-3.48-26.98-10.74c-27.95-27.68-55.73-55.54-83.51-83.39
		c-4.34-4.35-4.37-8.49-0.11-12.79c14.63-14.75,29.31-29.44,44.07-44.06c4.12-4.08,8.3-4.08,12.44,0.05
		c28.08,28,56.39,55.78,83.95,84.27c11.96,12.36,13.71,27.87,6.54,43.42C658.6,661.59,646.01,669.23,629.2,669.64z M629.26,653.03
		c2.51-0.08,5-0.09,7.46-0.86c17.19-5.31,22.27-26.6,9.03-40.11c-24.48-24.96-49.38-49.5-74.04-74.29c-2.08-2.1-3.38-1.97-5.36,0.04
		c-9.5,9.65-19.08,19.23-28.73,28.73c-2.01,1.98-2.14,3.28-0.05,5.36c24.79,24.65,49.48,49.4,74.23,74.09
		C616.59,650.77,622.38,653.29,629.26,653.03z"/>
	<path class="st1" d="M387.27,438.63c2.78-15.31,5.57-30.61,8.35-45.92c5.13-28.32,10.25-56.65,15.39-84.97
		c0.11-0.62,0.34-1.22,0.46-1.83c0.83-4.35,3.13-7.2,7.82-7.41c4.27-0.19,7.26,2.28,8.39,7.38c3.11,13.97,6.05,27.98,9.04,41.99
		c3.55,16.62,7.08,33.24,10.6,49.86c1.39,6.54,1.37,6.55,8.33,6.55c17.64,0,35.28,0.01,52.91,0c2.39,0,4.72,0.09,6.67,1.77
		c2.69,2.32,3.52,5.27,2.49,8.52c-1.1,3.5-3.7,5.45-7.44,5.45c-22.68,0.03-45.35,0.05-68.03-0.01c-4.92-0.01-7.26-3.06-8.23-7.56
		c-3.65-17.08-7.33-34.15-11.01-51.22c-0.82-3.8-1.68-7.6-3.17-11.38c-3.48,19.12-6.97,38.23-10.44,57.35
		c-3.85,21.2-7.69,42.41-11.54,63.61c-0.2,1.08-0.46,2.16-0.74,3.22c-0.97,3.71-3.18,6.12-7.17,6.43c-4.19,0.33-6.97-1.76-8.38-5.53
		c-1.71-4.57-3.16-9.23-4.7-13.86c-5.82-17.47-11.63-34.94-17.46-52.41c-0.49-1.48-1.07-2.92-1.96-5.32
		c-2.11,4.14-3.89,7.55-5.58,11c-1.93,3.92-4.86,5.85-9.39,5.76c-9.13-0.18-18.27-0.01-27.4-0.07c-5.87-0.03-9.18-2.87-9.26-7.73
		c-0.08-5.09,3.26-7.97,9.45-8.02c5.83-0.05,11.67-0.28,17.48,0.07c4.36,0.26,6.92-1.07,8.71-5.23c2.8-6.5,6.26-12.71,9.4-19.06
		c1.79-3.63,4.19-6.3,8.69-6c4.5,0.3,6.49,3.28,7.77,7.12c6.36,19.11,12.75,38.21,19.13,57.31
		C386.72,438.54,387,438.58,387.27,438.63z"/>
	<path class="st1" d="M381.22,287.11c4.22,0.34,7.11,2.06,8.09,5.88c0.96,3.72-0.23,6.91-3.62,8.92c-1.46,0.86-3.18,1.33-4.81,1.87
		c-45.91,14.97-72.91,46.31-80.85,93.89c-1.9,11.39-1.03,22.87,0.81,34.27c0.96,5.92-1.57,10-6.37,10.68
		c-4.97,0.71-8.36-2.21-9.48-8.16c-12.18-64.6,29.39-130.19,92.94-146.65C379.13,287.5,380.37,287.29,381.22,287.11z"/>
	<path class="st1" d="M411.14,541.11c-38.74-0.77-71.03-15.61-96.77-44.63c-1.45-1.64-2.87-3.4-3.85-5.33
		c-1.89-3.74-0.89-7.19,2.31-9.67c3.06-2.37,6.52-2.34,9.59,0.09c1.83,1.45,3.34,3.33,4.9,5.09c18.78,21.05,42.11,33.76,70.07,37.39
		c22.37,2.91,43.88-0.62,64.23-10.6c1.7-0.83,3.35-1.77,5.1-2.47c4.54-1.82,8.55-0.58,10.63,3.18c2.16,3.91,0.97,8.39-3.29,10.97
		c-7.17,4.34-14.94,7.42-22.91,9.93C438.16,539.14,424.88,541.48,411.14,541.11z"/>
	<path class="st1" d="M540.73,414.68c-1.17,38.56-16.27,70.54-45.38,95.88c-0.83,0.72-1.7,1.41-2.61,2.03
		c-4.15,2.81-8.58,2.36-11.41-1.12c-2.7-3.33-2.26-8.24,1.38-11.39c6.32-5.46,12.37-11.18,17.54-17.76
		c14.49-18.46,22.83-39.26,24.13-62.8c0.23-4.24,0.5-8.42,0.08-12.68c-0.57-5.79,2.67-9.79,7.49-10.06
		c5.21-0.28,8.52,3.23,8.74,9.42C540.82,409.01,540.73,411.85,540.73,414.68z"/>
	<path class="st1" d="M524.62,351.97c-0.19,2.75-1.41,5.23-4.16,6.65c-2.89,1.5-5.86,1.42-8.42-0.64c-1.44-1.15-2.65-2.71-3.63-4.28
		c-15.64-24.89-37.46-41.64-65.68-50c-0.75-0.22-1.5-0.47-2.24-0.75c-4.97-1.86-7.22-5.81-5.84-10.27c1.26-4.09,5.46-6.21,10.3-5.03
		c7.82,1.91,15.32,4.76,22.56,8.25c22.82,11.04,40.96,27.32,54.35,48.86C523.18,346.9,524.59,349.02,524.62,351.97z"/>
</g>
</svg>
