<?xml version="1.0" encoding="UTF-8"?>
<svg id="Calque_1" data-name="Calque 1" xmlns="http://www.w3.org/2000/svg" viewBox="0 0 1080 1080">
  <defs>
    <style>
      .cls-1 {
        fill: #df0913;
      }

      .cls-1, .cls-2 {
        stroke-width: 0px;
      }

      .cls-2 {
        fill: #fdebeb;
      }
    </style>
  </defs>
  <rect class="cls-2" x="-10.8" y="-10.8" width="1101.6" height="1101.6"/>
  <g id="Icon">
    <path class="cls-1" d="m540,806.34c-63.81,0-125.03-23.47-172.37-66.09-4.73-4.25-7.44-10.33-7.44-16.7v-17.99l-6.92-1.64c-42.7-10.14-80.25-29.73-111.6-58.23-4.67-4.25-7.35-10.32-7.35-16.63v-18.25c0-33.63,9.41-66.44,27.21-94.88,17.31-27.65,41.79-50.14,70.81-65.04l9.76-5.01-6.83-8.59c-14.58-18.35-22.29-39.96-22.29-62.48,0-55.77,45.37-101.14,101.14-101.14,50.47,0,93.38,38.02,99.81,88.43l1.17,9.21,10.55-1.68c5-.8,9.71-1.55,14.34-1.55s9.34.75,14.34,1.55l10.55,1.68,1.17-9.21c6.43-50.41,49.33-88.43,99.81-88.43,55.77,0,101.14,45.37,101.14,101.14,0,22.49-7.69,44.07-22.23,62.41l-6.8,8.58,9.73,5.02c16.87,8.7,32.09,19.84,45.22,33.12l.07.07c33.97,33.58,52.67,78.62,52.67,126.81v18.25c0,6.32-2.68,12.38-7.36,16.64-31.35,28.5-68.89,48.09-111.59,58.22l-6.92,1.64v17.99c0,6.37-2.71,12.45-7.43,16.69-47.35,42.63-108.56,66.1-172.37,66.1Zm0-236.01c-33.87,0-67.71,12.23-97.85,35.35-23.18,17.79-37.02,45.83-37.02,75.02v32.58l3.44,2.7c36.21,28.47,82.88,44.15,131.43,44.15s95.22-15.68,131.43-44.15l3.44-2.7v-8.09c0-36.18-14.03-69.99-39.51-95.21-25.29-25.55-59.18-39.66-95.36-39.66Zm-125.87-94.4c-74.37,0-134.87,60.5-134.87,134.87v8.06l3.4,2.7c21.96,17.43,46.98,30.05,74.35,37.49l8.43,2.29,2.54-8.36c13.99-45.99,46.65-85.14,89.62-107.42l9.67-5.01-6.74-8.55c-10.63-13.49-17.66-29.79-20.32-47.14l-1.01-6.62-6.64-.93c-6.81-.95-12.67-1.39-18.42-1.39Zm251.63,0c-6.03,0-12.12.41-18.09,1.23l-6.68.91-1,6.67c-2.54,16.89-9.67,33.16-20.61,47.05l-6.74,8.56,9.68,5c16.72,8.64,31.81,19.7,44.85,32.86,20.99,20.79,36.53,46.61,45,74.72l2.53,8.4,8.46-2.31c27.33-7.46,52.29-20.05,74.2-37.44l3.4-2.7v-8.06c0-36.08-14.05-69.86-39.58-95.11-25-25.25-59.8-39.76-95.41-39.76Zm-125.75-62.23c-16.27,0-31.65,6.61-42.2,18.14l-.42.45-.35.51c-.74,1.07-1.52,2.13-2.28,3.18l-.44.6c-5.88,8.35-9.17,16.97-10.37,27.12-.18,1.59-.17,3.05-.16,4.47v1.03c0,26.12,18.42,49.2,43.79,54.88,4.08.88,8.24,1.32,12.41,1.32s8.33-.44,12.35-1.31c25.43-5.69,43.85-28.77,43.85-54.89v-.7c0-1.48.01-3.15-.16-4.94l-.03-.24c-1.14-9.49-4.37-18.26-9.34-25.37l-.15-.21c-1.49-2.01-2.61-3.56-3.53-4.9l-.35-.51-.42-.46c-10.54-11.56-25.93-18.18-42.23-18.18Zm125.86-95.1c-13.45,0-26.99,4.81-39.15,13.91-1.19.89-2.25,1.95-3.15,3.15-15.07,20.14-18.05,44.15-7.99,64.24,9.61,19.19,28.88,31.11,50.29,31.11,13.45,0,26.99-4.81,39.15-13.9,1.2-.9,2.26-1.95,3.15-3.15,15.06-20.13,18.05-44.15,7.99-64.24-9.61-19.19-28.88-31.11-50.29-31.11Zm-251.74,0c-21.41,0-40.67,11.92-50.28,31.11-10.06,20.1-7.08,44.11,7.99,64.24.9,1.2,1.96,2.26,3.15,3.15,12.16,9.1,25.69,13.9,39.15,13.9,21.41,0,40.68-11.92,50.29-31.11,10.06-20.09,7.08-44.11-7.99-64.24-.89-1.19-1.95-2.25-3.15-3.15-12.16-9.1-25.69-13.91-39.15-13.91Z"/>
  </g>
</svg>