<?xml version="1.0" encoding="utf-8"?>
<!-- Generator: Adobe Illustrator 28.0.0, SVG Export Plug-In . SVG Version: 6.00 Build 0)  -->
<svg version="1.1" id="Calque_1" xmlns="http://www.w3.org/2000/svg" xmlns:xlink="http://www.w3.org/1999/xlink" x="0px" y="0px"
	 viewBox="0 0 900 900" style="enable-background:new 0 0 900 900;" xml:space="preserve">
<style type="text/css">
	.st0{opacity:0.1;fill:#E60001;}
	.st1{fill:#E60001;}
</style>
<rect class="st0" width="900" height="900"/>
<g>
	<path class="st1" d="M464.77,235.19c9.44,1.74,18.96,2.9,28.25,5.56c29.75,8.51,54.93,24.24,75.68,47.19
		c19.06,21.09,31.58,45.61,37.56,73.35c6.4,29.68,4.55,58.79-6.82,87.19c-10.71,26.75-26.95,50.1-43.82,73.09
		c-34.37,46.84-68.81,93.64-103.21,140.45c-0.66,0.9-1.25,1.85-1.87,2.78c-0.56,0-1.12,0-1.67,0c-6.59-9.19-13.13-18.42-19.79-27.55
		c-31.96-43.79-64.08-87.45-95.87-131.36c-14.71-20.31-27.59-41.73-35.58-65.74c-10.87-32.66-9.6-65.24,1.44-97.51
		c11.36-33.21,31.88-59.72,60.59-79.69c20.24-14.07,42.67-22.97,67.17-26.37c2.89-0.4,5.76-0.94,8.64-1.41
		C445.23,235.19,455,235.19,464.77,235.19z M583.6,393.17c-0.26-4.35-0.13-9.78-0.88-15.22c-4.43-32.1-18.17-59.4-42.04-81.28
		c-30.98-28.4-67.59-39.66-109.14-34.35c-29.84,3.82-55.33,17.02-76.43,38.28c-20.57,20.73-33.15,45.77-37.36,74.8
		c-2.7,18.62-1.74,36.96,4.13,55.03c5.71,17.6,14.26,33.74,24.7,48.82c32.51,47.01,67.22,92.42,100.7,138.72
		c2.81,3.88,2.87,3.87,5.82-0.16c26.21-35.87,52.43-71.74,78.62-107.62c12.68-17.38,25.48-34.7,35.49-53.84
		C577.37,436.92,584.22,416.57,583.6,393.17z"/>
	<path class="st1" d="M450.33,302.17c51.9,0.97,92.39,41.79,92.11,93.08c-0.28,52.06-41.21,92.23-92.3,92.3
		c-52.17,0.06-92.44-41.52-92.61-92.91C357.36,343.84,399.76,301.92,450.33,302.17z M450.1,328.5
		c-36.72-0.03-66.33,29.54-66.38,66.28c-0.05,36.81,29.48,66.64,66.05,66.72c36.74,0.08,66.7-29.83,66.69-66.6
		C516.46,358.23,486.77,328.53,450.1,328.5z"/>
</g>
</svg>
