<?xml version="1.0" encoding="UTF-8"?>
<svg id="Calque_1" data-name="Calque 1" xmlns="http://www.w3.org/2000/svg" viewBox="0 0 1080 1080">
  <defs>
    <style>
      .cls-1 {
        fill: #df0913;
      }

      .cls-1, .cls-2 {
        stroke-width: 0px;
      }

      .cls-2 {
        fill: #fdebeb;
      }

      .cls-3 {
        fill: none;
        stroke: #df0913;
        stroke-miterlimit: 10;
        stroke-width: 15.49px;
      }
    </style>
  </defs>
  <rect class="cls-2" x="-10.8" y="-10.8" width="1101.6" height="1101.6"/>
  <path class="cls-1" d="m843.06,499.28c-1.6-7.88-7.4-14.24-15.07-16.68-11.92-3.79-23.85-7.58-35.77-11.37-5.86-21.54-14.4-41.97-25.25-60.91,5.75-11.12,11.51-22.24,17.26-33.36,3.74-7.22,3.22-15.9-1.29-22.67-6.63-9.95-15.38-19.82-26.39-30.83-11.09-11.09-21.03-19.89-31.05-26.54-6.7-4.44-15.31-4.84-22.45-1.14-11.12,5.75-22.24,11.51-33.36,17.26-18.94-10.85-39.37-19.39-60.91-25.25-3.79-11.92-7.58-23.85-11.37-35.77-2.47-7.75-8.96-13.52-16.94-15.12-11.72-2.35-24.89-3.14-40.47-3.14s-28.94.8-40.72,3.19c-7.88,1.6-14.24,7.4-16.68,15.07-3.79,11.92-7.58,23.85-11.37,35.77-21.54,5.86-41.97,14.4-60.91,25.25-11.12-5.75-22.24-11.51-33.36-17.26-7.22-3.74-15.9-3.22-22.67,1.29-9.95,6.63-19.82,15.38-30.83,26.39-11.09,11.09-19.89,21.03-26.54,31.05-4.44,6.7-4.84,15.31-1.14,22.45,5.75,11.12,11.51,22.24,17.26,33.36-10.85,18.94-19.39,39.37-25.25,60.91-11.92,3.79-23.85,7.58-35.77,11.37-7.75,2.47-13.52,8.96-15.12,16.94-2.35,11.72-3.14,24.89-3.14,40.47s.8,28.94,3.19,40.72c1.6,7.88,7.4,14.24,15.07,16.68,11.92,3.79,23.85,7.58,35.77,11.37,5.86,21.54,14.4,41.97,25.25,60.91-5.75,11.12-11.51,22.24-17.26,33.36-3.74,7.22-3.22,15.9,1.29,22.67,6.63,9.95,15.38,19.82,26.39,30.83,11.09,11.09,21.03,19.89,31.05,26.54,6.7,4.44,15.31,4.84,22.45,1.14,11.12-5.75,22.24-11.51,33.36-17.26,18.94,10.85,39.37,19.39,60.91,25.25,3.79,11.92,7.58,23.85,11.37,35.77,2.47,7.75,8.96,13.52,16.94,15.12,11.72,2.35,24.89,3.14,40.47,3.14s28.94-.8,40.72-3.19c7.88-1.6,14.24-7.4,16.68-15.07,3.79-11.92,7.58-23.85,11.37-35.77,21.54-5.86,41.97-14.4,60.91-25.25,11.12,5.75,22.24,11.51,33.36,17.26,7.22,3.74,15.9,3.22,22.67-1.29,9.95-6.63,19.82-15.38,30.83-26.39,11.09-11.09,19.89-21.03,26.54-31.05,4.44-6.7,4.84-15.31,1.14-22.45-5.75-11.12-11.51-22.24-17.26-33.36,10.85-18.94,19.39-39.37,25.25-60.91,11.92-3.79,23.85-7.58,35.77-11.37,7.75-2.46,13.52-8.96,15.12-16.94,2.35-11.72,3.14-24.89,3.14-40.47s-.8-28.94-3.19-40.72Zm-303.06,233.52c-106.48,0-192.8-86.32-192.8-192.8s86.32-192.8,192.8-192.8,192.8,86.32,192.8,192.8-86.32,192.8-192.8,192.8Z"/>
  <circle class="cls-3" cx="540" cy="540" r="161"/>
</svg>