<?xml version="1.0" encoding="utf-8"?>
<!-- Generator: Adobe Illustrator 28.0.0, SVG Export Plug-In . SVG Version: 6.00 Build 0)  -->
<svg version="1.1" id="Calque_1" xmlns="http://www.w3.org/2000/svg" xmlns:xlink="http://www.w3.org/1999/xlink" x="0px" y="0px"
	 viewBox="0 0 900 900" style="enable-background:new 0 0 900 900;" xml:space="preserve">
<style type="text/css">
	.st0{opacity:0.1;fill:#E60001;}
	.st1{fill:#E60001;}
</style>
<rect class="st0" width="900" height="900"/>
<g>
	<path class="st1" d="M470.47,453.92c2.47-0.36,4.95-0.65,7.4-1.09c5.16-0.94,8.39,0.38,10.26,5.09c4.1,10.31,7.98,20.72,11.8,31.14
		c1.7,4.64-0.53,7.89-4.48,10.11c-4.42,2.49-8.39,5.43-11.12,9.83c-2.7,4.33-4.48,8.91-4.39,14.12c0.07,4.22-0.03,8.45-0.07,12.67
		c-0.08,10.33,4.72,17.92,13.2,23.38c6.08,3.92,7.16,6.76,4.29,13.26c-4.04,9.16-8.2,18.26-12.44,27.33
		c-2.71,5.8-5.59,6.99-11.69,5.35c-11.34-3.05-21.34-0.87-29.69,7.7c-1.85,1.9-3.84,3.68-5.76,5.52
		c-8.02,7.65-11.06,16.77-8.35,27.68c1.43,5.77-0.11,9.07-5.48,11.2c-9.74,3.86-19.52,7.62-29.35,11.23
		c-5.22,1.92-8.76,0.61-11.42-4.34c-6.05-11.28-15.49-16.26-28.09-15.84c-2.5,0.08-5.01,0.01-7.51-0.01
		c-10.61-0.1-18.6,4.56-24.32,13.35c-4.1,6.3-6.92,7.18-13.7,4.15c-8.71-3.89-17.42-7.79-26.11-11.71
		c-6.3-2.84-7.72-5.69-5.93-12.25c3.07-11.24,0.74-21.01-7.59-29.27c-2-1.98-3.95-4.01-5.83-6.11c-7.43-8.3-16.8-10.35-27.33-8.43
		c-7.53,1.37-9.94,0.16-12.52-6.89c-3.33-9.11-6.65-18.21-9.91-27.34c-2.12-5.93-1.03-8.92,4.51-12.06
		c10.18-5.76,15.46-14.26,15.02-26.11c-0.1-2.66-0.12-5.32,0.01-7.98c0.56-11.6-4.26-20.16-14.21-26.08c-5.04-3-6.04-6.53-3.6-11.94
		c4.29-9.56,8.67-19.08,13.13-28.56c2.3-4.9,5.57-6.53,10.66-4.98c12.41,3.78,22.76,0.68,31.44-8.75c2.64-2.87,5.92-5.09,8.28-8.28
		c5.14-6.96,6.88-14.59,4.89-23.04c-1.76-7.49-0.41-10.1,6.86-12.94c9.03-3.53,18.07-7.03,27.15-10.42
		c6.23-2.32,9.15-1.2,12.33,4.62c5.71,10.45,14.44,15.67,26.37,15.53c3.13-0.04,6.26,0.01,9.39,0.03c10.38,0.06,18.36-4.32,24-13
		c4.32-6.65,7.13-7.45,14.46-4.12c8.54,3.88,17.11,7.72,25.65,11.59c5.7,2.58,7.32,5.65,5.62,11.6c-3.43,12.02-0.6,22.19,8.49,30.72
		c1.82,1.71,3.47,3.61,5.17,5.44C455.5,450.95,462.26,453.98,470.47,453.92z M301.47,411.08c-0.39,3.05-0.38,6.58-1.32,9.83
		c-6.19,21.41-20.86,34.49-41.51,41.48c-1.89,0.64-4.13,1.25-5.98,0.84c-10.43-2.29-15.4,2.95-17.68,12.24
		c-0.11,0.45-0.34,0.87-0.57,1.28c-1.5,2.69-1.3,4.83,1.36,6.89c3.23,2.5,5.56,5.89,7.74,9.35c7.19,11.42,7.01,24.06,6.07,36.79
		c-0.71,9.65-3.31,19.43-10.87,25.21c-9.06,6.92-7.04,13.41-3.35,21.5c1.64,3.6,3.49,4.75,7.34,4.7
		c12.32-0.15,22.91,4.22,31.5,13.18c2.17,2.26,4.28,4.57,6.5,6.77c10.27,10.17,15.29,22.27,13.6,36.84
		c-0.29,2.5,0.34,4.24,2.91,5.11c1.62,0.55,3.24,1.22,4.7,2.11c6.07,3.7,10.71,4.43,16.68-1.86c9.55-10.07,22.74-10.97,36.14-10.8
		c15.23,0.19,27.81,5.05,37.31,17.1c1.36,1.72,2.66,2.37,4.78,1.51c4.2-1.71,8.44-3.32,12.7-4.87c2.03-0.74,2.78-1.84,2.76-4.16
		c-0.16-22.82,18.54-46.92,40.72-52.63c3.94-1.02,7.94-1.8,12.04-1.64c8.15,0.32,8.15,0.35,11.49-6.89c0.26-0.57,0.53-1.14,0.78-1.7
		c3.58-7.85,3.58-7.85-2.07-14.03c-0.74-0.81-1.42-1.67-2.11-2.52c-9.98-12.32-10.09-26.79-9.02-41.5
		c0.7-9.5,3.25-19.13,10.59-24.85c9.2-7.18,7.36-13.89,3.34-22.27c-1.56-3.25-3.18-4.37-6.64-4.25
		c-11.84,0.4-22.04-3.86-30.73-11.76c-2.65-2.41-4.8-5.37-7.42-7.82c-8.63-8.07-14.94-18.15-13.84-29.66
		c1.1-11.53-5.22-14.38-13.34-17.25c-0.15-0.05-0.3-0.1-0.43-0.19c-2.57-1.76-4.4-0.99-6.4,1.25c-6.82,7.64-15.46,12.32-25.56,13.57
		c-6.17,0.76-12.49,0.29-18.75,0.31c-10.46,0.04-20.7-2.72-27.22-10.54c-7.09-8.52-13.61-8.12-21.79-3.45
		c-0.27,0.15-0.57,0.26-0.87,0.34C301.89,405.46,299.97,407.07,301.47,411.08z"/>
	<path class="st1" d="M451.38,250.95c-0.09-0.84-0.5-2.7-0.47-4.56c0.06-3.62,1.84-6.3,5.19-7.68c6.51-2.67,13.04-5.29,19.62-7.79
		c4.27-1.62,7.61-0.16,10.07,3.59c8.65,13.2,25.57,13.72,35.13,1.03c2.77-3.67,6.28-4.64,10.34-2.97
		c6.36,2.61,12.65,5.41,18.87,8.36c4.69,2.23,5.92,5.17,4.88,10.38c-2.96,14.9,9.02,27.42,23.91,24.99c4.9-0.8,8.15,0.91,10.03,5.62
		c2.44,6.1,4.79,12.23,6.98,18.42c1.83,5.18,0.65,8.21-3.92,11.19c-12.25,7.97-12.7,25.67-0.87,34.5c4.44,3.31,5.4,6.29,3.23,11.37
		c-2.57,6.04-5.27,12.03-8.1,17.96c-2.27,4.76-5.09,6.05-10.27,5.13c-15.48-2.73-27.31,8.66-25.15,24.33
		c0.6,4.35-1.01,7.48-4.87,9.12c-6.48,2.74-13.05,5.26-19.68,7.61c-4.57,1.62-8.1,0.05-10.82-4.07
		c-8.22-12.47-25.79-12.62-34.64-0.38c-2.49,3.44-5.71,4.93-9.78,3.22c-6.77-2.85-13.52-5.78-20.16-8.91
		c-3.88-1.83-5.16-5.14-4.25-9.39c3.36-15.55-8.15-27.85-24.01-25.6c-4.54,0.64-7.69-1.1-9.37-5.2c-2.54-6.22-4.96-12.5-7.21-18.83
		c-1.94-5.43-0.81-8.57,4.17-11.42c5.91-3.38,8.24-8.32,8.5-15.05c0.33-8.48-0.7-15.76-9.05-20.43c-3.47-1.94-4.19-5.76-2.54-9.55
		c2.8-6.45,5.61-12.91,8.66-19.25c2.36-4.9,6.81-4.88,11.35-4.11C439.07,274.58,451.63,263.94,451.38,250.95z M423.14,352.77
		c-0.03,3.67,2.78,6.56,6.65,6.76c5.97,0.3,11.41,2.2,16,5.95c9.93,8.13,18.09,17.42,18.09,31.31c0,3.05,2.12,3.83,4.23,4.91
		c2.05,1.05,3.76,1.08,5.45-0.74c11.09-11.9,40.2-11.39,50.53,1.34c1.79,2.2,3.65,1.74,5.84,0.92c2.31-0.87,4.13-1.72,4.25-4.76
		c0.23-5.55,1.59-11,4.97-15.42c8.17-10.68,17.52-19.63,32.31-19.69c4.11-0.02,7.34-5.9,4.68-8.8c-8.16-8.87-9.05-19.44-8.48-30.67
		c0.38-7.39,2.93-13.69,7.76-19.12c1.97-2.22,4.1-3.84,2.61-7.61c-1.4-3.54-3.86-4.05-6.87-4.47c-17.7-2.48-32.25-18.49-32.62-36.26
		c-0.06-2.97-1.23-4.13-3.62-5.12c-2.39-1-4.39-2.01-6.69,0.49c-10.18,11.08-39.77,11.17-50.39-1.3c-1.65-1.94-3.41-2.3-5.8-1.22
		c-2.42,1.09-4.31,2.07-4.29,5.28c0.1,16.42-20.77,35.34-35.88,34.18c-3.36-0.26-4.56,1.74-5.86,4.27
		c-1.31,2.55-0.59,4.16,1.08,6.22c11.19,13.86,10.29,37.06-1.78,50.12C424.37,350.34,423.08,351.13,423.14,352.77z"/>
	<path class="st1" d="M640.59,649.56c0.4,8.81-0.16,9.69-8.16,13.01c-4.91,2.03-9.78,4.17-14.73,6.1c-5.64,2.2-8.71,1.09-11.86-3.98
		c-7.23-11.67-26.41-12.12-34.28-0.8c-3.14,4.52-6.16,5.53-11.27,3.39c-6.05-2.54-12.06-5.19-18-7.99
		c-5.02-2.36-6.24-5.15-5.13-10.66c2.92-14.54-8.94-27.07-23.63-24.94c-5.31,0.77-8.3-0.84-10.32-5.88
		c-2.38-5.95-4.69-11.93-6.86-17.96c-1.94-5.4-0.83-8.59,4.04-11.47c5.8-3.42,8.8-8.22,8.41-15.05c-0.12-2.03-0.03-4.07,0-6.1
		c0.08-5.63-2.26-9.85-7.06-12.9c-5.39-3.44-6.21-6.35-3.72-12.3c2.35-5.62,4.75-11.23,7.29-16.78c2.41-5.26,5.16-6.67,10.84-5.91
		c15.99,2.13,26.92-8.74,24.74-24.64c-0.56-4.1,1.02-7.21,4.73-8.76c6.78-2.83,13.64-5.48,20.57-7.89c4.2-1.46,7.53,0.09,9.98,3.94
		c8.15,12.84,25.99,13.22,34.8,0.77c2.62-3.69,6.04-5.02,10.19-3.31c6.5,2.68,12.91,5.59,19.3,8.53c4.15,1.91,5.39,5.35,4.61,9.72
		c-2.79,15.62,7.93,27.4,23.78,25.87c4.99-0.48,8.21,1.34,9.97,5.82c2.46,6.25,4.89,12.53,7.09,18.88c1.69,4.9,0.5,8.05-4.08,10.62
		c-5.93,3.32-8.35,8.17-8.65,14.94c-0.38,8.71,0.96,16.03,9.27,20.89c3.01,1.76,3.85,5.27,2.32,8.76
		c-2.88,6.59-5.74,13.19-8.81,19.69c-1.92,4.06-5.29,5.36-9.73,4.51C652.03,624.96,639.94,635.33,640.59,649.56z M617.79,651.32
		c2.7-1.19,6.54-1.2,6.37-6.23c-0.2-5.63,1.72-10.97,5.16-15.3c8.26-10.37,17.48-19.46,32.26-18.69c2.76,0.14,3.92-1.44,4.71-3.66
		c0.71-1.97,1.95-3.61,0.04-5.97c-12.65-15.63-12.28-36.22,0.96-50.87c2.07-2.29,1.53-4.1,0.65-6.33c-0.83-2.09-1.67-3.71-4.48-3.99
		c-19.02-1.93-34.23-17.55-35.35-36.42c-0.2-3.34-1.87-4.55-4.41-5.78c-2.41-1.17-4.08-0.56-5.8,1.22
		c-10.63,11.05-39.02,11.39-50.24-1.72c-1.42-1.66-2.81-2.28-4.85-1.27c-2.16,1.06-5.02,1.25-5.03,4.69
		c-0.01,1.39-0.37,2.78-0.59,4.17c-2.57,16.13-18.87,30.71-35.22,31.26c-3.1,0.1-4.81,1.11-6.11,3.9c-1.29,2.75-0.74,4.68,1.22,6.7
		c10.94,11.27,10.69,39.08-2.03,49.92c-2.69,2.29-1.29,4.36-0.57,6.7c0.73,2.34,1.89,3.83,4.63,3.64
		c14.97-1.03,34.95,18.7,34.74,35.9c-0.03,2.59,0.19,4.38,2.99,5.49c2.85,1.13,4.98,1.56,7.51-0.95
		c10.91-10.8,39.05-10.55,49.63,1.63C614.89,650.42,615.8,651.59,617.79,651.32z"/>
	<path class="st1" d="M357.75,460.88c34.67,0.03,63.07,28.33,63.1,62.88c0.04,35.39-29.43,65.27-64.14,65.06
		c-34.78-0.22-63.09-28.81-63-63.64C293.81,489.59,322.43,460.85,357.75,460.88z M403.72,525.35
		c-0.09-26.57-20.89-47.16-47.52-47.05c-25.8,0.11-46.83,21.2-46.87,46.99c-0.04,25.56,21.69,47.21,47.43,47.27
		C382.78,572.63,403.8,551.49,403.72,525.35z"/>
	<path class="st1" d="M501,369.56c-24.61,0.03-44-19.21-43.94-43.6c0.06-23.95,19.73-43.42,43.82-43.37
		c23.81,0.04,43.17,19.31,43.47,43.27C544.63,349.77,525.04,369.53,501,369.56z M500.51,353.93c15.45,0.02,27.8-12.23,27.84-27.62
		c0.04-15.43-12.82-28.26-28.11-28.04c-14.82,0.21-27.29,12.8-27.56,27.83C472.41,341.03,485.28,353.91,500.51,353.93z"/>
	<path class="st1" d="M591.16,530.31c24.17-0.04,43.68,19.35,43.69,43.41c0,23.81-19.86,43.59-43.74,43.56
		c-23.95-0.03-43.86-19.88-43.73-43.6C547.5,549.7,567.03,530.35,591.16,530.31z M590.77,545.95
		c-15.18-0.07-28.03,12.67-27.88,27.65c0.15,15.37,12.93,28.09,28.19,28.06c15.15-0.03,27.23-12.15,27.37-27.46
		C618.59,558.64,606.24,546.03,590.77,545.95z"/>
</g>
</svg>
