<?xml version="1.0" encoding="utf-8"?>
<!-- Generator: Adobe Illustrator 28.0.0, SVG Export Plug-In . SVG Version: 6.00 Build 0)  -->
<svg version="1.1" id="Calque_1" xmlns="http://www.w3.org/2000/svg" xmlns:xlink="http://www.w3.org/1999/xlink" x="0px" y="0px"
	 viewBox="0 0 1487.41 461.85" style="enable-background:new 0 0 1487.41 461.85;" xml:space="preserve">
<style type="text/css">
	.st0{fill:#E60001;}
</style>
<g>
	<path class="st0" d="M184.78,255.67v-72.51c-0.3-9.64-3.79-15.65-10.47-21.05c-6.69-5.4-12.96-8.15-22.46-8.24h-3.68
		c-9.87,0.24-16.32,3.47-22.97,9.7c-6.65,6.23-10.11,12.53-10.37,21.93v67.06c0.26,9.4,3.72,15.7,10.37,21.93
		c6.65,6.23,13.1,9.46,22.97,9.7h3.68c9.5-0.13,15.77-2.89,22.46-8.28C180.99,270.5,184.48,264.77,184.78,255.67L184.78,255.67z
		 M180.51,308.45c-1.14,0.73-2.34,1.69-3.55,2.71l-0.33,0.26c-0.24,0.19-0.48,0.37-0.73,0.56c-0.25,0.18-0.5,0.37-0.76,0.55
		c-0.26,0.18-0.52,0.36-0.79,0.54c-0.27,0.18-0.54,0.35-0.82,0.53c-0.28,0.17-0.56,0.34-0.84,0.51c-0.29,0.17-0.58,0.33-0.87,0.5
		c-0.29,0.16-0.59,0.32-0.9,0.48c-0.3,0.16-0.61,0.31-0.92,0.46c-0.31,0.15-0.63,0.3-0.95,0.45s-0.64,0.29-0.97,0.43
		c-0.33,0.14-0.65,0.27-0.98,0.4c-0.33,0.13-0.65,0.25-0.98,0.37c-0.33,0.12-0.65,0.23-0.97,0.34c-0.32,0.11-0.65,0.21-0.97,0.31
		s-0.64,0.19-0.96,0.28c-0.32,0.09-0.64,0.17-0.95,0.25c-0.32,0.08-0.63,0.15-0.95,0.22c-0.31,0.07-0.62,0.13-0.93,0.19
		c-0.31,0.06-0.62,0.12-0.92,0.17c-3.72,0.63-7.58,0.96-11.57,0.99h-2.95c-19.27-0.46-35.34-6.79-48.22-18.98
		c-12.87-12.19-19.56-27.47-20.06-45.84v-72.23c0.5-18.37,7.18-33.65,20.06-45.84c12.87-12.19,28.95-18.51,48.22-18.98h3.8
		c3.64,0.06,7.05,0.31,10.21,0.74l0.92,0.16c0.32,0.05,0.63,0.11,0.96,0.17c0.32,0.06,0.64,0.13,0.97,0.2
		c0.32,0.07,0.65,0.15,0.98,0.23c0.33,0.08,0.65,0.17,0.98,0.26c0.33,0.09,0.66,0.19,0.99,0.29c0.33,0.1,0.66,0.21,1,0.32
		c0.33,0.11,0.67,0.23,1,0.35c0.33,0.12,0.66,0.25,0.99,0.37c0.33,0.13,0.65,0.26,0.97,0.4c0.32,0.13,0.63,0.27,0.95,0.42
		c0.31,0.14,0.62,0.29,0.92,0.43c0.3,0.15,0.6,0.3,0.9,0.45c0.29,0.15,0.58,0.31,0.87,0.47c0.28,0.16,0.57,0.32,0.84,0.48l0.25,0.15
		l0.37,0.23l0.36,0.23l0.36,0.23l0.35,0.24l0.35,0.24l0.33,0.24l0.33,0.24l0.32,0.25l0.32,0.24l0.31,0.25l0.31,0.25l0.3,0.25
		l0.3,0.25l0.28,0.25l0.28,0.25l0.27,0.25l0.27,0.25c0,0,0.25,0.24,0.56,0.45c0.18,0.11,0.33,0.2,0.49,0.26
		c0.21,0.09,0.44,0.16,0.67,0.2c0.23,0.05,0.47,0.07,0.72,0.07c0.25,0,0.49-0.02,0.72-0.07c0.23-0.05,0.46-0.12,0.67-0.21
		s0.42-0.2,0.61-0.33c0.19-0.13,0.37-0.27,0.53-0.44s0.31-0.34,0.44-0.53c0.13-0.19,0.24-0.39,0.33-0.61
		c0.09-0.21,0.16-0.44,0.21-0.67c0.05-0.23,0.09-0.47,0.09-0.72c-0.02-2.38-0.08-5.62,2.61-6.41c1.58-0.47,3.54-0.23,5.14-0.23h15.9
		h8.48c2.48,0,6.24-0.61,7.27,2.43c0.77,2.26,0.25,6.98,0.25,9.4l0,33.72v78.87l-0.01,41.43c0,13.68,0.55,27.5-0.99,41.14
		c-4.3,37.98-23.28,70.25-63.46,77.33c-24.32,4.29-48.56-4.38-67.34-19.88c-2.3-1.89-7.05-5.07-6.86-8.33
		c0.07-1.15,0.63-2.21,1.39-3.06c0,0,15.57-16.47,16.71-17.91c1.1-1.22,2.65-2.99,4.38-2.98c2.45,0.01,5.01,2.31,9.46,4.92
		c7.59,4.45,15.72,8.53,24.37,9.83c5.47,0.82,11.41,0.07,16.65-1.63c20.38-6.6,26.02-32.33,27.19-52.49l0-0.34
		c0-0.12,0-0.24-0.01-0.36c-0.01-0.12-0.03-0.24-0.05-0.35c-0.02-0.11-0.05-0.23-0.09-0.34c-0.03-0.11-0.07-0.22-0.12-0.32
		c-0.04-0.11-0.09-0.21-0.15-0.31c-0.05-0.1-0.11-0.2-0.18-0.29c-0.06-0.09-0.13-0.18-0.2-0.27c-0.07-0.09-0.15-0.17-0.23-0.25
		c-0.08-0.08-0.16-0.16-0.25-0.23c-0.09-0.07-0.18-0.14-0.27-0.2c-0.09-0.06-0.19-0.12-0.29-0.18c-0.1-0.05-0.2-0.1-0.31-0.15
		c-0.11-0.04-0.21-0.08-0.32-0.12c-0.11-0.03-0.22-0.06-0.34-0.09c-0.12-0.02-0.23-0.04-0.35-0.05c-0.12-0.01-0.24-0.02-0.36-0.02
		c-0.12,0-0.24,0.01-0.36,0.02c-0.12,0.01-0.23,0.03-0.35,0.05c-0.12,0.02-0.23,0.05-0.34,0.09c-0.11,0.03-0.22,0.07-0.32,0.12
		C180.99,308.17,180.6,308.38,180.51,308.45L180.51,308.45z"/>
	<path class="st0" d="M499.62,315.3v-26.52c-0.02-1.54-0.42-2.66-1.22-3.37c-0.79-0.71-1.86-1.06-3.21-1.05h-73.02
		c-1.75-0.01-3.01-0.32-3.76-0.94c-0.67-0.6-1.16-1.34-1.16-2.49c-0.05-1.05,0.41-2.34,0.94-3.21l80.02-151
		c0.23-0.46,0.43-0.98,0.61-1.55c0.18-0.57,0.27-1.09,0.28-1.55c-0.07-2.28-1.7-3.46-4.87-3.54H363.14c-3.02-0.07-4.5,1.4-4.43,4.42
		v26.52c-0.07,3.02,1.4,4.49,4.43,4.42h68.46c1.56,0.01,2.81,0.28,3.65,0.9c0.84,0.62,1.21,1.53,1.22,2.64
		c-0.01,0.46-0.1,0.98-0.28,1.55c-0.17,0.57-0.38,1.09-0.61,1.55l-80.85,151c-0.23,0.46-0.43,0.98-0.61,1.55
		c-0.18,0.57-0.27,1.09-0.28,1.55c0.07,2.28,1.7,3.46,4.87,3.54H495.2c1.54,0.01,2.66-0.34,3.37-1.05
		C499.28,317.96,499.63,316.84,499.62,315.3L499.62,315.3z"/>
	<path class="st0" d="M272.89,94.42c0.13,1.46,0.56,2.59,1.31,3.34c0.87,0.87,2.21,1.32,4.02,1.37l27.59,0
		c1.8-0.05,3.15-0.51,4.02-1.37c0.74-0.74,1.29-1.85,1.29-3.29c0,0,0-0.77,0-0.8V63.01c-0.05-1.83-0.47-3.22-1.34-4.09
		c-0.87-0.87-2.21-1.32-4.02-1.37l-2.19-0.01c-1.71,0-3.15,0.38-4.72,2.05l-23.15,25.85l-1.11,1.31c-1.24,1.44-1.72,2.65-1.72,4.2
		v2.72C272.85,93.88,272.89,94.42,272.89,94.42L272.89,94.42z"/>
	<path class="st0" d="M310.93,124.65c0-1.56-0.38-2.79-1.1-3.54c-0.77-0.8-1.98-1.19-3.65-1.18h-28.73
		c-1.67,0.02-2.88,0.48-3.65,1.37c-0.72,0.84-1.13,1.96-1.13,3.36l0,0.79l0,107.92l0.03,81.64c0,1.56,0.38,2.79,1.1,3.54
		c0.77,0.8,1.98,1.19,3.65,1.18h28.73c1.67-0.02,2.88-0.48,3.65-1.37c0.72-0.84,1.1-1.94,1.1-3.36L310.93,124.65L310.93,124.65z"/>
	<path class="st0" d="M599.6,316.23c-0.44-0.56-1.11-0.84-1.99-0.84h-17.64l19.88-38.15c0.33-0.61,0.49-1.21,0.49-1.82
		c0-0.84-0.3-1.56-0.91-2.17c-0.61-0.61-1.38-0.91-2.31-0.91H577.1c-0.93,0-1.61,0.28-2.03,0.84c-0.42,0.56-0.63,1.17-0.63,1.82
		c0,0.65,0.21,1.26,0.63,1.82c0.42,0.56,1.1,0.84,2.03,0.84h16.59l-19.81,38.01c-0.28,0.51-0.42,1.07-0.42,1.68
		c0,0.89,0.27,1.67,0.81,2.34c0.54,0.68,1.29,1.02,2.27,1.02h21.07c0.89,0,1.55-0.28,1.99-0.84c0.44-0.56,0.67-1.17,0.67-1.82
		C600.27,317.4,600.04,316.79,599.6,316.23L599.6,316.23z M633.9,289.21c0-0.89-0.28-1.55-0.84-1.99c-0.56-0.44-1.17-0.67-1.82-0.67
		c-0.65,0-1.26,0.22-1.82,0.66c-0.56,0.44-0.84,1.11-0.84,1.99v20.6c0,1.63-0.58,3.03-1.75,4.19c-1.17,1.16-2.59,1.75-4.27,1.75
		h-0.63c-1.63,0-3.03-0.58-4.2-1.75c-1.17-1.16-1.75-2.56-1.75-4.19v-20.6c0-0.88-0.28-1.55-0.84-1.99s-1.17-0.66-1.82-0.66
		c-0.65,0-1.26,0.22-1.82,0.67c-0.56,0.44-0.84,1.11-0.84,1.99v20.65c0,1.96,0.3,3.64,0.91,5.04c0.61,1.4,1.42,2.55,2.45,3.47
		c1.03,0.91,2.23,1.59,3.61,2.03c1.38,0.44,2.81,0.66,4.3,0.66h0.63c1.21,0,2.36-0.18,3.43-0.53c1.07-0.35,1.94-0.86,2.59-1.53
		c0.14,0.71,0.47,1.23,0.98,1.56c0.51,0.33,1.07,0.5,1.68,0.5c0.65,0,1.26-0.22,1.82-0.66c0.56-0.44,0.84-1.08,0.84-1.92V289.21
		L633.9,289.21z M669.75,311.01c0-2.28-0.46-4.07-1.37-5.38c-0.91-1.3-2.03-2.32-3.36-3.04c-1.33-0.72-2.79-1.26-4.38-1.61
		c-1.59-0.35-3.04-0.7-4.37-1.05c-1.33-0.35-2.45-0.81-3.36-1.4c-0.91-0.58-1.37-1.48-1.37-2.69v-0.21
		c0.05-1.02,0.58-1.91,1.61-2.65c1.03-0.74,2.52-1.12,4.48-1.12h0.28c1.59,0,2.82,0.22,3.71,0.66c0.89,0.44,1.7,0.85,2.45,1.23
		c0.56,0.28,1.07,0.42,1.54,0.42c0.75,0,1.35-0.26,1.82-0.77c0.47-0.51,0.7-1.1,0.7-1.75c0-0.85-0.33-1.54-0.98-2.06
		c-0.28-0.24-0.69-0.53-1.23-0.89c-0.54-0.35-1.19-0.68-1.96-0.99c-0.77-0.31-1.66-0.58-2.66-0.82c-1-0.24-2.11-0.36-3.32-0.36
		h-0.28c-1.12,0-2.34,0.15-3.67,0.45c-1.33,0.3-2.57,0.8-3.71,1.5c-1.14,0.7-2.11,1.62-2.9,2.76c-0.79,1.14-1.19,2.55-1.19,4.22
		c0,2.19,0.46,3.88,1.36,5.06c0.91,1.19,2.03,2.11,3.36,2.76c1.33,0.65,2.79,1.13,4.38,1.43c1.59,0.3,3.04,0.66,4.37,1.08
		c1.33,0.42,2.45,0.99,3.36,1.71c0.91,0.72,1.37,1.83,1.37,3.32v0.21c-0.05,1.16-0.64,2.23-1.79,3.21
		c-1.14,0.98-2.79,1.47-4.93,1.47h-0.35c-1.31,0-2.64-0.44-3.99-1.33c-1.35-0.89-2.47-1.91-3.36-3.08c-0.33-0.47-0.7-0.78-1.12-0.95
		c-0.42-0.16-0.84-0.24-1.26-0.24c-0.7,0-1.33,0.23-1.89,0.7c-0.56,0.47-0.84,1.1-0.84,1.89c0,0.19,0.12,0.63,0.35,1.33
		c0.56,1.07,1.28,2.05,2.17,2.92c0.89,0.88,1.87,1.61,2.94,2.2c1.07,0.59,2.21,1.05,3.39,1.38c1.19,0.33,2.35,0.5,3.47,0.5h0.42
		c1.45,0,2.89-0.21,4.34-0.63c1.45-0.42,2.75-1.04,3.92-1.85c1.17-0.81,2.1-1.83,2.8-3.04c0.7-1.21,1.05-2.63,1.05-4.26V311.01
		L669.75,311.01z M706.7,316.83c-0.35-0.49-0.92-0.81-1.72-0.95c-1.21-0.23-1.82-1-1.82-2.31v-16.24c0-1.49-0.28-2.89-0.84-4.2
		c-0.56-1.31-1.33-2.45-2.31-3.43c-0.98-0.98-2.15-1.75-3.5-2.31c-1.35-0.56-2.8-0.84-4.34-0.84h-0.49c-0.93,0-1.89,0.11-2.87,0.32
		c-0.98,0.21-1.94,0.56-2.87,1.05c-0.93,0.49-1.81,1.15-2.62,1.99c-0.82,0.84-1.5,1.89-2.06,3.15c-0.19,0.33-0.28,0.75-0.28,1.26
		c0,0.75,0.28,1.34,0.84,1.79c0.56,0.44,1.17,0.67,1.82,0.67c0.47,0,0.91-0.1,1.33-0.32c0.42-0.21,0.77-0.57,1.05-1.08
		c0.65-1.17,1.4-2.04,2.24-2.63c0.84-0.58,1.98-0.87,3.43-0.87h0.49c1.54,0,2.87,0.42,3.99,1.26c1.12,0.84,1.68,2.31,1.68,4.41
		c0,0.19-0.01,0.4-0.04,0.63c-0.02,0.23-0.08,0.42-0.17,0.56c-0.28,0.37-0.92,0.67-1.93,0.88c-1,0.21-2.16,0.43-3.47,0.67
		c-1.31,0.23-2.68,0.54-4.13,0.91c-1.45,0.37-2.78,0.92-3.99,1.64c-1.21,0.72-2.22,1.68-3.01,2.87c-0.79,1.19-1.19,2.69-1.19,4.51
		v0.84c0,1.63,0.33,3.08,0.98,4.34c0.65,1.26,1.5,2.31,2.55,3.15c1.05,0.84,2.25,1.47,3.61,1.89c1.35,0.42,2.73,0.63,4.13,0.63h0.63
		c2.94,0,5.46-0.91,7.56-2.73c0.47,0.65,1.07,1.21,1.82,1.68c0.75,0.47,1.73,0.79,2.94,0.98c0.05,0.05,0.21,0.07,0.49,0.07
		c0.84,0,1.48-0.27,1.92-0.8c0.44-0.54,0.66-1.15,0.66-1.85C707.22,317.84,707.05,317.32,706.7,316.83L706.7,316.83z M697.85,309.79
		c0,1.68-0.59,3.09-1.78,4.23c-1.19,1.14-2.6,1.71-4.24,1.71h-0.63c-1.77,0-3.21-0.44-4.3-1.33c-1.1-0.89-1.65-2.08-1.65-3.57v-0.56
		c0-1.21,0.41-2.15,1.23-2.8c0.82-0.65,1.85-1.17,3.11-1.54c1.26-0.37,2.62-0.66,4.1-0.87c1.47-0.21,2.86-0.48,4.16-0.8V309.79
		L697.85,309.79z M759.23,297.75c0-1.91-0.3-3.58-0.91-5c-0.61-1.42-1.43-2.59-2.48-3.5c-1.05-0.91-2.25-1.59-3.6-2.03
		c-1.35-0.44-2.78-0.67-4.27-0.67h-0.63c-1.77,0-3.4,0.36-4.86,1.08c-1.47,0.72-2.74,1.69-3.82,2.9c-1.07-1.21-2.34-2.18-3.82-2.9
		c-1.47-0.72-3.09-1.08-4.86-1.08h-0.63c-1.21,0-2.36,0.19-3.43,0.56c-1.07,0.37-1.94,0.89-2.59,1.54c-0.14-0.7-0.47-1.22-0.98-1.58
		c-0.51-0.35-1.05-0.52-1.61-0.52c-0.7,0-1.33,0.23-1.89,0.7c-0.56,0.47-0.84,1.12-0.84,1.96v29.26c0,0.89,0.28,1.54,0.84,1.96
		c0.56,0.42,1.17,0.63,1.82,0.63c0.65,0,1.26-0.21,1.82-0.63c0.56-0.42,0.84-1.07,0.84-1.96v-21.21c0-1.63,0.61-2.94,1.82-3.92
		c1.21-0.98,2.61-1.47,4.2-1.47h0.63c1.68,0,3.1,0.56,4.27,1.68c1.17,1.12,1.75,2.57,1.75,4.34v20.44c0,0.93,0.28,1.62,0.84,2.06
		c0.56,0.44,1.17,0.66,1.82,0.66c0.65,0,1.26-0.22,1.82-0.66c0.56-0.44,0.84-1.13,0.84-2.06v-20.44c0-1.73,0.58-3.16,1.75-4.3
		c1.17-1.14,2.59-1.71,4.27-1.71h0.63c1.77,0,3.21,0.49,4.31,1.47c1.1,0.98,1.65,2.45,1.65,4.41v20.72c0,0.89,0.28,1.54,0.84,1.96
		c0.56,0.42,1.17,0.63,1.82,0.63c0.65,0,1.26-0.21,1.82-0.63c0.56-0.42,0.84-1.07,0.84-1.96V297.75L759.23,297.75z M812.83,297.75
		c0-1.91-0.3-3.58-0.91-5c-0.61-1.42-1.44-2.59-2.49-3.5c-1.05-0.91-2.25-1.59-3.6-2.03c-1.35-0.44-2.78-0.67-4.27-0.67h-0.63
		c-1.77,0-3.39,0.36-4.86,1.08c-1.47,0.72-2.74,1.69-3.81,2.9c-1.07-1.21-2.35-2.18-3.82-2.9c-1.47-0.72-3.09-1.08-4.87-1.08h-0.63
		c-1.21,0-2.36,0.19-3.43,0.56c-1.07,0.37-1.94,0.89-2.59,1.54c-0.14-0.7-0.47-1.22-0.98-1.58c-0.51-0.35-1.05-0.52-1.61-0.52
		c-0.7,0-1.33,0.23-1.89,0.7c-0.56,0.47-0.84,1.12-0.84,1.96v29.26c0,0.89,0.28,1.54,0.84,1.96c0.56,0.42,1.17,0.63,1.82,0.63
		c0.65,0,1.26-0.21,1.82-0.63c0.56-0.42,0.84-1.07,0.84-1.96v-21.21c0-1.63,0.61-2.94,1.82-3.92c1.21-0.98,2.61-1.47,4.2-1.47h0.63
		c1.68,0,3.1,0.56,4.27,1.68c1.17,1.12,1.75,2.57,1.75,4.34v20.44c0,0.93,0.28,1.62,0.84,2.06c0.56,0.44,1.17,0.66,1.82,0.66
		c0.65,0,1.26-0.22,1.82-0.66c0.56-0.44,0.84-1.13,0.84-2.06v-20.44c0-1.73,0.58-3.16,1.75-4.3c1.17-1.14,2.59-1.71,4.27-1.71h0.63
		c1.77,0,3.21,0.49,4.3,1.47c1.1,0.98,1.65,2.45,1.65,4.41v20.72c0,0.89,0.28,1.54,0.84,1.96c0.56,0.42,1.17,0.63,1.82,0.63
		c0.65,0,1.26-0.21,1.82-0.63c0.56-0.42,0.84-1.07,0.84-1.96V297.75L812.83,297.75z M847.79,297.89c0-1.63-0.29-3.14-0.87-4.51
		c-0.58-1.38-1.39-2.58-2.42-3.61c-1.03-1.03-2.23-1.82-3.6-2.38c-1.38-0.56-2.83-0.84-4.37-0.84h-0.7c-1.54,0-3,0.29-4.38,0.88
		c-1.38,0.58-2.58,1.39-3.6,2.41c-1.03,1.03-1.83,2.23-2.42,3.61c-0.58,1.38-0.88,2.83-0.88,4.38v12.04c0,1.59,0.29,3.06,0.88,4.41
		c0.58,1.35,1.39,2.53,2.42,3.54c1.03,1,2.23,1.8,3.6,2.38c1.38,0.58,2.84,0.88,4.38,0.88h0.7c2.38,0,4.47-0.61,6.26-1.84
		c1.8-1.23,3.12-2.83,3.96-4.81c0.19-0.33,0.28-0.72,0.28-1.19c0-0.79-0.28-1.45-0.84-1.96c-0.56-0.51-1.19-0.77-1.89-0.77
		c-0.47,0-0.91,0.13-1.33,0.38c-0.42,0.26-0.75,0.69-0.98,1.3c-0.47,0.98-1.16,1.82-2.07,2.52c-0.91,0.7-2.04,1.05-3.39,1.05h-0.7
		c-1.63,0-3.03-0.58-4.2-1.74c-1.17-1.16-1.75-2.55-1.75-4.17v-3.54h15.26c0.75,0,1.38-0.27,1.89-0.8c0.51-0.54,0.77-1.16,0.77-1.86
		V297.89L847.79,297.89z M842.47,301.39h-12.6v-3.53c0-1.69,0.59-3.11,1.78-4.27c1.19-1.15,2.6-1.73,4.24-1.73h0.7
		c1.54,0,2.91,0.58,4.1,1.73c1.19,1.15,1.78,2.6,1.78,4.34V301.39L842.47,301.39z M882.56,297.82c0-1.91-0.3-3.58-0.91-5.01
		c-0.61-1.42-1.42-2.6-2.45-3.53c-1.03-0.93-2.22-1.62-3.57-2.06c-1.35-0.44-2.78-0.67-4.27-0.67h-0.63c-1.21,0-2.36,0.19-3.43,0.56
		c-1.07,0.37-1.94,0.89-2.59,1.54c-0.14-0.7-0.47-1.22-0.98-1.58c-0.51-0.35-1.07-0.52-1.68-0.52c-0.7,0-1.33,0.23-1.89,0.7
		c-0.56,0.47-0.84,1.12-0.84,1.96v29.26c0,0.89,0.28,1.54,0.84,1.96c0.56,0.42,1.17,0.63,1.82,0.63c0.65,0,1.26-0.21,1.82-0.63
		c0.56-0.42,0.84-1.07,0.84-1.96v-20.65c0-1.68,0.59-3.09,1.78-4.24c1.18-1.14,2.59-1.71,4.21-1.71h0.63c1.67,0,3.09,0.58,4.25,1.75
		c1.16,1.17,1.74,2.57,1.74,4.2v20.65c0,0.89,0.28,1.54,0.85,1.96c0.57,0.42,1.18,0.63,1.84,0.63c0.66,0,1.26-0.21,1.81-0.63
		c0.54-0.42,0.82-1.07,0.82-1.96V297.82L882.56,297.82z M920.27,316.83c-0.35-0.49-0.92-0.81-1.72-0.95c-1.21-0.23-1.82-1-1.82-2.31
		v-16.24c0-1.49-0.28-2.89-0.84-4.2c-0.56-1.31-1.33-2.45-2.31-3.43c-0.98-0.98-2.15-1.75-3.5-2.31c-1.35-0.56-2.8-0.84-4.34-0.84
		h-0.49c-0.93,0-1.89,0.11-2.87,0.32c-0.98,0.21-1.94,0.56-2.87,1.05c-0.93,0.49-1.81,1.15-2.62,1.99
		c-0.82,0.84-1.51,1.89-2.07,3.15c-0.19,0.33-0.28,0.75-0.28,1.26c0,0.75,0.28,1.34,0.84,1.79c0.56,0.44,1.17,0.67,1.82,0.67
		c0.47,0,0.91-0.1,1.33-0.32c0.42-0.21,0.77-0.57,1.05-1.08c0.65-1.17,1.4-2.04,2.24-2.63c0.84-0.58,1.98-0.87,3.43-0.87h0.49
		c1.54,0,2.87,0.42,3.99,1.26c1.12,0.84,1.68,2.31,1.68,4.41c0,0.19-0.01,0.4-0.03,0.63c-0.02,0.23-0.08,0.42-0.17,0.56
		c-0.28,0.37-0.92,0.67-1.93,0.88c-1,0.21-2.16,0.43-3.47,0.67c-1.31,0.23-2.68,0.54-4.13,0.91c-1.45,0.37-2.78,0.92-3.99,1.64
		c-1.21,0.72-2.22,1.68-3.01,2.87c-0.79,1.19-1.19,2.69-1.19,4.51v0.84c0,1.63,0.33,3.08,0.98,4.34c0.65,1.26,1.51,2.31,2.55,3.15
		c1.05,0.84,2.25,1.47,3.6,1.89c1.35,0.42,2.73,0.63,4.13,0.63h0.63c2.94,0,5.46-0.91,7.56-2.73c0.47,0.65,1.07,1.21,1.82,1.68
		c0.75,0.47,1.73,0.79,2.94,0.98c0.05,0.05,0.21,0.07,0.49,0.07c0.84,0,1.48-0.27,1.92-0.8c0.44-0.54,0.67-1.15,0.67-1.85
		C920.79,317.84,920.62,317.32,920.27,316.83L920.27,316.83z M911.41,309.79c0,1.68-0.59,3.09-1.78,4.23
		c-1.19,1.14-2.6,1.71-4.23,1.71h-0.63c-1.77,0-3.21-0.44-4.3-1.33c-1.1-0.89-1.65-2.08-1.65-3.57v-0.56c0-1.21,0.41-2.15,1.22-2.8
		c0.82-0.65,1.85-1.17,3.11-1.54c1.26-0.37,2.62-0.66,4.09-0.87s2.86-0.48,4.16-0.8V309.79L911.41,309.79z M948.73,289.98
		c-0.84-1.21-1.93-2.09-3.26-2.62c-1.33-0.54-2.67-0.8-4.03-0.8c-0.93,0-1.7,0.07-2.31,0.21c-0.61,0.14-1.12,0.3-1.54,0.49
		c-0.51,0.19-0.91,0.42-1.19,0.7c-0.23-0.51-0.56-0.88-0.98-1.08c-0.42-0.21-0.86-0.32-1.33-0.32c-0.65,0-1.27,0.23-1.86,0.7
		c-0.58,0.47-0.88,1.12-0.88,1.96v29.12c0,0.93,0.28,1.62,0.84,2.06c0.56,0.44,1.17,0.66,1.82,0.66c0.65,0,1.26-0.22,1.82-0.66
		c0.56-0.44,0.84-1.13,0.84-2.06v-21.77c0-0.56,0.05-1.12,0.14-1.68c0.09-0.56,0.3-1.06,0.63-1.51c0.33-0.44,0.79-0.8,1.4-1.08
		c0.61-0.28,1.45-0.42,2.52-0.42c0.89,0,1.57,0.17,2.06,0.52c0.49,0.35,0.88,0.66,1.15,0.94c0.65,0.65,1.38,0.98,2.17,0.98
		c0.7,0,1.31-0.23,1.82-0.7c0.51-0.47,0.77-1.07,0.77-1.82C949.36,291.24,949.15,290.64,948.73,289.98L948.73,289.98L948.73,289.98z
		 M983.38,297.82c0-1.54-0.29-3-0.88-4.38c-0.58-1.38-1.39-2.58-2.41-3.61c-1.03-1.03-2.23-1.83-3.61-2.41
		c-1.38-0.58-2.86-0.88-4.44-0.88h-0.49c-1.21,0-2.38,0.2-3.5,0.6c-1.12,0.4-1.98,0.97-2.59,1.71v-14.28c0-0.89-0.28-1.55-0.84-2
		c-0.56-0.44-1.17-0.66-1.82-0.66c-0.65,0-1.26,0.22-1.82,0.66c-0.56,0.44-0.84,1.11-0.84,2v44.03c0,0.84,0.28,1.46,0.84,1.85
		c0.56,0.4,1.17,0.59,1.82,0.59c0.61,0,1.17-0.17,1.68-0.5c0.51-0.33,0.82-0.85,0.91-1.56c0.51,0.52,1.27,0.99,2.28,1.42
		c1,0.43,2.25,0.64,3.74,0.64h0.63c1.54,0,3-0.29,4.38-0.88c1.38-0.58,2.58-1.38,3.6-2.38c1.03-1,1.84-2.18,2.45-3.54
		c0.61-1.35,0.91-2.82,0.91-4.41V297.82L983.38,297.82z M978.06,309.81c0,1.63-0.58,3.02-1.75,4.19c-1.17,1.16-2.59,1.74-4.27,1.74
		h-0.63c-1.59,0-2.97-0.49-4.17-1.47c-1.19-0.98-1.78-2.33-1.78-4.05v-12.98c0-1.63,0.59-2.93,1.78-3.91
		c1.19-0.98,2.58-1.47,4.17-1.47h0.63c1.68,0,3.1,0.58,4.27,1.75c1.17,1.16,1.75,2.56,1.75,4.19V309.81L978.06,309.81z
		 M1018.11,297.89c0-1.63-0.29-3.14-0.88-4.51c-0.58-1.38-1.39-2.58-2.41-3.61c-1.03-1.03-2.23-1.82-3.61-2.38
		c-1.38-0.56-2.83-0.84-4.37-0.84h-0.7c-1.54,0-3,0.29-4.37,0.88c-1.38,0.58-2.58,1.39-3.61,2.41c-1.03,1.03-1.83,2.23-2.41,3.61
		c-0.58,1.38-0.88,2.83-0.88,4.38v12.04c0,1.59,0.29,3.06,0.88,4.41c0.58,1.35,1.39,2.53,2.41,3.54c1.03,1,2.23,1.8,3.61,2.38
		c1.38,0.58,2.83,0.88,4.37,0.88h0.7c2.38,0,4.47-0.61,6.26-1.84c1.8-1.23,3.11-2.83,3.95-4.81c0.19-0.33,0.28-0.72,0.28-1.19
		c0-0.79-0.28-1.45-0.84-1.96c-0.56-0.51-1.19-0.77-1.89-0.77c-0.47,0-0.91,0.13-1.33,0.38c-0.42,0.26-0.75,0.69-0.98,1.3
		c-0.47,0.98-1.15,1.82-2.06,2.52c-0.91,0.7-2.04,1.05-3.4,1.05h-0.7c-1.63,0-3.03-0.58-4.2-1.74c-1.17-1.16-1.75-2.55-1.75-4.17
		v-3.54h15.26c0.75,0,1.38-0.27,1.89-0.8c0.51-0.54,0.77-1.16,0.77-1.86V297.89L1018.11,297.89z M1012.79,301.39h-12.6v-3.53
		c0-1.69,0.6-3.11,1.79-4.27s2.6-1.73,4.23-1.73h0.7c1.54,0,2.9,0.58,4.09,1.73s1.79,2.6,1.79,4.34V301.39L1012.79,301.39z
		 M1035.34,274.58c0-0.89-0.28-1.55-0.84-2c-0.56-0.44-1.17-0.66-1.82-0.66c-0.65,0-1.26,0.22-1.82,0.66
		c-0.56,0.44-0.84,1.11-0.84,2v1.54c0,0.89,0.28,1.55,0.84,2c0.56,0.44,1.17,0.66,1.82,0.66c0.65,0,1.26-0.22,1.82-0.66
		c0.56-0.44,0.84-1.11,0.84-2V274.58L1035.34,274.58z M1035.34,289.21c0-0.89-0.28-1.55-0.84-1.99c-0.56-0.44-1.17-0.67-1.82-0.67
		c-0.65,0-1.26,0.22-1.82,0.67c-0.56,0.44-0.84,1.11-0.84,1.99v29.26c0,0.89,0.28,1.54,0.84,1.96s1.17,0.63,1.82,0.63
		c0.65,0,1.26-0.21,1.82-0.63c0.56-0.42,0.84-1.07,0.84-1.96V289.21L1035.34,289.21z M1063.03,316.67c-0.4-0.52-1.02-0.83-1.85-0.92
		c-1.07-0.09-2.02-0.48-2.83-1.15c-0.82-0.67-1.23-1.62-1.23-2.83v-19.68h3.78c0.89,0,1.55-0.28,1.99-0.84
		c0.44-0.56,0.67-1.17,0.67-1.82c0-0.65-0.22-1.26-0.67-1.82c-0.44-0.56-1.11-0.84-1.99-0.84h-3.78v-12.18c0-0.89-0.28-1.55-0.84-2
		c-0.56-0.44-1.17-0.66-1.82-0.66c-0.65,0-1.26,0.22-1.82,0.66c-0.56,0.44-0.84,1.11-0.84,2v12.18h-2.45
		c-0.89,0-1.55,0.28-1.99,0.84c-0.44,0.56-0.67,1.17-0.67,1.82c0,0.65,0.22,1.26,0.67,1.82c0.44,0.56,1.11,0.84,1.99,0.84h2.45
		v19.81c0,1.26,0.23,2.45,0.7,3.57c0.47,1.12,1.12,2.1,1.96,2.94c0.84,0.84,1.82,1.49,2.94,1.96c1.12,0.47,2.31,0.7,3.57,0.7
		c0.93,0,1.61-0.27,2.03-0.82c0.42-0.54,0.63-1.15,0.63-1.81C1063.62,317.78,1063.42,317.19,1063.03,316.67L1063.03,316.67z
		 M1102.54,320.05c-1.12-1.8-2.11-3.84-2.97-6.12c-0.86-2.29-1.55-4.78-2.06-7.49c-0.51-2.71-0.77-5.55-0.77-8.54
		c0-2.89,0.26-5.68,0.77-8.37c0.51-2.68,1.19-5.17,2.03-7.45c0.84-2.29,1.81-4.34,2.91-6.16c1.1-1.82,2.23-3.31,3.39-4.48
		c0.51-0.51,0.77-1.07,0.77-1.68c0-0.65-0.28-1.26-0.84-1.82c-0.65-0.51-1.26-0.77-1.82-0.77c-0.65,0-1.26,0.28-1.82,0.84
		c-1.45,1.49-2.81,3.3-4.1,5.42c-1.28,2.12-2.39,4.47-3.32,7.04c-0.93,2.57-1.68,5.32-2.24,8.26c-0.56,2.94-0.84,6-0.84,9.17
		c0,3.22,0.28,6.34,0.84,9.35c0.56,3.01,1.32,5.81,2.27,8.4c0.96,2.59,2.09,4.93,3.4,7.04c1.31,2.1,2.71,3.87,4.2,5.32
		c0.56,0.56,1.14,0.84,1.75,0.84c0.7,0,1.33-0.28,1.89-0.84c0.61-0.47,0.91-1.05,0.91-1.75c0-0.61-0.28-1.19-0.84-1.75
		C1104.83,323.33,1103.66,321.84,1102.54,320.05L1102.54,320.05z M1142.38,296.98c0-0.7-0.27-1.32-0.8-1.86
		c-0.54-0.54-1.16-0.81-1.86-0.81h-10.01c-0.89,0-1.55,0.28-2,0.84c-0.44,0.56-0.67,1.17-0.67,1.82c0,0.65,0.22,1.26,0.67,1.82
		c0.44,0.56,1.11,0.84,2,0.84h7.35v8.15c0,1.12-0.21,2.15-0.63,3.1c-0.42,0.95-0.99,1.79-1.72,2.51c-0.72,0.72-1.56,1.29-2.52,1.71
		c-0.96,0.42-1.99,0.63-3.11,0.63h-0.7c-1.12,0-2.16-0.21-3.11-0.63c-0.96-0.42-1.8-0.99-2.52-1.71c-0.72-0.72-1.29-1.56-1.71-2.52
		c-0.42-0.95-0.63-1.99-0.63-3.11v-22.64c0-1.07,0.21-2.08,0.63-3.04c0.42-0.95,0.99-1.79,1.71-2.52c0.72-0.72,1.56-1.29,2.52-1.71
		c0.96-0.42,1.99-0.63,3.11-0.63h0.7c2.29,0,4.1,0.65,5.42,1.96c1.33,1.31,2.18,2.94,2.56,4.9c0.14,0.79,0.47,1.37,0.98,1.71
		c0.51,0.35,1.07,0.53,1.68,0.53c0.65,0,1.26-0.22,1.82-0.67c0.56-0.44,0.84-1.09,0.84-1.92v-0.42c-0.23-1.63-0.73-3.15-1.51-4.55
		c-0.77-1.4-1.75-2.6-2.94-3.6c-1.19-1-2.54-1.8-4.06-2.38c-1.52-0.58-3.11-0.87-4.79-0.87h-0.7c-1.82,0-3.55,0.35-5.18,1.05
		c-1.63,0.7-3.05,1.65-4.24,2.83c-1.19,1.19-2.14,2.59-2.84,4.2c-0.7,1.61-1.05,3.35-1.05,5.22v22.61c0,1.87,0.35,3.61,1.05,5.22
		c0.7,1.61,1.65,3.01,2.84,4.2c1.19,1.19,2.6,2.12,4.24,2.8c1.63,0.68,3.36,1.01,5.18,1.01h0.7c1.82,0,3.55-0.34,5.18-1.01
		c1.63-0.68,3.05-1.61,4.23-2.8c1.19-1.19,2.14-2.59,2.84-4.2c0.7-1.61,1.05-3.35,1.05-5.22V296.98L1142.38,296.98z M1161.76,274.58
		c0-0.89-0.28-1.55-0.84-2c-0.56-0.44-1.17-0.66-1.82-0.66c-0.65,0-1.26,0.22-1.82,0.66c-0.56,0.44-0.84,1.11-0.84,2v43.89
		c0,0.89,0.28,1.54,0.84,1.96c0.56,0.42,1.17,0.63,1.82,0.63c0.65,0,1.26-0.21,1.82-0.63c0.56-0.42,0.84-1.07,0.84-1.96V274.58
		L1161.76,274.58z M1200.65,316.23c-0.44-0.56-1.11-0.84-1.99-0.84h-17.64l19.88-38.15c0.33-0.61,0.49-1.21,0.49-1.82
		c0-0.84-0.3-1.56-0.91-2.17c-0.61-0.61-1.38-0.91-2.31-0.91h-20.02c-0.93,0-1.61,0.28-2.03,0.84c-0.42,0.56-0.63,1.17-0.63,1.82
		c0,0.65,0.21,1.26,0.63,1.82c0.42,0.56,1.1,0.84,2.03,0.84h16.59l-19.81,38.01c-0.28,0.51-0.42,1.07-0.42,1.68
		c0,0.89,0.27,1.67,0.8,2.34c0.54,0.68,1.3,1.02,2.28,1.02h21.07c0.89,0,1.55-0.28,1.99-0.84c0.44-0.56,0.67-1.17,0.67-1.82
		C1201.31,317.4,1201.09,316.79,1200.65,316.23L1200.65,316.23z M1224.75,288.76c-0.54-2.96-1.27-5.74-2.2-8.33
		c-0.93-2.59-2.04-4.95-3.32-7.07c-1.28-2.12-2.67-3.91-4.17-5.36c-0.56-0.56-1.17-0.84-1.82-0.84c-0.56,0-1.17,0.26-1.82,0.77
		c-0.56,0.56-0.84,1.17-0.84,1.82c0,0.61,0.26,1.17,0.77,1.68c1.21,1.17,2.37,2.66,3.47,4.48c1.1,1.82,2.06,3.87,2.9,6.16
		c0.84,2.29,1.51,4.77,1.99,7.45c0.49,2.68,0.73,5.47,0.73,8.37c0,2.99-0.26,5.83-0.77,8.54c-0.51,2.71-1.2,5.2-2.06,7.49
		c-0.86,2.29-1.85,4.33-2.97,6.12c-1.12,1.8-2.29,3.28-3.5,4.44c-0.51,0.51-0.77,1.07-0.77,1.68c0,0.65,0.28,1.26,0.84,1.82
		c0.61,0.56,1.24,0.84,1.89,0.84c0.61,0,1.19-0.28,1.75-0.84c1.49-1.45,2.89-3.22,4.2-5.32c1.31-2.1,2.44-4.45,3.4-7.04
		c0.96-2.59,1.71-5.39,2.27-8.4s0.84-6.12,0.84-9.35C1225.56,294.77,1225.29,291.72,1224.75,288.76L1224.75,288.76z M1280.16,296.98
		c0-0.7-0.27-1.32-0.8-1.86c-0.54-0.54-1.16-0.81-1.85-0.81h-10.01c-0.89,0-1.55,0.28-1.99,0.84c-0.44,0.56-0.67,1.17-0.67,1.82
		c0,0.65,0.22,1.26,0.67,1.82c0.44,0.56,1.11,0.84,1.99,0.84h7.35v8.15c0,1.12-0.21,2.15-0.63,3.1c-0.42,0.95-0.99,1.79-1.71,2.51
		c-0.72,0.72-1.56,1.29-2.52,1.71c-0.96,0.42-1.99,0.63-3.11,0.63h-0.7c-1.12,0-2.16-0.21-3.11-0.63c-0.96-0.42-1.8-0.99-2.52-1.71
		c-0.72-0.72-1.29-1.56-1.71-2.52c-0.42-0.95-0.63-1.99-0.63-3.11v-22.64c0-1.07,0.21-2.08,0.63-3.04c0.42-0.95,0.99-1.79,1.71-2.52
		c0.72-0.72,1.56-1.29,2.52-1.71c0.96-0.42,1.99-0.63,3.11-0.63h0.7c2.29,0,4.1,0.65,5.42,1.96c1.33,1.31,2.18,2.94,2.56,4.9
		c0.14,0.79,0.47,1.37,0.98,1.71c0.51,0.35,1.07,0.53,1.68,0.53c0.65,0,1.26-0.22,1.82-0.67c0.56-0.44,0.84-1.09,0.84-1.92v-0.42
		c-0.23-1.63-0.73-3.15-1.5-4.55c-0.77-1.4-1.75-2.6-2.94-3.6c-1.19-1-2.54-1.8-4.06-2.38c-1.52-0.58-3.11-0.87-4.8-0.87h-0.7
		c-1.82,0-3.55,0.35-5.18,1.05c-1.63,0.7-3.04,1.65-4.23,2.83c-1.19,1.19-2.14,2.59-2.84,4.2c-0.7,1.61-1.05,3.35-1.05,5.22v22.61
		c0,1.87,0.35,3.61,1.05,5.22c0.7,1.61,1.65,3.01,2.84,4.2c1.19,1.19,2.6,2.12,4.23,2.8c1.63,0.68,3.36,1.01,5.18,1.01h0.7
		c1.82,0,3.55-0.34,5.18-1.01c1.63-0.68,3.05-1.61,4.24-2.8c1.19-1.19,2.14-2.59,2.83-4.2c0.7-1.61,1.05-3.35,1.05-5.22V296.98
		L1280.16,296.98z M1334.2,297.75c0-1.91-0.3-3.58-0.91-5c-0.61-1.42-1.44-2.59-2.48-3.5c-1.05-0.91-2.25-1.59-3.61-2.03
		c-1.35-0.44-2.78-0.67-4.27-0.67h-0.63c-1.77,0-3.4,0.36-4.87,1.08c-1.47,0.72-2.74,1.69-3.81,2.9c-1.07-1.21-2.34-2.18-3.81-2.9
		c-1.47-0.72-3.09-1.08-4.86-1.08h-0.63c-1.21,0-2.36,0.19-3.43,0.56c-1.07,0.37-1.94,0.89-2.59,1.54c-0.14-0.7-0.47-1.22-0.98-1.58
		c-0.51-0.35-1.05-0.52-1.61-0.52c-0.7,0-1.33,0.23-1.89,0.7c-0.56,0.47-0.84,1.12-0.84,1.96v29.26c0,0.89,0.28,1.54,0.84,1.96
		c0.56,0.42,1.17,0.63,1.82,0.63c0.65,0,1.26-0.21,1.82-0.63s0.84-1.07,0.84-1.96v-21.21c0-1.63,0.61-2.94,1.82-3.92
		c1.21-0.98,2.61-1.47,4.2-1.47h0.63c1.68,0,3.1,0.56,4.27,1.68c1.17,1.12,1.75,2.57,1.75,4.34v20.44c0,0.93,0.28,1.62,0.84,2.06
		c0.56,0.44,1.17,0.66,1.82,0.66c0.65,0,1.26-0.22,1.82-0.66c0.56-0.44,0.84-1.13,0.84-2.06v-20.44c0-1.73,0.58-3.16,1.75-4.3
		c1.17-1.14,2.59-1.71,4.27-1.71h0.63c1.77,0,3.21,0.49,4.3,1.47c1.1,0.98,1.65,2.45,1.65,4.41v20.72c0,0.89,0.28,1.54,0.84,1.96
		s1.17,0.63,1.82,0.63c0.65,0,1.26-0.21,1.82-0.63c0.56-0.42,0.84-1.07,0.84-1.96V297.75L1334.2,297.75z M1370.39,297.82
		c0-1.54-0.29-3-0.88-4.38c-0.58-1.38-1.39-2.58-2.41-3.61c-1.03-1.03-2.23-1.83-3.61-2.41c-1.38-0.58-2.86-0.88-4.45-0.88h-0.49
		c-1.21,0-2.38,0.2-3.5,0.6c-1.12,0.4-1.98,0.97-2.59,1.71v-14.28c0-0.89-0.28-1.55-0.84-2c-0.56-0.44-1.17-0.66-1.82-0.66
		c-0.65,0-1.26,0.22-1.82,0.66c-0.56,0.44-0.84,1.11-0.84,2v44.03c0,0.84,0.28,1.46,0.84,1.85c0.56,0.4,1.17,0.59,1.82,0.59
		c0.61,0,1.17-0.17,1.68-0.5c0.51-0.33,0.82-0.85,0.91-1.56c0.51,0.52,1.27,0.99,2.28,1.42c1,0.43,2.25,0.64,3.74,0.64h0.63
		c1.54,0,3-0.29,4.38-0.88c1.38-0.58,2.58-1.38,3.61-2.38c1.03-1,1.84-2.18,2.45-3.54c0.61-1.35,0.91-2.82,0.91-4.41V297.82
		L1370.39,297.82z M1365.07,309.81c0,1.63-0.58,3.02-1.75,4.19c-1.17,1.16-2.59,1.74-4.27,1.74h-0.63c-1.59,0-2.97-0.49-4.17-1.47
		c-1.19-0.98-1.79-2.33-1.79-4.05v-12.98c0-1.63,0.59-2.93,1.79-3.91c1.19-0.98,2.58-1.47,4.17-1.47h0.63c1.68,0,3.1,0.58,4.27,1.75
		c1.17,1.16,1.75,2.56,1.75,4.19V309.81L1365.07,309.81z M1410.75,274.58c0-0.89-0.28-1.55-0.84-2c-0.56-0.44-1.17-0.66-1.82-0.66
		c-0.65,0-1.26,0.22-1.82,0.66c-0.56,0.44-0.84,1.11-0.84,2v18.48h-16.59v-18.48c0-0.89-0.28-1.55-0.84-2
		c-0.56-0.44-1.17-0.66-1.82-0.66c-0.65,0-1.26,0.22-1.82,0.66c-0.56,0.44-0.84,1.11-0.84,2v43.89c0,0.89,0.28,1.54,0.84,1.96
		c0.56,0.42,1.17,0.63,1.82,0.63c0.65,0,1.26-0.21,1.82-0.63s0.84-1.07,0.84-1.96v-20.09h16.59v20.09c0,0.93,0.28,1.6,0.84,1.99
		s1.17,0.59,1.82,0.59c0.65,0,1.26-0.2,1.82-0.59c0.56-0.4,0.84-1.06,0.84-1.99V274.58L1410.75,274.58z"/>
	<path class="st0" d="M589.03,196.26c-0.44-0.56-1.11-0.84-2-0.84c-1.31,0-2.51,0.23-3.6,0.7c-1.1,0.47-2.05,1.11-2.87,1.93
		c-0.82,0.82-1.45,1.8-1.89,2.94c-0.44,1.14-0.66,2.37-0.66,3.67v5.6h-1.54c-0.89,0-1.55,0.28-2,0.84
		c-0.44,0.56-0.66,1.17-0.66,1.82c0,0.65,0.22,1.26,0.66,1.82c0.44,0.56,1.11,0.84,2,0.84h1.54v26.39c0,0.89,0.28,1.54,0.84,1.96
		c0.56,0.42,1.17,0.63,1.82,0.63c0.65,0,1.26-0.21,1.82-0.63c0.56-0.42,0.84-1.07,0.84-1.96v-26.39h3.29c0.89,0,1.55-0.28,1.99-0.84
		c0.44-0.56,0.67-1.17,0.67-1.82c0-0.65-0.21-1.26-0.63-1.82c-0.42-0.56-1.1-0.84-2.03-0.84h-3.29v-5.6c0-1.07,0.34-1.99,1.02-2.77
		c0.68-0.77,1.57-1.16,2.69-1.16c0.89,0,1.55-0.28,2-0.84c0.44-0.56,0.66-1.17,0.66-1.82C589.7,197.43,589.47,196.82,589.03,196.26
		L589.03,196.26z M620.18,198.08c0-0.89-0.29-1.55-0.88-2c-0.58-0.44-1.2-0.66-1.86-0.66c-0.65,0-1.25,0.22-1.78,0.66
		c-0.54,0.44-0.81,1.11-0.81,2v1.54c0,0.89,0.28,1.55,0.84,2c0.56,0.44,1.17,0.66,1.82,0.66c0.65,0,1.26-0.22,1.82-0.66
		c0.56-0.44,0.84-1.11,0.84-2V198.08L620.18,198.08z M607.3,198.08c0-0.89-0.28-1.55-0.84-2c-0.56-0.44-1.17-0.66-1.82-0.66
		c-0.65,0-1.26,0.22-1.82,0.66c-0.56,0.44-0.84,1.11-0.84,2v1.54c0,0.89,0.28,1.55,0.84,2c0.56,0.44,1.17,0.66,1.82,0.66
		c0.65,0,1.26-0.22,1.82-0.66c0.56-0.44,0.84-1.11,0.84-2V198.08L607.3,198.08z M622.77,212.71c0-0.89-0.28-1.55-0.84-1.99
		c-0.56-0.44-1.17-0.66-1.82-0.66c-0.65,0-1.26,0.22-1.82,0.66c-0.56,0.44-0.84,1.11-0.84,1.99v20.6c0,1.63-0.58,3.03-1.75,4.19
		c-1.17,1.16-2.59,1.75-4.27,1.75h-0.63c-1.63,0-3.03-0.58-4.2-1.75c-1.17-1.16-1.75-2.56-1.75-4.19v-20.6
		c0-0.88-0.28-1.55-0.84-1.99s-1.17-0.66-1.82-0.66c-0.65,0-1.26,0.22-1.82,0.66c-0.56,0.44-0.84,1.11-0.84,1.99v20.65
		c0,1.96,0.3,3.64,0.91,5.04c0.61,1.4,1.42,2.55,2.45,3.46c1.03,0.91,2.23,1.59,3.61,2.03c1.38,0.44,2.81,0.66,4.3,0.66h0.63
		c1.21,0,2.36-0.18,3.43-0.53c1.07-0.35,1.94-0.86,2.59-1.53c0.14,0.71,0.47,1.23,0.98,1.56c0.51,0.33,1.07,0.5,1.68,0.5
		c0.65,0,1.26-0.22,1.82-0.66c0.56-0.44,0.84-1.08,0.84-1.92V212.71L622.77,212.71z M652.62,213.48c-0.84-1.21-1.92-2.09-3.26-2.62
		c-1.33-0.54-2.67-0.8-4.02-0.8c-0.93,0-1.7,0.07-2.31,0.21c-0.61,0.14-1.12,0.3-1.54,0.49c-0.51,0.19-0.91,0.42-1.19,0.7
		c-0.23-0.51-0.56-0.88-0.98-1.08c-0.42-0.21-0.86-0.32-1.33-0.32c-0.65,0-1.27,0.23-1.85,0.7c-0.58,0.47-0.87,1.12-0.87,1.96v29.12
		c0,0.93,0.28,1.62,0.84,2.06c0.56,0.44,1.17,0.66,1.82,0.66c0.65,0,1.26-0.22,1.82-0.66c0.56-0.44,0.84-1.13,0.84-2.06v-21.77
		c0-0.56,0.05-1.12,0.14-1.68c0.09-0.56,0.3-1.06,0.63-1.51c0.33-0.44,0.79-0.8,1.4-1.08c0.61-0.28,1.45-0.42,2.52-0.42
		c0.89,0,1.58,0.18,2.07,0.53c0.49,0.35,0.87,0.67,1.15,0.94c0.65,0.65,1.38,0.98,2.17,0.98c0.7,0,1.31-0.23,1.82-0.7
		c0.51-0.47,0.77-1.07,0.77-1.82C653.25,214.74,653.04,214.14,652.62,213.48L652.62,213.48L652.62,213.48z M692.52,198.08
		c0-0.89-0.28-1.55-0.84-2c-0.56-0.44-1.17-0.66-1.82-0.66c-0.65,0-1.26,0.22-1.82,0.66c-0.56,0.44-0.84,1.11-0.84,2v43.89
		c0,0.89,0.28,1.54,0.84,1.96c0.56,0.42,1.17,0.63,1.82,0.63c0.65,0,1.26-0.21,1.82-0.63c0.56-0.42,0.84-1.07,0.84-1.96V198.08
		L692.52,198.08z M729.9,221.32c0-1.91-0.3-3.58-0.91-5.01c-0.61-1.42-1.42-2.6-2.45-3.53c-1.03-0.93-2.22-1.62-3.57-2.07
		c-1.35-0.44-2.78-0.66-4.27-0.66h-0.63c-1.21,0-2.36,0.19-3.43,0.56c-1.07,0.37-1.94,0.89-2.59,1.54c-0.14-0.7-0.47-1.23-0.98-1.58
		c-0.51-0.35-1.07-0.52-1.68-0.52c-0.7,0-1.33,0.23-1.89,0.7c-0.56,0.47-0.84,1.12-0.84,1.96v29.26c0,0.89,0.28,1.54,0.84,1.96
		c0.56,0.42,1.17,0.63,1.82,0.63c0.65,0,1.26-0.21,1.82-0.63c0.56-0.42,0.84-1.07,0.84-1.96v-20.65c0-1.68,0.59-3.09,1.78-4.23
		c1.18-1.14,2.59-1.72,4.21-1.72h0.63c1.67,0,3.09,0.58,4.25,1.75c1.16,1.17,1.74,2.57,1.74,4.2v20.65c0,0.89,0.28,1.54,0.85,1.96
		c0.57,0.42,1.18,0.63,1.84,0.63c0.66,0,1.26-0.21,1.81-0.63c0.54-0.42,0.82-1.07,0.82-1.96V221.32L729.9,221.32z M756.12,240.17
		c-0.4-0.52-1.01-0.83-1.85-0.92c-1.07-0.09-2.02-0.48-2.84-1.15c-0.82-0.67-1.23-1.62-1.23-2.83v-19.68h3.78
		c0.89,0,1.55-0.28,1.99-0.84c0.44-0.56,0.66-1.17,0.66-1.82c0-0.65-0.22-1.26-0.66-1.82c-0.44-0.56-1.11-0.84-1.99-0.84h-3.78
		v-12.18c0-0.89-0.28-1.55-0.84-2c-0.56-0.44-1.17-0.66-1.82-0.66c-0.65,0-1.26,0.22-1.82,0.66c-0.56,0.44-0.84,1.11-0.84,2v12.18
		h-2.45c-0.89,0-1.55,0.28-1.99,0.84c-0.44,0.56-0.67,1.17-0.67,1.82c0,0.65,0.22,1.26,0.67,1.82c0.44,0.56,1.11,0.84,1.99,0.84
		h2.45v19.81c0,1.26,0.23,2.45,0.7,3.57c0.47,1.12,1.12,2.1,1.96,2.94c0.84,0.84,1.82,1.49,2.94,1.96c1.12,0.47,2.31,0.7,3.57,0.7
		c0.93,0,1.61-0.27,2.03-0.82c0.42-0.54,0.63-1.15,0.63-1.81C756.72,241.28,756.52,240.69,756.12,240.17L756.12,240.17z
		 M789.64,221.39c0-1.63-0.29-3.14-0.88-4.52c-0.58-1.38-1.39-2.58-2.41-3.6c-1.03-1.03-2.23-1.82-3.6-2.38
		c-1.38-0.56-2.84-0.84-4.38-0.84h-0.7c-1.54,0-3,0.29-4.37,0.87c-1.38,0.58-2.58,1.39-3.61,2.42c-1.03,1.03-1.83,2.23-2.42,3.61
		c-0.58,1.38-0.87,2.83-0.87,4.38v12.04c0,1.59,0.29,3.06,0.87,4.41c0.58,1.35,1.39,2.53,2.42,3.54c1.03,1,2.23,1.8,3.61,2.38
		c1.38,0.58,2.83,0.87,4.37,0.87h0.7c2.38,0,4.47-0.61,6.26-1.84c1.8-1.23,3.12-2.83,3.96-4.81c0.19-0.33,0.28-0.72,0.28-1.19
		c0-0.79-0.28-1.45-0.84-1.96c-0.56-0.51-1.19-0.77-1.89-0.77c-0.47,0-0.91,0.13-1.33,0.38c-0.42,0.26-0.75,0.69-0.98,1.3
		c-0.47,0.98-1.16,1.82-2.07,2.52c-0.91,0.7-2.04,1.05-3.4,1.05h-0.7c-1.63,0-3.03-0.58-4.2-1.74c-1.17-1.16-1.75-2.55-1.75-4.17
		v-3.54h15.26c0.75,0,1.38-0.27,1.89-0.8c0.51-0.54,0.77-1.15,0.77-1.85V221.39L789.64,221.39z M784.32,224.89h-12.6v-3.53
		c0-1.69,0.59-3.11,1.78-4.27c1.19-1.15,2.6-1.73,4.24-1.73h0.7c1.54,0,2.91,0.58,4.1,1.73c1.19,1.15,1.78,2.6,1.78,4.34V224.89
		L784.32,224.89z M818.34,213.48c-0.84-1.21-1.92-2.09-3.26-2.62c-1.33-0.54-2.67-0.8-4.03-0.8c-0.93,0-1.7,0.07-2.31,0.21
		c-0.61,0.14-1.12,0.3-1.54,0.49c-0.51,0.19-0.91,0.42-1.19,0.7c-0.23-0.51-0.56-0.88-0.98-1.08c-0.42-0.21-0.86-0.32-1.33-0.32
		c-0.65,0-1.27,0.23-1.86,0.7c-0.58,0.47-0.87,1.12-0.87,1.96v29.12c0,0.93,0.28,1.62,0.84,2.06c0.56,0.44,1.17,0.66,1.82,0.66
		c0.65,0,1.26-0.22,1.82-0.66c0.56-0.44,0.84-1.13,0.84-2.06v-21.77c0-0.56,0.05-1.12,0.14-1.68c0.09-0.56,0.3-1.06,0.63-1.51
		c0.33-0.44,0.79-0.8,1.4-1.08c0.61-0.28,1.45-0.42,2.52-0.42c0.89,0,1.58,0.18,2.07,0.53c0.49,0.35,0.87,0.67,1.16,0.94
		c0.65,0.65,1.38,0.98,2.17,0.98c0.7,0,1.31-0.23,1.82-0.7c0.51-0.47,0.77-1.07,0.77-1.82
		C818.97,214.74,818.76,214.14,818.34,213.48L818.34,213.48L818.34,213.48z M851.31,221.32c0-1.91-0.3-3.58-0.91-5.01
		c-0.61-1.42-1.42-2.6-2.45-3.53c-1.03-0.93-2.22-1.62-3.57-2.07c-1.35-0.44-2.78-0.66-4.27-0.66h-0.63c-1.21,0-2.36,0.19-3.43,0.56
		c-1.07,0.37-1.94,0.89-2.59,1.54c-0.14-0.7-0.47-1.23-0.98-1.58c-0.51-0.35-1.07-0.52-1.68-0.52c-0.7,0-1.33,0.23-1.89,0.7
		c-0.56,0.47-0.84,1.12-0.84,1.96v29.26c0,0.89,0.28,1.54,0.84,1.96c0.56,0.42,1.17,0.63,1.82,0.63c0.65,0,1.26-0.21,1.82-0.63
		c0.56-0.42,0.84-1.07,0.84-1.96v-20.65c0-1.68,0.59-3.09,1.78-4.23c1.18-1.14,2.59-1.72,4.21-1.72H840c1.67,0,3.09,0.58,4.25,1.75
		c1.16,1.17,1.74,2.57,1.74,4.2v20.65c0,0.89,0.28,1.54,0.85,1.96c0.57,0.42,1.18,0.63,1.84,0.63c0.66,0,1.26-0.21,1.81-0.63
		c0.54-0.42,0.82-1.07,0.82-1.96V221.32L851.31,221.32z M889.02,240.33c-0.35-0.49-0.92-0.8-1.72-0.95c-1.21-0.23-1.82-1-1.82-2.31
		v-16.24c0-1.49-0.28-2.89-0.84-4.2c-0.56-1.31-1.33-2.45-2.31-3.43c-0.98-0.98-2.15-1.75-3.5-2.31c-1.35-0.56-2.8-0.84-4.34-0.84
		H874c-0.93,0-1.89,0.1-2.87,0.32c-0.98,0.21-1.94,0.56-2.87,1.05c-0.93,0.49-1.81,1.15-2.62,1.99c-0.82,0.84-1.51,1.89-2.07,3.15
		c-0.19,0.33-0.28,0.75-0.28,1.26c0,0.75,0.28,1.34,0.84,1.79c0.56,0.44,1.17,0.66,1.82,0.66c0.47,0,0.91-0.1,1.33-0.31
		c0.42-0.21,0.77-0.57,1.05-1.08c0.65-1.17,1.4-2.04,2.24-2.62c0.84-0.58,1.98-0.88,3.43-0.88h0.49c1.54,0,2.87,0.42,3.99,1.26
		c1.12,0.84,1.68,2.31,1.68,4.41c0,0.19-0.01,0.4-0.04,0.63c-0.02,0.23-0.08,0.42-0.18,0.56c-0.28,0.37-0.92,0.67-1.92,0.88
		c-1,0.21-2.16,0.43-3.46,0.67c-1.31,0.23-2.68,0.54-4.13,0.91c-1.45,0.37-2.78,0.92-3.99,1.65c-1.21,0.72-2.22,1.68-3.01,2.87
		c-0.79,1.19-1.19,2.7-1.19,4.51v0.84c0,1.63,0.33,3.08,0.98,4.34c0.65,1.26,1.51,2.31,2.55,3.15s2.25,1.47,3.6,1.89
		c1.35,0.42,2.73,0.63,4.13,0.63h0.63c2.94,0,5.46-0.91,7.56-2.73c0.47,0.65,1.07,1.21,1.82,1.68c0.75,0.47,1.73,0.79,2.94,0.98
		c0.05,0.05,0.21,0.07,0.49,0.07c0.84,0,1.48-0.27,1.92-0.8c0.44-0.54,0.67-1.15,0.67-1.86
		C889.54,241.34,889.37,240.82,889.02,240.33L889.02,240.33z M880.16,233.29c0,1.68-0.6,3.09-1.79,4.23
		c-1.19,1.14-2.6,1.72-4.23,1.72h-0.63c-1.77,0-3.21-0.44-4.3-1.33c-1.1-0.89-1.65-2.08-1.65-3.57v-0.56c0-1.21,0.41-2.15,1.22-2.8
		c0.82-0.65,1.86-1.17,3.12-1.54c1.26-0.37,2.62-0.67,4.09-0.87c1.47-0.21,2.86-0.48,4.17-0.8V233.29L880.16,233.29z M912.73,240.17
		c-0.4-0.52-1.02-0.83-1.85-0.92c-1.07-0.09-2.02-0.48-2.83-1.15c-0.82-0.67-1.23-1.62-1.23-2.83v-19.68h3.78
		c0.89,0,1.55-0.28,2-0.84c0.44-0.56,0.66-1.17,0.66-1.82c0-0.65-0.22-1.26-0.66-1.82c-0.44-0.56-1.11-0.84-2-0.84h-3.78v-12.18
		c0-0.89-0.28-1.55-0.84-2c-0.56-0.44-1.17-0.66-1.82-0.66c-0.65,0-1.26,0.22-1.82,0.66c-0.56,0.44-0.84,1.11-0.84,2v12.18h-2.45
		c-0.89,0-1.55,0.28-2,0.84c-0.44,0.56-0.66,1.17-0.66,1.82c0,0.65,0.22,1.26,0.66,1.82c0.44,0.56,1.11,0.84,2,0.84h2.45v19.81
		c0,1.26,0.23,2.45,0.7,3.57c0.47,1.12,1.12,2.1,1.96,2.94c0.84,0.84,1.82,1.49,2.94,1.96c1.12,0.47,2.31,0.7,3.57,0.7
		c0.93,0,1.61-0.27,2.03-0.82s0.63-1.15,0.63-1.81C913.33,241.28,913.13,240.69,912.73,240.17L912.73,240.17z M929.96,198.08
		c0-0.89-0.28-1.55-0.84-2c-0.56-0.44-1.17-0.66-1.82-0.66c-0.65,0-1.26,0.22-1.82,0.66c-0.56,0.44-0.84,1.11-0.84,2v1.54
		c0,0.89,0.28,1.55,0.84,2c0.56,0.44,1.17,0.66,1.82,0.66c0.65,0,1.26-0.22,1.82-0.66c0.56-0.44,0.84-1.11,0.84-2V198.08
		L929.96,198.08z M929.96,212.71c0-0.89-0.28-1.55-0.84-1.99c-0.56-0.44-1.17-0.66-1.82-0.66c-0.65,0-1.26,0.22-1.82,0.66
		c-0.56,0.44-0.84,1.11-0.84,1.99v29.26c0,0.89,0.28,1.54,0.84,1.96c0.56,0.42,1.17,0.63,1.82,0.63c0.65,0,1.26-0.21,1.82-0.63
		c0.56-0.42,0.84-1.07,0.84-1.96V212.71L929.96,212.71z M965.73,221.32c0-1.54-0.29-3-0.87-4.38c-0.58-1.38-1.39-2.58-2.42-3.61
		c-1.03-1.03-2.23-1.83-3.6-2.42c-1.38-0.58-2.83-0.87-4.38-0.87h-0.7c-1.54,0-3,0.29-4.38,0.87c-1.38,0.58-2.58,1.39-3.61,2.42
		c-1.03,1.03-1.83,2.23-2.41,3.61c-0.58,1.38-0.87,2.83-0.87,4.38v12.04c0,1.59,0.29,3.06,0.87,4.41c0.58,1.35,1.39,2.53,2.41,3.54
		c1.03,1,2.23,1.8,3.61,2.38c1.38,0.58,2.84,0.87,4.38,0.87h0.7c1.54,0,3-0.29,4.38-0.87c1.38-0.58,2.58-1.38,3.6-2.38
		c1.03-1,1.83-2.18,2.42-3.54c0.58-1.35,0.87-2.82,0.87-4.41V221.32L965.73,221.32z M960.41,233.31c0,1.63-0.58,3.02-1.75,4.19
		c-1.17,1.16-2.57,1.74-4.2,1.74h-0.63c-1.68,0-3.1-0.58-4.27-1.74c-1.17-1.16-1.75-2.56-1.75-4.19v-12c0-1.63,0.58-3.02,1.75-4.19
		c1.17-1.16,2.57-1.75,4.2-1.75h0.7c1.63,0,3.03,0.58,4.2,1.75c1.17,1.16,1.75,2.56,1.75,4.19V233.31L960.41,233.31z
		 M1001.12,221.32c0-1.91-0.3-3.58-0.91-5.01c-0.61-1.42-1.42-2.6-2.45-3.53c-1.03-0.93-2.22-1.62-3.57-2.07
		c-1.35-0.44-2.78-0.66-4.27-0.66h-0.63c-1.21,0-2.36,0.19-3.43,0.56c-1.07,0.37-1.94,0.89-2.59,1.54c-0.14-0.7-0.47-1.23-0.98-1.58
		c-0.51-0.35-1.07-0.52-1.68-0.52c-0.7,0-1.33,0.23-1.89,0.7c-0.56,0.47-0.84,1.12-0.84,1.96v29.26c0,0.89,0.28,1.54,0.84,1.96
		c0.56,0.42,1.17,0.63,1.82,0.63c0.65,0,1.26-0.21,1.82-0.63c0.56-0.42,0.84-1.07,0.84-1.96v-20.65c0-1.68,0.59-3.09,1.78-4.23
		c1.18-1.14,2.59-1.72,4.21-1.72h0.63c1.67,0,3.09,0.58,4.25,1.75c1.16,1.17,1.74,2.57,1.74,4.2v20.65c0,0.89,0.28,1.54,0.85,1.96
		c0.57,0.42,1.18,0.63,1.84,0.63c0.66,0,1.26-0.21,1.81-0.63c0.54-0.42,0.82-1.07,0.82-1.96V221.32L1001.12,221.32z M1038.83,240.33
		c-0.35-0.49-0.92-0.8-1.71-0.95c-1.21-0.23-1.82-1-1.82-2.31v-16.24c0-1.49-0.28-2.89-0.84-4.2c-0.56-1.31-1.33-2.45-2.31-3.43
		c-0.98-0.98-2.15-1.75-3.5-2.31c-1.35-0.56-2.8-0.84-4.34-0.84h-0.49c-0.93,0-1.89,0.1-2.87,0.32c-0.98,0.21-1.94,0.56-2.87,1.05
		c-0.93,0.49-1.81,1.15-2.62,1.99c-0.82,0.84-1.5,1.89-2.06,3.15c-0.19,0.33-0.28,0.75-0.28,1.26c0,0.75,0.28,1.34,0.84,1.79
		c0.56,0.44,1.17,0.66,1.82,0.66c0.47,0,0.91-0.1,1.33-0.31c0.42-0.21,0.77-0.57,1.05-1.08c0.65-1.17,1.4-2.04,2.24-2.62
		c0.84-0.58,1.98-0.88,3.43-0.88h0.49c1.54,0,2.87,0.42,3.99,1.26c1.12,0.84,1.68,2.31,1.68,4.41c0,0.19-0.01,0.4-0.03,0.63
		c-0.02,0.23-0.08,0.42-0.18,0.56c-0.28,0.37-0.92,0.67-1.93,0.88c-1,0.21-2.16,0.43-3.46,0.67c-1.31,0.23-2.68,0.54-4.13,0.91
		c-1.45,0.37-2.78,0.92-3.99,1.65c-1.21,0.72-2.22,1.68-3.01,2.87c-0.79,1.19-1.19,2.7-1.19,4.51v0.84c0,1.63,0.33,3.08,0.98,4.34
		c0.65,1.26,1.5,2.31,2.55,3.15c1.05,0.84,2.25,1.47,3.6,1.89c1.35,0.42,2.73,0.63,4.13,0.63h0.63c2.94,0,5.46-0.91,7.56-2.73
		c0.47,0.65,1.07,1.21,1.82,1.68c0.75,0.47,1.73,0.79,2.94,0.98c0.05,0.05,0.21,0.07,0.49,0.07c0.84,0,1.48-0.27,1.93-0.8
		c0.44-0.54,0.66-1.15,0.66-1.86C1039.35,241.34,1039.18,240.82,1038.83,240.33L1038.83,240.33z M1029.97,233.29
		c0,1.68-0.59,3.09-1.78,4.23c-1.19,1.14-2.6,1.72-4.24,1.72h-0.63c-1.77,0-3.21-0.44-4.3-1.33c-1.1-0.89-1.65-2.08-1.65-3.57v-0.56
		c0-1.21,0.41-2.15,1.22-2.8c0.82-0.65,1.85-1.17,3.12-1.54c1.26-0.37,2.63-0.67,4.09-0.87c1.47-0.21,2.86-0.48,4.17-0.8V233.29
		L1029.97,233.29z M1061.16,240.09c-0.42-0.57-1.1-0.85-2.03-0.85c-1.07-0.05-1.98-0.44-2.73-1.19c-0.75-0.75-1.12-1.65-1.12-2.73
		v-37.25c0-0.88-0.28-1.55-0.84-1.99c-0.56-0.44-1.17-0.66-1.82-0.66c-0.65,0-1.26,0.22-1.82,0.66c-0.56,0.44-0.84,1.11-0.84,2
		v37.31c0,1.26,0.23,2.45,0.7,3.57c0.47,1.12,1.12,2.1,1.96,2.94c0.84,0.84,1.82,1.49,2.94,1.96c1.12,0.47,2.31,0.7,3.57,0.7
		c0.93,0,1.61-0.27,2.03-0.82c0.42-0.54,0.63-1.15,0.63-1.81C1061.79,241.28,1061.58,240.66,1061.16,240.09L1061.16,240.09z
		 M1094.68,221.39c0-1.63-0.29-3.14-0.87-4.52c-0.58-1.38-1.39-2.58-2.41-3.6c-1.03-1.03-2.23-1.82-3.61-2.38
		c-1.38-0.56-2.83-0.84-4.37-0.84h-0.7c-1.54,0-3,0.29-4.38,0.87c-1.38,0.58-2.58,1.39-3.6,2.42c-1.03,1.03-1.83,2.23-2.41,3.61
		c-0.58,1.38-0.88,2.83-0.88,4.38v12.04c0,1.59,0.29,3.06,0.88,4.41c0.58,1.35,1.39,2.53,2.41,3.54c1.03,1,2.23,1.8,3.6,2.38
		c1.38,0.58,2.83,0.87,4.38,0.87h0.7c2.38,0,4.47-0.61,6.26-1.84c1.8-1.23,3.11-2.83,3.96-4.81c0.19-0.33,0.28-0.72,0.28-1.19
		c0-0.79-0.28-1.45-0.84-1.96c-0.56-0.51-1.19-0.77-1.89-0.77c-0.47,0-0.91,0.13-1.33,0.38c-0.42,0.26-0.75,0.69-0.98,1.3
		c-0.47,0.98-1.16,1.82-2.07,2.52c-0.91,0.7-2.04,1.05-3.39,1.05h-0.7c-1.63,0-3.03-0.58-4.2-1.74c-1.17-1.16-1.75-2.55-1.75-4.17
		v-3.54h15.26c0.75,0,1.38-0.27,1.89-0.8c0.51-0.54,0.77-1.15,0.77-1.85V221.39L1094.68,221.39z M1089.36,224.89h-12.6v-3.53
		c0-1.69,0.59-3.11,1.78-4.27c1.19-1.15,2.6-1.73,4.24-1.73h0.7c1.54,0,2.9,0.58,4.09,1.73c1.19,1.15,1.79,2.6,1.79,4.34V224.89
		L1089.36,224.89z"/>
	<path class="st0" d="M604.19,132.57c0-1.82-0.35-3.53-1.05-5.14c-0.7-1.61-1.65-3.01-2.84-4.2c-1.19-1.19-2.59-2.14-4.2-2.83
		c-1.61-0.7-3.32-1.05-5.14-1.05h-11.34c-0.7,0-1.32,0.27-1.86,0.81c-0.54,0.54-0.8,1.15-0.8,1.85v43.05c0,0.7,0.27,1.32,0.8,1.85
		c0.54,0.54,1.16,0.81,1.86,0.81h11.34c1.82,0,3.53-0.35,5.14-1.05c1.61-0.7,3.01-1.64,4.2-2.84c1.19-1.19,2.13-2.6,2.84-4.23
		c0.7-1.63,1.05-3.36,1.05-5.18V132.57L604.19,132.57z M598.87,154.41c0,1.12-0.21,2.16-0.63,3.11c-0.42,0.96-0.99,1.8-1.71,2.52
		c-0.72,0.72-1.56,1.29-2.51,1.72c-0.95,0.42-1.99,0.63-3.1,0.63h-8.64v-37.73h8.71c1.12,0,2.15,0.21,3.1,0.63
		c0.95,0.42,1.78,0.99,2.48,1.71c0.7,0.72,1.25,1.56,1.67,2.52c0.42,0.96,0.63,1.99,0.63,3.12V154.41L598.87,154.41z M639.75,144.89
		c0-1.63-0.29-3.14-0.88-4.52c-0.58-1.38-1.39-2.58-2.41-3.61c-1.03-1.03-2.23-1.82-3.6-2.38c-1.38-0.56-2.84-0.84-4.38-0.84h-0.7
		c-1.54,0-3,0.29-4.38,0.88c-1.38,0.58-2.58,1.39-3.6,2.41c-1.03,1.03-1.83,2.23-2.41,3.6c-0.58,1.38-0.88,2.84-0.88,4.38v12.04
		c0,1.59,0.29,3.06,0.88,4.41c0.58,1.35,1.39,2.53,2.41,3.53c1.03,1,2.23,1.8,3.6,2.38c1.38,0.58,2.84,0.87,4.38,0.87h0.7
		c2.38,0,4.47-0.61,6.27-1.84c1.8-1.23,3.11-2.83,3.95-4.81c0.19-0.33,0.28-0.72,0.28-1.19c0-0.79-0.28-1.45-0.84-1.96
		c-0.56-0.51-1.19-0.77-1.89-0.77c-0.47,0-0.91,0.13-1.33,0.38c-0.42,0.26-0.75,0.69-0.98,1.3c-0.47,0.98-1.16,1.82-2.06,2.52
		c-0.91,0.7-2.04,1.05-3.4,1.05h-0.7c-1.63,0-3.03-0.58-4.2-1.74c-1.17-1.16-1.75-2.55-1.75-4.17v-3.54h15.26
		c0.75,0,1.38-0.27,1.89-0.8c0.51-0.54,0.77-1.15,0.77-1.85V144.89L639.75,144.89z M634.43,148.39h-12.6v-3.53
		c0-1.69,0.6-3.11,1.79-4.27c1.19-1.15,2.6-1.73,4.23-1.73h0.7c1.54,0,2.9,0.58,4.09,1.73c1.19,1.15,1.79,2.6,1.79,4.34V148.39
		L634.43,148.39z M674.18,136.21c0-0.89-0.28-1.55-0.84-1.99c-0.56-0.44-1.17-0.66-1.82-0.66c-0.65,0-1.26,0.22-1.82,0.66
		c-0.56,0.44-0.84,1.11-0.84,1.99v20.6c0,1.63-0.58,3.03-1.75,4.19c-1.17,1.16-2.59,1.75-4.27,1.75h-0.63
		c-1.63,0-3.03-0.58-4.2-1.75c-1.17-1.16-1.75-2.56-1.75-4.19v-20.6c0-0.88-0.28-1.55-0.84-1.99c-0.56-0.44-1.17-0.66-1.82-0.66
		c-0.65,0-1.26,0.22-1.82,0.66c-0.56,0.44-0.84,1.11-0.84,1.99v20.65c0,1.96,0.3,3.64,0.91,5.04c0.61,1.4,1.42,2.55,2.45,3.47
		c1.03,0.91,2.23,1.59,3.6,2.03c1.38,0.44,2.81,0.66,4.31,0.66h0.63c1.21,0,2.36-0.18,3.43-0.53c1.07-0.35,1.94-0.86,2.59-1.53
		c0.14,0.71,0.47,1.23,0.98,1.56c0.51,0.33,1.07,0.5,1.68,0.5c0.65,0,1.26-0.22,1.82-0.66c0.56-0.44,0.84-1.08,0.84-1.92V136.21
		L674.18,136.21z M701.33,163.67c-0.4-0.52-1.02-0.83-1.86-0.92c-1.07-0.09-2.02-0.48-2.83-1.15c-0.82-0.67-1.22-1.62-1.22-2.83
		v-19.68h3.78c0.89,0,1.55-0.28,2-0.84c0.44-0.56,0.67-1.17,0.67-1.82c0-0.65-0.22-1.26-0.67-1.82c-0.44-0.56-1.11-0.84-2-0.84
		h-3.78v-12.18c0-0.89-0.28-1.55-0.84-1.99c-0.56-0.44-1.17-0.67-1.82-0.67c-0.65,0-1.26,0.22-1.82,0.67
		c-0.56,0.44-0.84,1.11-0.84,1.99v12.18h-2.45c-0.89,0-1.55,0.28-1.99,0.84c-0.44,0.56-0.67,1.17-0.67,1.82
		c0,0.65,0.22,1.26,0.67,1.82c0.44,0.56,1.11,0.84,1.99,0.84h2.45v19.81c0,1.26,0.23,2.45,0.7,3.57c0.47,1.12,1.12,2.1,1.96,2.94
		c0.84,0.84,1.82,1.49,2.94,1.96c1.12,0.47,2.31,0.7,3.57,0.7c0.93,0,1.61-0.27,2.03-0.82c0.42-0.54,0.63-1.15,0.63-1.81
		C701.93,164.78,701.73,164.19,701.33,163.67L701.33,163.67z M735.83,158.01c0-2.28-0.46-4.07-1.36-5.38s-2.03-2.32-3.36-3.04
		c-1.33-0.72-2.79-1.26-4.37-1.61c-1.59-0.35-3.05-0.7-4.38-1.05c-1.33-0.35-2.45-0.81-3.36-1.4c-0.91-0.58-1.36-1.48-1.36-2.69
		v-0.21c0.05-1.02,0.58-1.91,1.61-2.65c1.03-0.74,2.52-1.12,4.48-1.12H724c1.59,0,2.82,0.22,3.71,0.67c0.89,0.44,1.7,0.85,2.45,1.23
		c0.56,0.28,1.07,0.42,1.54,0.42c0.75,0,1.35-0.26,1.82-0.77c0.47-0.51,0.7-1.1,0.7-1.75c0-0.85-0.33-1.54-0.98-2.06
		c-0.28-0.24-0.69-0.53-1.22-0.89c-0.54-0.35-1.19-0.68-1.96-0.99c-0.77-0.31-1.66-0.58-2.66-0.82c-1-0.24-2.11-0.36-3.33-0.36
		h-0.28c-1.12,0-2.34,0.15-3.68,0.45c-1.33,0.3-2.57,0.8-3.71,1.5c-1.14,0.7-2.11,1.62-2.91,2.76c-0.79,1.14-1.19,2.55-1.19,4.22
		c0,2.19,0.45,3.88,1.36,5.06c0.91,1.19,2.03,2.11,3.36,2.76c1.33,0.65,2.79,1.13,4.38,1.43c1.59,0.3,3.05,0.66,4.38,1.08
		c1.33,0.42,2.45,0.99,3.36,1.71c0.91,0.72,1.36,1.83,1.36,3.32v0.21c-0.05,1.16-0.64,2.23-1.78,3.21
		c-1.14,0.98-2.79,1.47-4.93,1.47h-0.35c-1.31,0-2.64-0.44-3.99-1.33c-1.35-0.89-2.47-1.91-3.36-3.08c-0.33-0.47-0.7-0.78-1.12-0.95
		c-0.42-0.16-0.84-0.24-1.26-0.24c-0.7,0-1.33,0.23-1.89,0.7c-0.56,0.47-0.84,1.1-0.84,1.89c0,0.19,0.12,0.63,0.35,1.33
		c0.56,1.07,1.28,2.05,2.17,2.92c0.89,0.88,1.87,1.61,2.94,2.2c1.07,0.59,2.21,1.05,3.4,1.38c1.19,0.33,2.34,0.5,3.46,0.5h0.42
		c1.45,0,2.89-0.21,4.34-0.63c1.45-0.42,2.75-1.04,3.92-1.85c1.17-0.81,2.1-1.83,2.8-3.04c0.7-1.21,1.05-2.63,1.05-4.26V158.01
		L735.83,158.01z M768.97,154.73c-0.56-0.44-1.17-0.67-1.82-0.67c-0.65,0-1.25,0.22-1.78,0.67c-0.54,0.44-0.83,1.13-0.87,2.07
		c-0.09,1.63-0.7,3.03-1.82,4.2c-1.12,1.17-2.5,1.75-4.13,1.75h-0.63c-1.68,0-3.1-0.58-4.27-1.74c-1.17-1.16-1.75-2.56-1.75-4.19
		v-12c0-1.63,0.58-3.02,1.75-4.19c1.17-1.16,2.57-1.75,4.2-1.75h0.7c1.63,0,3.01,0.56,4.13,1.68c1.12,1.12,1.73,2.57,1.82,4.34
		c0.05,0.89,0.34,1.54,0.87,1.96c0.54,0.42,1.13,0.63,1.78,0.63c0.65,0,1.26-0.22,1.82-0.67c0.56-0.44,0.84-1.11,0.84-1.99
		c0-1.54-0.3-3-0.91-4.38c-0.61-1.38-1.41-2.58-2.41-3.6c-1-1.03-2.19-1.83-3.57-2.41c-1.38-0.58-2.83-0.88-4.37-0.88h-0.7
		c-1.54,0-3,0.29-4.38,0.88c-1.38,0.58-2.57,1.38-3.57,2.38c-1,1-1.81,2.19-2.41,3.57c-0.61,1.38-0.91,2.86-0.91,4.45v12.04
		c0,1.59,0.29,3.06,0.88,4.41c0.58,1.35,1.39,2.53,2.41,3.53c1.03,1,2.23,1.8,3.6,2.38c1.38,0.58,2.84,0.87,4.38,0.87h0.7
		c1.54,0,3-0.3,4.37-0.89c1.38-0.59,2.58-1.39,3.6-2.41c1.03-1.02,1.83-2.2,2.42-3.56c0.58-1.36,0.87-2.83,0.87-4.41
		C769.81,155.86,769.53,155.17,768.97,154.73L768.97,154.73z M804.93,144.82c0-1.54-0.29-3-0.88-4.38c-0.58-1.38-1.39-2.58-2.42-3.6
		c-1.03-1.03-2.23-1.83-3.6-2.41c-1.38-0.58-2.84-0.88-4.37-0.88h-0.56c-1.21,0-2.38,0.19-3.5,0.56c-1.12,0.37-1.98,0.89-2.59,1.54
		v-14.07c0-0.89-0.28-1.55-0.84-1.99c-0.56-0.44-1.17-0.67-1.82-0.67c-0.65,0-1.26,0.22-1.82,0.67c-0.56,0.44-0.84,1.11-0.84,1.99
		v43.89c0,0.89,0.28,1.54,0.84,1.96c0.56,0.42,1.17,0.63,1.82,0.63c0.65,0,1.26-0.21,1.82-0.63c0.56-0.42,0.84-1.07,0.84-1.96v-21
		c0-0.89,0.19-1.68,0.56-2.38c0.37-0.7,0.85-1.29,1.44-1.79c0.58-0.49,1.26-0.85,2.03-1.08c0.77-0.23,1.55-0.35,2.34-0.35
		c0.75,0,1.49,0.12,2.24,0.35c0.75,0.23,1.42,0.6,2.03,1.08c0.61,0.49,1.08,1.11,1.43,1.86c0.35,0.75,0.53,1.63,0.53,2.66v20.65
		c0,0.89,0.28,1.54,0.84,1.96c0.56,0.42,1.17,0.63,1.82,0.63c0.65,0,1.26-0.21,1.82-0.63c0.56-0.42,0.84-1.07,0.84-1.96V144.82
		L804.93,144.82z M839.63,144.89c0-1.63-0.29-3.14-0.88-4.52c-0.58-1.38-1.39-2.58-2.42-3.61c-1.03-1.03-2.23-1.82-3.6-2.38
		c-1.38-0.56-2.84-0.84-4.38-0.84h-0.7c-1.54,0-3,0.29-4.38,0.88c-1.38,0.58-2.58,1.39-3.6,2.41c-1.03,1.03-1.83,2.23-2.42,3.6
		c-0.58,1.38-0.87,2.84-0.87,4.38v12.04c0,1.59,0.29,3.06,0.87,4.41c0.58,1.35,1.39,2.53,2.42,3.53c1.03,1,2.23,1.8,3.6,2.38
		c1.38,0.58,2.83,0.87,4.38,0.87h0.7c2.38,0,4.47-0.61,6.27-1.84c1.8-1.23,3.12-2.83,3.95-4.81c0.19-0.33,0.28-0.72,0.28-1.19
		c0-0.79-0.28-1.45-0.84-1.96c-0.56-0.51-1.19-0.77-1.89-0.77c-0.47,0-0.91,0.13-1.33,0.38c-0.42,0.26-0.75,0.69-0.98,1.3
		c-0.47,0.98-1.16,1.82-2.07,2.52c-0.91,0.7-2.04,1.05-3.4,1.05h-0.7c-1.63,0-3.03-0.58-4.2-1.74c-1.17-1.16-1.75-2.55-1.75-4.17
		v-3.54h15.26c0.75,0,1.38-0.27,1.89-0.8c0.51-0.54,0.77-1.15,0.77-1.85V144.89L839.63,144.89z M834.31,148.39h-12.6v-3.53
		c0-1.69,0.6-3.11,1.78-4.27c1.19-1.15,2.6-1.73,4.23-1.73h0.7c1.54,0,2.9,0.58,4.1,1.73c1.19,1.15,1.78,2.6,1.78,4.34V148.39
		L834.31,148.39z M901.58,143.98c0-0.7-0.27-1.32-0.8-1.86c-0.54-0.54-1.16-0.8-1.86-0.8h-10.01c-0.89,0-1.55,0.28-1.99,0.84
		c-0.44,0.56-0.66,1.17-0.66,1.82c0,0.65,0.22,1.26,0.66,1.82c0.44,0.56,1.11,0.84,1.99,0.84h7.35v8.15c0,1.12-0.21,2.15-0.63,3.1
		c-0.42,0.95-0.99,1.79-1.72,2.51c-0.72,0.72-1.56,1.29-2.52,1.71c-0.96,0.42-2,0.63-3.11,0.63h-0.7c-1.12,0-2.16-0.21-3.12-0.63
		c-0.96-0.42-1.8-0.99-2.52-1.71c-0.72-0.72-1.3-1.56-1.72-2.52c-0.42-0.95-0.63-1.99-0.63-3.11v-22.64c0-1.07,0.21-2.08,0.63-3.04
		c0.42-0.95,0.99-1.79,1.72-2.52c0.72-0.72,1.56-1.29,2.52-1.71c0.96-0.42,1.99-0.63,3.12-0.63h0.7c2.29,0,4.09,0.65,5.43,1.96
		c1.33,1.31,2.18,2.94,2.55,4.9c0.14,0.79,0.47,1.36,0.98,1.72c0.51,0.35,1.07,0.52,1.68,0.52c0.65,0,1.26-0.22,1.82-0.66
		c0.56-0.44,0.84-1.09,0.84-1.93v-0.42c-0.23-1.63-0.73-3.15-1.5-4.55c-0.77-1.4-1.75-2.6-2.94-3.6c-1.19-1-2.54-1.8-4.06-2.38
		c-1.52-0.58-3.12-0.88-4.8-0.88h-0.7c-1.82,0-3.55,0.35-5.18,1.05c-1.63,0.7-3.04,1.65-4.23,2.83c-1.19,1.19-2.13,2.59-2.84,4.2
		c-0.7,1.61-1.05,3.35-1.05,5.21v22.61c0,1.87,0.35,3.6,1.05,5.21c0.7,1.61,1.65,3.01,2.84,4.2c1.19,1.19,2.6,2.12,4.23,2.8
		c1.63,0.68,3.36,1.01,5.18,1.01h0.7c1.82,0,3.55-0.34,5.18-1.01c1.63-0.68,3.04-1.61,4.23-2.8c1.19-1.19,2.13-2.59,2.83-4.2
		s1.05-3.35,1.05-5.21V143.98L901.58,143.98z M937.1,144.89c0-1.63-0.29-3.14-0.88-4.52c-0.58-1.38-1.39-2.58-2.42-3.61
		c-1.03-1.03-2.23-1.82-3.61-2.38c-1.38-0.56-2.84-0.84-4.37-0.84h-0.7c-1.54,0-3,0.29-4.38,0.88c-1.38,0.58-2.58,1.39-3.6,2.41
		c-1.03,1.03-1.83,2.23-2.41,3.6c-0.58,1.38-0.88,2.84-0.88,4.38v12.04c0,1.59,0.29,3.06,0.88,4.41c0.58,1.35,1.39,2.53,2.41,3.53
		c1.03,1,2.23,1.8,3.6,2.38c1.38,0.58,2.84,0.87,4.38,0.87h0.7c2.38,0,4.47-0.61,6.26-1.84c1.8-1.23,3.12-2.83,3.96-4.81
		c0.19-0.33,0.28-0.72,0.28-1.19c0-0.79-0.28-1.45-0.84-1.96c-0.56-0.51-1.19-0.77-1.89-0.77c-0.47,0-0.91,0.13-1.33,0.38
		c-0.42,0.26-0.75,0.69-0.98,1.3c-0.47,0.98-1.15,1.82-2.06,2.52c-0.91,0.7-2.04,1.05-3.4,1.05h-0.7c-1.63,0-3.03-0.58-4.2-1.74
		c-1.17-1.16-1.75-2.55-1.75-4.17v-3.54h15.26c0.75,0,1.38-0.27,1.89-0.8c0.51-0.54,0.77-1.15,0.77-1.85V144.89L937.1,144.89z
		 M931.78,148.39h-12.6v-3.53c0-1.69,0.6-3.11,1.78-4.27c1.19-1.15,2.6-1.73,4.24-1.73h0.7c1.54,0,2.91,0.58,4.1,1.73
		c1.19,1.15,1.78,2.6,1.78,4.34V148.39L931.78,148.39z M971.99,158.01c0-2.28-0.46-4.07-1.36-5.38c-0.91-1.3-2.03-2.32-3.36-3.04
		c-1.33-0.72-2.79-1.26-4.37-1.61c-1.59-0.35-3.05-0.7-4.38-1.05c-1.33-0.35-2.45-0.81-3.36-1.4c-0.91-0.58-1.36-1.48-1.36-2.69
		v-0.21c0.05-1.02,0.58-1.91,1.61-2.65c1.03-0.74,2.52-1.12,4.48-1.12h0.28c1.59,0,2.82,0.22,3.71,0.67
		c0.89,0.44,1.7,0.85,2.45,1.23c0.56,0.28,1.07,0.42,1.54,0.42c0.75,0,1.35-0.26,1.82-0.77c0.47-0.51,0.7-1.1,0.7-1.75
		c0-0.85-0.33-1.54-0.98-2.06c-0.28-0.24-0.69-0.53-1.22-0.89c-0.54-0.35-1.19-0.68-1.96-0.99c-0.77-0.31-1.66-0.58-2.66-0.82
		c-1-0.24-2.11-0.36-3.32-0.36h-0.28c-1.12,0-2.34,0.15-3.67,0.45c-1.33,0.3-2.57,0.8-3.71,1.5c-1.14,0.7-2.11,1.62-2.9,2.76
		c-0.79,1.14-1.19,2.55-1.19,4.22c0,2.19,0.45,3.88,1.37,5.06c0.91,1.19,2.03,2.11,3.36,2.76c1.33,0.65,2.79,1.13,4.37,1.43
		c1.59,0.3,3.04,0.66,4.37,1.08c1.33,0.42,2.45,0.99,3.36,1.71c0.91,0.72,1.36,1.83,1.36,3.32v0.21c-0.05,1.16-0.64,2.23-1.78,3.21
		c-1.14,0.98-2.79,1.47-4.94,1.47h-0.35c-1.31,0-2.64-0.44-3.99-1.33c-1.35-0.89-2.47-1.91-3.36-3.08c-0.33-0.47-0.7-0.78-1.12-0.95
		c-0.42-0.16-0.84-0.24-1.26-0.24c-0.7,0-1.33,0.23-1.89,0.7c-0.56,0.47-0.84,1.1-0.84,1.89c0,0.19,0.12,0.63,0.35,1.33
		c0.56,1.07,1.28,2.05,2.17,2.92c0.89,0.88,1.87,1.61,2.94,2.2c1.07,0.59,2.21,1.05,3.4,1.38c1.19,0.33,2.35,0.5,3.46,0.5h0.42
		c1.45,0,2.89-0.21,4.34-0.63c1.45-0.42,2.75-1.04,3.92-1.85c1.17-0.81,2.1-1.83,2.8-3.04c0.7-1.21,1.05-2.63,1.05-4.26V158.01
		L971.99,158.01z M1005.94,144.89c0-1.63-0.29-3.14-0.88-4.52c-0.58-1.38-1.39-2.58-2.42-3.61c-1.03-1.03-2.23-1.82-3.6-2.38
		c-1.38-0.56-2.83-0.84-4.37-0.84h-0.7c-1.54,0-3,0.29-4.38,0.88c-1.38,0.58-2.58,1.39-3.6,2.41c-1.03,1.03-1.83,2.23-2.42,3.6
		c-0.58,1.38-0.88,2.84-0.88,4.38v12.04c0,1.59,0.29,3.06,0.88,4.41c0.58,1.35,1.39,2.53,2.42,3.53c1.03,1,2.23,1.8,3.6,2.38
		c1.38,0.58,2.83,0.87,4.38,0.87h0.7c2.38,0,4.47-0.61,6.26-1.84c1.8-1.23,3.11-2.83,3.95-4.81c0.19-0.33,0.28-0.72,0.28-1.19
		c0-0.79-0.28-1.45-0.84-1.96c-0.56-0.51-1.19-0.77-1.89-0.77c-0.47,0-0.91,0.13-1.33,0.38c-0.42,0.26-0.75,0.69-0.98,1.3
		c-0.47,0.98-1.15,1.82-2.06,2.52c-0.91,0.7-2.04,1.05-3.39,1.05h-0.7c-1.63,0-3.03-0.58-4.2-1.74c-1.17-1.16-1.75-2.55-1.75-4.17
		v-3.54h15.26c0.75,0,1.38-0.27,1.89-0.8c0.51-0.54,0.77-1.15,0.77-1.85V144.89L1005.94,144.89z M1000.62,148.39h-12.6v-3.53
		c0-1.69,0.59-3.11,1.78-4.27c1.19-1.15,2.6-1.73,4.24-1.73h0.7c1.54,0,2.91,0.58,4.1,1.73c1.19,1.15,1.79,2.6,1.79,4.34V148.39
		L1000.62,148.39z M1029.05,163.59c-0.42-0.57-1.1-0.85-2.03-0.85c-1.07-0.05-1.98-0.44-2.73-1.19c-0.75-0.75-1.12-1.65-1.12-2.73
		v-37.25c0-0.88-0.28-1.55-0.84-1.99c-0.56-0.44-1.17-0.66-1.82-0.66c-0.65,0-1.26,0.22-1.82,0.67c-0.56,0.44-0.84,1.11-0.84,1.99
		v37.31c0,1.26,0.23,2.45,0.7,3.57c0.47,1.12,1.12,2.1,1.96,2.94c0.84,0.84,1.82,1.49,2.94,1.96c1.12,0.47,2.31,0.7,3.57,0.7
		c0.93,0,1.61-0.27,2.03-0.82c0.42-0.54,0.63-1.15,0.63-1.81C1029.68,164.78,1029.47,164.16,1029.05,163.59L1029.05,163.59z
		 M1051.03,163.59c-0.42-0.57-1.1-0.85-2.03-0.85c-1.07-0.05-1.98-0.44-2.73-1.19c-0.75-0.75-1.12-1.65-1.12-2.73v-37.25
		c0-0.88-0.28-1.55-0.84-1.99c-0.56-0.44-1.17-0.66-1.82-0.66c-0.65,0-1.26,0.22-1.82,0.67c-0.56,0.44-0.84,1.11-0.84,1.99v37.31
		c0,1.26,0.23,2.45,0.7,3.57c0.47,1.12,1.12,2.1,1.96,2.94c0.84,0.84,1.82,1.49,2.94,1.96c1.12,0.47,2.31,0.7,3.57,0.7
		c0.93,0,1.61-0.27,2.03-0.82c0.42-0.54,0.63-1.15,0.63-1.81C1051.66,164.78,1051.45,164.16,1051.03,163.59L1051.03,163.59z
		 M1085.6,158.01c0-2.28-0.46-4.07-1.36-5.38c-0.91-1.3-2.03-2.32-3.36-3.04c-1.33-0.72-2.79-1.26-4.37-1.61
		c-1.59-0.35-3.05-0.7-4.38-1.05c-1.33-0.35-2.45-0.81-3.36-1.4s-1.36-1.48-1.36-2.69v-0.21c0.05-1.02,0.58-1.91,1.61-2.65
		c1.03-0.74,2.52-1.12,4.48-1.12h0.28c1.59,0,2.82,0.22,3.71,0.67c0.89,0.44,1.7,0.85,2.45,1.23c0.56,0.28,1.07,0.42,1.54,0.42
		c0.75,0,1.35-0.26,1.82-0.77c0.47-0.51,0.7-1.1,0.7-1.75c0-0.85-0.33-1.54-0.98-2.06c-0.28-0.24-0.69-0.53-1.22-0.89
		c-0.54-0.35-1.19-0.68-1.96-0.99c-0.77-0.31-1.66-0.58-2.66-0.82c-1-0.24-2.11-0.36-3.33-0.36h-0.28c-1.12,0-2.34,0.15-3.68,0.45
		c-1.33,0.3-2.57,0.8-3.71,1.5c-1.14,0.7-2.11,1.62-2.9,2.76c-0.79,1.14-1.19,2.55-1.19,4.22c0,2.19,0.46,3.88,1.36,5.06
		c0.91,1.19,2.03,2.11,3.36,2.76c1.33,0.65,2.79,1.13,4.38,1.43c1.59,0.3,3.04,0.66,4.37,1.08c1.33,0.42,2.45,0.99,3.36,1.71
		c0.91,0.72,1.36,1.83,1.36,3.32v0.21c-0.05,1.16-0.64,2.23-1.78,3.21c-1.14,0.98-2.79,1.47-4.94,1.47h-0.35
		c-1.31,0-2.64-0.44-3.99-1.33c-1.35-0.89-2.47-1.91-3.36-3.08c-0.33-0.47-0.7-0.78-1.12-0.95c-0.42-0.16-0.84-0.24-1.26-0.24
		c-0.7,0-1.33,0.23-1.89,0.7c-0.56,0.47-0.84,1.1-0.84,1.89c0,0.19,0.12,0.63,0.35,1.33c0.56,1.07,1.28,2.05,2.17,2.92
		c0.89,0.88,1.87,1.61,2.94,2.2c1.07,0.59,2.21,1.05,3.4,1.38c1.19,0.33,2.34,0.5,3.47,0.5h0.42c1.45,0,2.89-0.21,4.34-0.63
		c1.45-0.42,2.75-1.04,3.92-1.85c1.17-0.81,2.1-1.83,2.8-3.04c0.7-1.21,1.05-2.63,1.05-4.26V158.01L1085.6,158.01z M1118.74,154.73
		c-0.56-0.44-1.17-0.67-1.82-0.67c-0.65,0-1.25,0.22-1.79,0.67c-0.54,0.44-0.83,1.13-0.88,2.07c-0.09,1.63-0.7,3.03-1.82,4.2
		c-1.12,1.17-2.5,1.75-4.13,1.75h-0.63c-1.68,0-3.1-0.58-4.27-1.74c-1.17-1.16-1.75-2.56-1.75-4.19v-12c0-1.63,0.58-3.02,1.75-4.19
		c1.17-1.16,2.57-1.75,4.2-1.75h0.7c1.63,0,3.01,0.56,4.13,1.68c1.12,1.12,1.73,2.57,1.82,4.34c0.05,0.89,0.34,1.54,0.88,1.96
		c0.54,0.42,1.13,0.63,1.79,0.63c0.65,0,1.26-0.22,1.82-0.67c0.56-0.44,0.84-1.11,0.84-1.99c0-1.54-0.3-3-0.91-4.38
		c-0.61-1.38-1.41-2.58-2.42-3.6c-1-1.03-2.19-1.83-3.57-2.41c-1.38-0.58-2.83-0.88-4.38-0.88h-0.7c-1.54,0-3,0.29-4.38,0.88
		c-1.38,0.58-2.57,1.38-3.57,2.38c-1,1-1.81,2.19-2.41,3.57c-0.61,1.38-0.91,2.86-0.91,4.45v12.04c0,1.59,0.29,3.06,0.88,4.41
		c0.58,1.35,1.39,2.53,2.42,3.53c1.03,1,2.23,1.8,3.6,2.38c1.38,0.58,2.83,0.87,4.38,0.87h0.7c1.54,0,3-0.3,4.38-0.89
		c1.38-0.59,2.58-1.39,3.61-2.41c1.03-1.02,1.83-2.2,2.42-3.56c0.58-1.36,0.87-2.83,0.87-4.41
		C1119.58,155.86,1119.3,155.17,1118.74,154.73L1118.74,154.73z M1154.02,144.82c0-1.54-0.29-3-0.88-4.38
		c-0.58-1.38-1.39-2.58-2.41-3.6c-1.03-1.03-2.23-1.83-3.61-2.41c-1.38-0.58-2.84-0.88-4.38-0.88h-0.56c-1.21,0-2.38,0.19-3.5,0.56
		c-1.12,0.37-1.98,0.89-2.59,1.54v-14.07c0-0.89-0.28-1.55-0.84-1.99c-0.56-0.44-1.17-0.67-1.82-0.67c-0.65,0-1.26,0.22-1.82,0.67
		c-0.56,0.44-0.84,1.11-0.84,1.99v43.89c0,0.89,0.28,1.54,0.84,1.96c0.56,0.42,1.17,0.63,1.82,0.63c0.65,0,1.26-0.21,1.82-0.63
		c0.56-0.42,0.84-1.07,0.84-1.96v-21c0-0.89,0.19-1.68,0.56-2.38c0.37-0.7,0.85-1.29,1.44-1.79c0.58-0.49,1.26-0.85,2.03-1.08
		c0.77-0.23,1.55-0.35,2.34-0.35c0.75,0,1.49,0.12,2.24,0.35c0.75,0.23,1.42,0.6,2.03,1.08c0.61,0.49,1.08,1.11,1.43,1.86
		c0.35,0.75,0.53,1.63,0.53,2.66v20.65c0,0.89,0.28,1.54,0.84,1.96c0.56,0.42,1.17,0.63,1.82,0.63c0.65,0,1.26-0.21,1.82-0.63
		c0.56-0.42,0.84-1.07,0.84-1.96V144.82L1154.02,144.82z M1191.57,163.83c-0.35-0.49-0.92-0.8-1.72-0.94
		c-1.21-0.23-1.82-1-1.82-2.31v-16.24c0-1.49-0.28-2.89-0.84-4.2c-0.56-1.31-1.33-2.45-2.31-3.43c-0.98-0.98-2.15-1.75-3.5-2.31
		c-1.35-0.56-2.8-0.84-4.34-0.84h-0.49c-0.93,0-1.89,0.1-2.87,0.32c-0.98,0.21-1.94,0.56-2.87,1.05c-0.93,0.49-1.81,1.15-2.62,1.99
		c-0.82,0.84-1.51,1.89-2.06,3.15c-0.19,0.33-0.28,0.75-0.28,1.26c0,0.75,0.28,1.34,0.84,1.79c0.56,0.44,1.17,0.66,1.82,0.66
		c0.47,0,0.91-0.1,1.33-0.32c0.42-0.21,0.77-0.57,1.05-1.08c0.65-1.17,1.4-2.04,2.24-2.62c0.84-0.58,1.98-0.88,3.43-0.88h0.49
		c1.54,0,2.87,0.42,3.99,1.26c1.12,0.84,1.68,2.31,1.68,4.41c0,0.19-0.01,0.4-0.03,0.63c-0.02,0.23-0.08,0.42-0.17,0.56
		c-0.28,0.37-0.92,0.66-1.92,0.88c-1,0.21-2.16,0.43-3.47,0.66c-1.31,0.23-2.68,0.54-4.13,0.91c-1.45,0.37-2.78,0.92-3.99,1.65
		c-1.21,0.72-2.22,1.68-3.01,2.87c-0.79,1.19-1.19,2.7-1.19,4.51v0.84c0,1.63,0.33,3.08,0.98,4.34c0.65,1.26,1.51,2.31,2.56,3.15
		s2.25,1.47,3.6,1.89c1.35,0.42,2.73,0.63,4.13,0.63h0.63c2.94,0,5.46-0.91,7.56-2.73c0.47,0.65,1.07,1.21,1.82,1.68
		c0.75,0.47,1.73,0.79,2.94,0.98c0.05,0.05,0.21,0.07,0.49,0.07c0.84,0,1.48-0.27,1.93-0.8c0.44-0.54,0.67-1.15,0.67-1.85
		C1192.09,164.84,1191.92,164.32,1191.57,163.83L1191.57,163.83z M1182.71,156.79c0,1.68-0.59,3.09-1.78,4.23
		c-1.19,1.14-2.6,1.72-4.23,1.72h-0.63c-1.77,0-3.21-0.44-4.31-1.33c-1.1-0.89-1.64-2.08-1.64-3.57v-0.56c0-1.21,0.41-2.15,1.22-2.8
		c0.82-0.65,1.85-1.17,3.11-1.54c1.26-0.37,2.62-0.67,4.09-0.88s2.86-0.48,4.16-0.8V156.79L1182.71,156.79z M1215.03,119.76
		c-0.44-0.56-1.11-0.84-1.99-0.84c-1.31,0-2.51,0.23-3.61,0.7c-1.1,0.47-2.05,1.11-2.87,1.93c-0.82,0.82-1.45,1.8-1.89,2.94
		c-0.44,1.14-0.67,2.37-0.67,3.67v5.6h-1.54c-0.89,0-1.55,0.28-2,0.84c-0.44,0.56-0.67,1.17-0.67,1.82c0,0.65,0.22,1.26,0.67,1.82
		c0.44,0.56,1.11,0.84,2,0.84h1.54v26.39c0,0.89,0.28,1.54,0.84,1.96c0.56,0.42,1.17,0.63,1.82,0.63c0.65,0,1.26-0.21,1.82-0.63
		c0.56-0.42,0.84-1.07,0.84-1.96v-26.39h3.29c0.89,0,1.55-0.28,1.99-0.84c0.44-0.56,0.67-1.17,0.67-1.82c0-0.65-0.21-1.26-0.63-1.82
		c-0.42-0.56-1.1-0.84-2.03-0.84h-3.29v-5.6c0-1.07,0.34-1.99,1.02-2.76c0.68-0.77,1.57-1.15,2.7-1.15c0.89,0,1.55-0.28,1.99-0.84
		c0.44-0.56,0.67-1.17,0.67-1.82C1215.69,120.93,1215.47,120.32,1215.03,119.76L1215.03,119.76z M1237.99,163.67
		c-0.4-0.52-1.02-0.83-1.85-0.92c-1.07-0.09-2.02-0.48-2.84-1.15c-0.82-0.67-1.22-1.62-1.22-2.83v-19.68h3.78
		c0.89,0,1.55-0.28,2-0.84c0.44-0.56,0.67-1.17,0.67-1.82c0-0.65-0.22-1.26-0.67-1.82c-0.44-0.56-1.11-0.84-2-0.84h-3.78v-12.18
		c0-0.89-0.28-1.55-0.84-1.99c-0.56-0.44-1.17-0.67-1.82-0.67c-0.65,0-1.26,0.22-1.82,0.67c-0.56,0.44-0.84,1.11-0.84,1.99v12.18
		h-2.45c-0.89,0-1.55,0.28-1.99,0.84c-0.44,0.56-0.67,1.17-0.67,1.82c0,0.65,0.22,1.26,0.67,1.82c0.44,0.56,1.11,0.84,1.99,0.84
		h2.45v19.81c0,1.26,0.23,2.45,0.7,3.57c0.47,1.12,1.12,2.1,1.96,2.94s1.82,1.49,2.94,1.96c1.12,0.47,2.31,0.7,3.57,0.7
		c0.93,0,1.61-0.27,2.03-0.82c0.42-0.54,0.63-1.15,0.63-1.81C1238.58,164.78,1238.39,164.19,1237.99,163.67L1237.99,163.67z"/>
</g>
</svg>
