<?xml version="1.0" encoding="utf-8"?>
<!-- Generator: Adobe Illustrator 28.0.0, SVG Export Plug-In . SVG Version: 6.00 Build 0)  -->
<svg version="1.1" id="z-logo" xmlns="http://www.w3.org/2000/svg" xmlns:xlink="http://www.w3.org/1999/xlink" x="0px" y="0px"
	 viewBox="0 0 114.26 68.98" style="enable-background:new 0 0 114.26 68.98;" xml:space="preserve">
<style type="text/css">
	.st0{fill:#CD000C;}
	.st1{fill:#1A1A1A;}
	.st2{fill-rule:evenodd;clip-rule:evenodd;fill:#1A1A1A;}
	.st3{fill-rule:evenodd;clip-rule:evenodd;fill:#CD000C;}
	.st4{fill-rule:evenodd;clip-rule:evenodd;fill:#FFCC17;}
	.st5{filter:url(#Adobe_OpacityMaskFilter);}
	.st6{filter:url(#Adobe_OpacityMaskFilter_00000026858247019840651280000010725301581073997721_);}
	
		.st7{clip-path:url(#SVGID_00000080921338173232528050000007971081550627155889_);mask:url(#SVGID_00000083779897815563675150000011135106009394302094_);fill-rule:evenodd;clip-rule:evenodd;fill:url(#SVGID_00000078723282261103217530000006875456713990564238_);}
	
		.st8{clip-path:url(#SVGID_00000080921338173232528050000007971081550627155889_);fill-rule:evenodd;clip-rule:evenodd;fill:url(#SVGID_00000029025522960181237520000011870387730547713190_);}
	.st9{filter:url(#Adobe_OpacityMaskFilter_00000167365061500413227280000007426335694238349189_);}
	.st10{filter:url(#Adobe_OpacityMaskFilter_00000129175620494269575770000011530597769028211352_);}
	
		.st11{clip-path:url(#SVGID_00000163782619211207445120000004858607728298109064_);mask:url(#SVGID_00000108280348792198775960000000122920431534023562_);fill-rule:evenodd;clip-rule:evenodd;fill:url(#SVGID_00000168807548532089599570000009725548211812526752_);}
	
		.st12{clip-path:url(#SVGID_00000163782619211207445120000004858607728298109064_);fill-rule:evenodd;clip-rule:evenodd;fill:url(#SVGID_00000131328449943961765460000004551280293455450555_);}
	
		.st13{clip-path:url(#SVGID_00000163782619211207445120000004858607728298109064_);fill-rule:evenodd;clip-rule:evenodd;fill:#59440A;}
	.st14{filter:url(#Adobe_OpacityMaskFilter_00000121260661302751941470000000006394793481591984_);}
	.st15{filter:url(#Adobe_OpacityMaskFilter_00000163764629830341309000000014589304524527668395_);}
	
		.st16{clip-path:url(#SVGID_00000168089682670083500040000007364238334793289344_);mask:url(#SVGID_00000047047942867807493700000006235223848373572759_);fill-rule:evenodd;clip-rule:evenodd;fill:url(#SVGID_00000137126114949447259500000010745764447513061802_);}
	
		.st17{clip-path:url(#SVGID_00000168089682670083500040000007364238334793289344_);fill-rule:evenodd;clip-rule:evenodd;fill:url(#SVGID_00000005959406124119673490000001080768580278616462_);}
	
		.st18{clip-path:url(#SVGID_00000168089682670083500040000007364238334793289344_);fill-rule:evenodd;clip-rule:evenodd;fill:#59440A;}
	.st19{clip-path:url(#SVGID_00000099654619519865626250000016498858457020458117_);}
	.st20{fill:#C80D19;}
	.st21{fill:#10411C;}
	.st22{filter:url(#Adobe_OpacityMaskFilter_00000083077752843499423240000005143231297166322096_);}
	.st23{filter:url(#Adobe_OpacityMaskFilter_00000113333100190090497270000016817131954320950673_);}
	
		.st24{clip-path:url(#SVGID_00000099654619519865626250000016498858457020458117_);mask:url(#SVGID_00000117649711851590465090000005207331566162304191_);fill-rule:evenodd;clip-rule:evenodd;fill:url(#SVGID_00000123414849301992284770000010065655849057189504_);}
	.st25{filter:url(#Adobe_OpacityMaskFilter_00000011030020130719250710000008819472177806807221_);}
	.st26{filter:url(#Adobe_OpacityMaskFilter_00000131337489642664617590000005575197885844640683_);}
	
		.st27{mask:url(#SVGID_00000078026765126164733300000013822794575381751952_);fill-rule:evenodd;clip-rule:evenodd;fill:url(#SVGID_00000028295579758965784270000017938086430451802769_);}
	.st28{fill-rule:evenodd;clip-rule:evenodd;fill:url(#SVGID_00000141452667437870341320000016816527394337633669_);}
</style>
<g>
	<g id="Wortteil_Arabisch">
		<path class="st0" d="M85.14,59.89h-2.75v0.38h1.13v3.26h0.46v-3.26h1.13L85.14,59.89z M80.95,63.19h-0.46v0.33h1.37v-0.33h-0.46
			v-2.97h0.44v-0.33h-1.34v0.33h0.44V63.19z M79.75,59.89h-2.01v3.63h2.09l0.03-0.38H78.2v-1.26h1.39V61.5H78.2v-1.23h1.52
			L79.75,59.89z M76.29,62.5c0,0.42-0.26,0.64-0.93,0.64h-0.36v-1.26h0.39C75.96,61.88,76.29,62.1,76.29,62.5 M76.2,60.83
			c0,0.43-0.29,0.67-0.89,0.67h-0.31v-1.23h0.31C75.94,60.26,76.2,60.49,76.2,60.83 M76.67,60.81c0-0.56-0.37-0.92-1.37-0.92h-0.77
			v3.63h0.82c1,0,1.42-0.42,1.42-0.99c0-0.5-0.33-0.79-0.76-0.87v-0.01C76.37,61.54,76.67,61.33,76.67,60.81 M73,60.93
			c0,0.48-0.3,0.74-0.97,0.74h-0.29v-1.41h0.31C72.71,60.26,73,60.47,73,60.93 M73.74,63.52l-0.97-1.58
			c0.49-0.18,0.72-0.54,0.72-1.04c0-0.67-0.44-1.02-1.44-1.02h-0.77v3.63h0.46v-1.47h0.29c0.1,0,0.2,0,0.29-0.01l0.86,1.48H73.74z
			 M69.54,62.01h-1.06L69,60.49h0.01L69.54,62.01z M70.56,63.52l-1.36-3.63h-0.36l-1.36,3.63h0.47l0.4-1.16h1.3l0.4,1.16H70.56z
			 M66.76,59.89H66.3v2.79h-0.01l-1.83-2.79h-0.43v3.63h0.46v-2.81h0.01l1.83,2.81h0.43V59.89z M63.04,59.89h-2.01v3.63h2.09
			l0.03-0.38h-1.66v-1.26h1.4V61.5h-1.4v-1.23h1.52L63.04,59.89z M59.88,59.89h-0.46l-1.21,2.98H58.2l-1.22-2.98h-0.5v3.63h0.44
			v-2.6h0.01l1.05,2.6h0.39l1.05-2.6h0.01v2.6h0.44V59.89z M55.33,59.89h-0.46l-1.21,2.98h-0.01l-1.22-2.98h-0.5v3.63h0.44v-2.6
			h0.01l1.05,2.6h0.39l1.05-2.6h0.01v2.6h0.44V59.89z M50.19,62.01h-1.06l0.53-1.52h0.01L50.19,62.01z M51.21,63.52l-1.36-3.63
			h-0.36l-1.36,3.63h0.47l0.4-1.16h1.3l0.4,1.16H51.21z M47.51,60.1c-0.07-0.06-0.33-0.27-0.86-0.27c-0.65,0-1.06,0.39-1.06,0.86
			c0,0.5,0.22,0.74,0.71,1.07l0.32,0.21c0.4,0.26,0.56,0.42,0.56,0.73c0,0.25-0.23,0.48-0.72,0.48c-0.4,0-0.69-0.23-0.8-0.33
			l-0.16,0.43c0.12,0.1,0.39,0.32,0.98,0.32c0.74,0,1.17-0.41,1.17-0.96c0-0.48-0.29-0.77-0.72-1.04l-0.32-0.2
			c-0.44-0.27-0.56-0.43-0.56-0.72c0-0.24,0.2-0.43,0.61-0.43c0.37,0,0.6,0.19,0.67,0.25L47.51,60.1z M44.64,59.89H44.2v2.14
			c0,0.84-0.29,1.16-0.89,1.16c-0.6,0-0.91-0.33-0.91-1.16v-2.14h-0.46v2.13c0,1.1,0.44,1.56,1.34,1.56c0.91,0,1.36-0.53,1.36-1.56
			V59.89z M40.99,59.89h-2.31v0.38h1.75v0.01l-1.84,2.96v0.29h2.53l0.03-0.38h-1.97v-0.01l1.81-2.96V59.89z M36.48,59.89h-2.01v3.63
			h2.09l0.03-0.38h-1.67v-1.26h1.4V61.5h-1.4v-1.23h1.52L36.48,59.89z M33.32,59.89h-0.46v1.61h-1.81v-1.61h-0.46v3.63h0.46v-1.64
			h1.81v1.64h0.46V59.89z M27.11,61.7c0,1.3,0.63,1.88,1.59,1.88c0.62,0,0.91-0.25,1.02-0.34l-0.14-0.34
			c-0.1,0.09-0.34,0.28-0.81,0.28c-0.73,0-1.16-0.43-1.16-1.52c0-1.06,0.57-1.45,1.22-1.45c0.42,0,0.66,0.2,0.75,0.28l0.17-0.36
			c-0.08-0.07-0.36-0.31-0.92-0.31C27.99,59.82,27.11,60.36,27.11,61.7 M26.25,60.1c-0.07-0.06-0.33-0.27-0.86-0.27
			c-0.65,0-1.06,0.39-1.06,0.86c0,0.5,0.22,0.74,0.71,1.07l0.32,0.21c0.4,0.26,0.56,0.42,0.56,0.73c0,0.25-0.23,0.48-0.72,0.48
			c-0.4,0-0.68-0.23-0.79-0.33l-0.16,0.43c0.12,0.1,0.39,0.32,0.97,0.32c0.74,0,1.17-0.41,1.17-0.96c0-0.48-0.29-0.77-0.72-1.04
			l-0.32-0.2c-0.44-0.27-0.56-0.43-0.56-0.72c0-0.24,0.2-0.43,0.61-0.43c0.37,0,0.6,0.19,0.67,0.25L26.25,60.1z M23.74,59.89h-2.75
			v0.38h1.13v3.26h0.46v-3.26h1.13L23.74,59.89z M20.25,59.89h-0.44v2.14c0,0.84-0.29,1.16-0.89,1.16c-0.6,0-0.91-0.33-0.91-1.16
			v-2.14h-0.46v2.13c0,1.1,0.44,1.56,1.34,1.56c0.91,0,1.36-0.53,1.36-1.56V59.89z M16.59,59.89h-2.01v3.63h2.09l0.03-0.38h-1.67
			v-1.26h1.4V61.5h-1.4v-1.23h1.52L16.59,59.89z M11.61,60.28c0.97,0,1.5,0.34,1.5,1.34c0,1.08-0.55,1.5-1.56,1.5h-0.23v-2.85H11.61
			z M11.55,63.52c1.3,0,2.05-0.59,2.05-1.9c0-1.24-0.62-1.73-1.99-1.73h-0.75v3.63H11.55z"/>
		<g>
			<path class="st1" d="M41.19,36.28c0.08,0.92,0.13,1.61,0.13,2.08c0,0.37-0.07,0.73-0.2,1.08c-0.07,0.18-0.22,0.48-0.45,0.89
				l-0.13-0.07c0.01-0.13,0.03-0.29,0.04-0.46c0.01-0.18,0.02-0.3,0.02-0.36c0-0.48-0.04-1.16-0.11-2.03
				c-0.08-0.87-0.17-1.78-0.28-2.72c-0.07-0.57-0.14-1.15-0.22-1.75c0.09-0.2,0.2-0.43,0.32-0.66c0.12-0.24,0.23-0.46,0.34-0.67
				c0.07,0.53,0.17,1.26,0.28,2.18C41.04,34.71,41.13,35.54,41.19,36.28 M38.96,40.14h-3.45v-1.21h2.74l-0.83-5.92l-0.36-0.18
				c0-0.32,0.03-0.62,0.08-0.9c0.06-0.28,0.14-0.56,0.25-0.82l0.1,0.08c0,0.27,0.15,0.47,0.45,0.61c0.23,0.09,0.47,0.19,0.7,0.28
				c0,0.23-0.02,0.48-0.06,0.75c-0.04,0.26-0.08,0.46-0.13,0.59l-0.33-0.11l0.82,5.47V40.14z M35.97,33.25l-0.54,1.01l-1.13-0.6
				l0.52-1L35.97,33.25z M34.36,33.88l-0.53,1.01l-1.13-0.59l0.52-1.01L34.36,33.88z M36,40.14h-3.98v-1.21h3.47
				c0-0.55-0.06-0.97-0.2-1.25c-0.09-0.2-0.31-0.49-0.65-0.86l0.54-1.14c0.33,0.42,0.54,0.76,0.63,0.99
				c0.13,0.36,0.19,0.95,0.19,1.78V40.14z M32.52,40.14h-1.03c-0.3,0-0.61-0.07-0.92-0.22c-0.37-0.17-0.64-0.41-0.81-0.72
				c-0.31,0.28-0.67,0.5-1.07,0.65c-0.49,0.19-1.04,0.28-1.67,0.28H26.4v-1.21h0.63c0.39,0,0.75-0.04,1.09-0.13
				c0.38-0.1,0.76-0.25,1.12-0.47l-0.29-0.38c-0.15-0.18-0.32-0.26-0.5-0.26c-0.08,0-0.16,0.01-0.22,0.04
				c-0.07,0.03-0.14,0.1-0.21,0.2h-0.15v-0.41c0-0.51,0.14-0.86,0.4-1.05c0.25-0.17,0.67-0.26,1.28-0.26c0.53,0,0.95,0.07,1.28,0.21
				c0.43,0.18,0.65,0.46,0.65,0.84c0,0.2-0.09,0.41-0.26,0.62c-0.13,0.16-0.36,0.38-0.69,0.66c0.07,0.11,0.22,0.2,0.43,0.28
				c0.21,0.07,0.39,0.11,0.53,0.11h1.03V40.14z M26.89,40.14h-0.98c-0.32,0-0.57-0.13-0.76-0.38c-0.17-0.22-0.29-0.56-0.38-1
				c-0.09-0.44-0.15-0.98-0.2-1.63c-0.03-0.53-0.06-1.07-0.09-1.62c-0.03-0.55-0.07-0.97-0.12-1.26c-0.05-0.29-0.12-0.52-0.2-0.7
				c-0.1-0.22-0.24-0.42-0.43-0.59l0.86-1.35c0.18,0.56,0.31,1.23,0.38,2c0.05,0.48,0.09,1.63,0.14,3.43
				c0.08,0.83,0.2,1.36,0.36,1.59c0.13,0.2,0.27,0.29,0.43,0.29h0.98V40.14z M23.18,38.97c-0.1-0.45-0.23-0.76-0.37-0.93
				c-0.13-0.15-0.28-0.23-0.46-0.23c-0.13,0-0.24,0.04-0.34,0.13c-0.1,0.09-0.14,0.2-0.14,0.32c0,0.23,0.1,0.4,0.31,0.52
				C22.38,38.9,22.71,38.97,23.18,38.97 M23.62,39.72c0,0.77-0.28,1.53-0.85,2.29c-0.63,0.85-1.36,1.27-2.19,1.27
				c-0.31,0-0.62-0.04-0.95-0.1c-0.24-0.05-0.55-0.14-0.93-0.26c-0.3-0.11-0.61-0.21-0.91-0.31l0.12-0.25
				c0.26,0.06,0.53,0.13,0.82,0.19c0.29,0.07,0.54,0.1,0.77,0.1c0.57,0,1.1-0.14,1.61-0.43c0.39-0.23,0.79-0.56,1.18-0.99
				c0.2-0.22,0.49-0.57,0.85-1.07c-0.63,0-1.1-0.1-1.41-0.3c-0.35-0.23-0.53-0.6-0.53-1.13c0-0.48,0.11-0.92,0.33-1.33
				c0.26-0.48,0.59-0.71,0.99-0.71c0.41,0,0.7,0.23,0.87,0.71c0.14,0.37,0.21,0.88,0.21,1.53V39.72z M14.84,34.79l-0.52,1l-1.09-0.6
				l0.5-0.97L14.84,34.79z M17.44,40.14c0,1.04-0.3,1.8-0.91,2.29c-0.66,0.52-1.71,0.79-3.17,0.79c-0.93,0-1.64-0.16-2.14-0.49
				c-0.54-0.36-0.81-0.91-0.81-1.65c0-0.4,0.05-0.8,0.15-1.21c0.1-0.41,0.23-0.82,0.4-1.24c0.1-0.25,0.28-0.63,0.53-1.16l0.28,0.13
				c-0.33,0.67-0.54,1.2-0.65,1.58c-0.1,0.39-0.16,0.74-0.16,1.06c0,0.57,0.2,1.01,0.62,1.31c0.41,0.3,1,0.45,1.76,0.45
				c0.88,0,1.66-0.16,2.34-0.47c0.84-0.39,1.26-0.92,1.26-1.62c0-0.47-0.07-0.92-0.21-1.33c-0.12-0.36-0.29-0.68-0.52-0.95
				l0.58-1.43c0.25,0.38,0.42,0.76,0.51,1.15c0.09,0.39,0.14,0.91,0.14,1.56V40.14z"/>
			<path class="st1" d="M43.69,48.33c0.08,0.92,0.13,1.62,0.13,2.09c0,0.37-0.07,0.73-0.2,1.08c-0.07,0.19-0.22,0.48-0.45,0.89
				l-0.13-0.07c0.01-0.13,0.03-0.29,0.04-0.47c0.01-0.17,0.02-0.3,0.02-0.36c0-0.48-0.04-1.16-0.11-2.03
				c-0.08-0.87-0.17-1.77-0.28-2.72c-0.06-0.57-0.14-1.16-0.22-1.75c0.09-0.2,0.2-0.43,0.32-0.66c0.12-0.24,0.23-0.46,0.34-0.67
				c0.07,0.53,0.17,1.26,0.28,2.18C43.54,46.76,43.63,47.58,43.69,48.33 M38.52,51.93c0.39-0.06,0.59-0.16,0.59-0.33
				c0-0.1-0.02-0.21-0.06-0.32c-0.04-0.11-0.13-0.29-0.26-0.54c-0.14,0.18-0.35,0.39-0.62,0.63c-0.28,0.24-0.55,0.44-0.82,0.61
				C37.9,51.98,38.29,51.97,38.52,51.93 M40.93,44.82l-0.34,1.26l-0.41-0.2l0.01,0.64c0,0.62-0.08,1.23-0.24,1.81
				c-0.17,0.64-0.44,1.28-0.82,1.91c0.18,0.33,0.3,0.58,0.37,0.77c0.11,0.29,0.16,0.59,0.16,0.89c0,0.17,0,0.32-0.01,0.44
				c-0.01,0.12-0.03,0.26-0.06,0.43c-0.49,0.11-1.02,0.2-1.58,0.26c-0.56,0.06-1.11,0.09-1.64,0.09c0-0.09,0.01-0.16,0.01-0.22
				c0.02-0.36,0.08-0.68,0.17-0.98c0.79-0.42,1.46-0.97,2-1.65c-0.33-0.62-0.56-1.05-0.71-1.31c-0.16-0.28-0.44-0.71-0.83-1.31
				c-0.14-0.2-0.27-0.36-0.38-0.48c-0.15-0.16-0.27-0.24-0.36-0.24c-0.06,0-0.16,0.03-0.3,0.11c-0.07,0.04-0.14,0.05-0.19,0.05
				c-0.1,0-0.26-0.1-0.48-0.31c-0.19-0.18-0.39-0.4-0.6-0.67c-0.17-0.21-0.28-0.39-0.34-0.54c-0.06-0.14-0.09-0.31-0.09-0.51
				c0-0.29,0.02-0.51,0.06-0.67c0.06-0.25,0.15-0.37,0.29-0.37c0.19,0,0.47,0.18,0.83,0.54c0.32,0.33,0.68,0.75,1.07,1.28
				c0.35,0.47,0.69,0.98,1.03,1.52l0.71,1.14c0.21,0.34,0.42,0.73,0.64,1.17c0.31-0.63,0.52-1.26,0.64-1.91
				c0.1-0.56,0.15-1.27,0.15-2.14l-0.4-0.23c0-0.3,0.03-0.58,0.08-0.83c0.05-0.25,0.13-0.48,0.23-0.68l0.16,0.04
				c0.02,0.2,0.13,0.36,0.33,0.48c0.11,0.06,0.26,0.14,0.43,0.22C40.7,44.72,40.84,44.78,40.93,44.82 M35.91,42.81
				c0,0.12-0.07,0.22-0.22,0.31c-0.1,0.06-0.24,0.13-0.44,0.2l-1.3,0.44c0-0.21,0.23-0.4,0.7-0.56c-0.14-0.07-0.25-0.15-0.33-0.21
				c-0.1-0.09-0.15-0.18-0.15-0.28c0-0.14,0.12-0.35,0.37-0.61c0.27-0.29,0.52-0.43,0.72-0.43c0.09,0,0.17,0.03,0.24,0.1
				c0.07,0.06,0.1,0.15,0.1,0.25c0,0.07-0.01,0.13-0.04,0.2c-0.03,0.07-0.07,0.14-0.12,0.23c-0.14-0.13-0.3-0.2-0.47-0.2
				c-0.1,0-0.2,0.02-0.3,0.06c-0.1,0.04-0.15,0.09-0.15,0.15c0,0.07,0.11,0.16,0.33,0.29c0.22,0.12,0.4,0.18,0.55,0.18
				c0.1,0,0.17,0,0.22-0.01C35.67,42.89,35.77,42.86,35.91,42.81 M33.69,52.19h-3.45v-1.21h2.74l-0.83-5.91l-0.36-0.18
				c0-0.32,0.03-0.62,0.08-0.9c0.05-0.28,0.14-0.56,0.25-0.82l0.1,0.08c0,0.27,0.15,0.47,0.45,0.61c0.23,0.09,0.47,0.19,0.71,0.28
				c0,0.23-0.02,0.48-0.06,0.74c-0.04,0.27-0.08,0.46-0.13,0.59l-0.34-0.11l0.82,5.47V52.19z M29.93,50.82
				c-0.06-0.27-0.15-0.53-0.28-0.8c-0.11-0.22-0.25-0.44-0.43-0.68c-0.22,0.06-0.41,0.16-0.56,0.32c-0.1,0.1-0.22,0.26-0.36,0.49
				c0.17,0.19,0.41,0.35,0.71,0.49c0.3,0.14,0.59,0.23,0.86,0.27L29.93,50.82z M30.73,52.19H30c-0.31,0-0.66-0.07-1.05-0.21
				c-0.45-0.16-0.85-0.38-1.19-0.67c-0.27,0.33-0.55,0.56-0.83,0.69c-0.28,0.13-0.69,0.19-1.23,0.19h-1.09v-1.21h1.07
				c0.42,0,0.8-0.11,1.13-0.32c0.25-0.17,0.49-0.4,0.7-0.7c0.28-0.41,0.63-0.77,1.05-1.07c0.37-0.27,0.71-0.44,1.03-0.52
				c0.32,0.49,0.58,0.93,0.77,1.32c0.25,0.53,0.38,0.96,0.38,1.29V52.19z M25.11,52.19h-0.98c-0.32,0-0.57-0.13-0.76-0.38
				c-0.17-0.22-0.29-0.56-0.38-1c-0.09-0.44-0.15-0.99-0.2-1.63c-0.03-0.53-0.06-1.07-0.09-1.62c-0.03-0.55-0.07-0.97-0.12-1.26
				c-0.05-0.29-0.12-0.52-0.2-0.7c-0.1-0.22-0.24-0.42-0.43-0.58l0.86-1.36c0.18,0.56,0.31,1.23,0.38,2
				c0.05,0.48,0.09,1.63,0.14,3.43c0.08,0.83,0.2,1.36,0.36,1.59c0.13,0.19,0.27,0.29,0.43,0.29h0.98V52.19z M21.27,45.74
				l-0.53,1.01l-1.13-0.59l0.52-1.01L21.27,45.74z M21.83,52.19h-3.98v-1.21h3.47c0-0.55-0.06-0.97-0.2-1.26
				c-0.09-0.2-0.31-0.49-0.66-0.86l0.54-1.14c0.33,0.42,0.54,0.75,0.63,0.99c0.13,0.36,0.19,0.95,0.19,1.78V52.19z M15.46,56.66
				l-0.65,0.6l-0.78-0.49l0.63-0.65L15.46,56.66z M14.01,56.66l-0.64,0.6l-0.81-0.49l0.65-0.65L14.01,56.66z M18.35,52.19h-1.22
				c-0.72,0-1.26,0.02-1.61,0.06c-0.36,0.04-0.54,0.11-0.54,0.22c0,0.16,0.21,0.23,0.65,0.23c0.19,0,0.34,0,0.45,0.01
				c0.11,0.01,0.36,0.03,0.73,0.07c0.22,0.03,0.38,0.06,0.46,0.1c0.14,0.07,0.2,0.19,0.2,0.36c0,0.87-0.29,1.5-0.86,1.9
				c-0.62,0.43-1.65,0.65-3.09,0.65c-1,0-1.8-0.17-2.39-0.51c-0.63-0.36-0.94-0.88-0.94-1.55c0-0.54,0.15-1.11,0.45-1.72
				c0.11-0.22,0.39-0.69,0.84-1.4l0.28,0.14c-0.18,0.3-0.35,0.6-0.52,0.9c-0.26,0.51-0.4,0.93-0.4,1.25c0,0.57,0.3,1.01,0.89,1.31
				c0.57,0.28,1.35,0.42,2.34,0.42c0.66,0,1.25-0.05,1.76-0.15c0.62-0.12,0.93-0.3,0.93-0.51c0-0.08-0.03-0.14-0.1-0.18
				c-0.07-0.04-0.19-0.06-0.35-0.06c-0.13-0.01-0.32-0.03-0.59-0.04c-0.27-0.02-0.44-0.03-0.53-0.03c-0.29,0-0.5-0.04-0.63-0.12
				c-0.12-0.08-0.19-0.19-0.19-0.35c0-0.58,0.17-1.05,0.51-1.42c0.28-0.3,0.65-0.52,1.12-0.66c0.35-0.1,0.73-0.16,1.12-0.16h1.22
				V52.19z"/>
		</g>
	</g>
	<path class="st2" d="M56.61,18.93c1.19,1.23,2.6,3.18,3.83,5l0.03-0.16c-2.27-3.21-3.91-6.2-7.43-9.56
		C48.52,9.9,42.77,7.91,39.72,7.1c-19.7-5.74-34.86,4.87-34.94,4.91c0.67,1.93,1.33,3.86,2,5.79c3.3-2.46,7.98-4.53,11.12-5.67
		c2.84-1.03,6.9-1.95,9.22-2.22c2.32-0.27,6.39-0.29,8.22-0.2c1.83,0.1,6.41,1.05,8.05,1.56c2.8,0.88,6,2.36,7.31,3.14
		C52,15.2,54,16.23,56.61,18.93z"/>
	<path class="st3" d="M60.03,25.83l0.4-1.9c-1.22-1.83-2.64-3.77-3.83-5C54,16.23,52,15.2,50.68,14.42
		c-1.32-0.78-4.51-2.27-7.31-3.14c-1.63-0.51-6.22-1.46-8.05-1.56c-1.83-0.1-5.9-0.07-8.22,0.2c-2.32,0.27-6.37,1.19-9.22,2.22
		c-3.14,1.13-7.82,3.21-11.12,5.67c0.71,2.06,1.43,4.13,2.14,6.19c2.09-1.54,8.85-6.32,15-8.12c6.82-2,13.33-2.08,20.3-0.04
		c6.57,1.92,10.82,5.22,12.11,6.27C57.4,22.97,58.87,24.5,60.03,25.83z"/>
	<path class="st4" d="M59.82,26.86l0.22-1.03c-1.17-1.33-2.64-2.86-3.72-3.74c-1.29-1.05-5.54-4.35-12.11-6.27
		c-6.97-2.04-13.47-1.96-20.3,0.04c-6.14,1.8-12.91,6.58-15,8.12c0.63,1.82,1.26,3.64,1.88,5.46c1.95-1.79,12.53-10.39,26.96-10.93
		c6.52-0.24,12.91,1.16,16.81,3.73C56.65,23.62,58.44,25.35,59.82,26.86z"/>
	<g>
		<defs>
			<path id="SVGID_1_" d="M56.61,18.93c1.38,1.43,3.07,3.83,4.4,5.88l0.07-0.18c-2.62-3.54-4.21-6.75-8.05-10.42
				C48.52,9.9,42.77,7.91,39.72,7.1c-19.7-5.74-34.86,4.87-34.94,4.91c0.67,1.93,1.33,3.86,2,5.79c3.3-2.46,7.98-4.53,11.12-5.67
				c2.84-1.03,6.9-1.95,9.22-2.22c2.32-0.27,6.39-0.29,8.22-0.2c1.83,0.1,6.41,1.05,8.05,1.56c2.8,0.88,6,2.36,7.31,3.14
				C52,15.2,54,16.23,56.61,18.93z"/>
		</defs>
		<clipPath id="SVGID_00000165922343467869355890000008112788233540822690_">
			<use xlink:href="#SVGID_1_"  style="overflow:visible;"/>
		</clipPath>
		<defs>
			<filter id="Adobe_OpacityMaskFilter" filterUnits="userSpaceOnUse" x="31.68" y="-0.59" width="34.63" height="43.91">
				<feFlood  style="flood-color:white;flood-opacity:1" result="back"/>
				<feBlend  in="SourceGraphic" in2="back" mode="normal"/>
			</filter>
		</defs>
		
			<mask maskUnits="userSpaceOnUse" x="31.68" y="-0.59" width="34.63" height="43.91" id="SVGID_00000024710218127684403670000013473631039694558120_">
			<g class="st5">
				<defs>
					
						<filter id="Adobe_OpacityMaskFilter_00000005956637642315956360000004067924513748123808_" filterUnits="userSpaceOnUse" x="31.68" y="-0.59" width="34.63" height="43.91">
						<feFlood  style="flood-color:white;flood-opacity:1" result="back"/>
						<feBlend  in="SourceGraphic" in2="back" mode="normal"/>
					</filter>
				</defs>
				
					<mask maskUnits="userSpaceOnUse" x="31.68" y="-0.59" width="34.63" height="43.91" id="SVGID_00000024710218127684403670000013473631039694558120_">
					<g style="filter:url(#Adobe_OpacityMaskFilter_00000005956637642315956360000004067924513748123808_);">
					</g>
				</mask>
				
					<linearGradient id="SVGID_00000085223583092588833740000010820594710339287479_" gradientUnits="userSpaceOnUse" x1="-97.9601" y1="-78.1246" x2="-88.459" y2="-80.6848" gradientTransform="matrix(-1.8638 -0.7249 0.651 -1.6737 -75.96 -178.936)">
					<stop  offset="0" style="stop-color:#FFFFFF"/>
					<stop  offset="0.0884" style="stop-color:#F8F8F8"/>
					<stop  offset="0.2164" style="stop-color:#E5E5E5"/>
					<stop  offset="0.3685" style="stop-color:#C5C5C5"/>
					<stop  offset="0.5392" style="stop-color:#999999"/>
					<stop  offset="0.7252" style="stop-color:#616161"/>
					<stop  offset="0.9213" style="stop-color:#1D1D1D"/>
					<stop  offset="1" style="stop-color:#000000"/>
				</linearGradient>
				
					<polygon style="clip-path:url(#SVGID_00000165922343467869355890000008112788233540822690_);mask:url(#SVGID_00000024710218127684403670000013473631039694558120_);fill-rule:evenodd;clip-rule:evenodd;fill:url(#SVGID_00000085223583092588833740000010820594710339287479_);" points="
					66.31,11.33 35.78,-0.59 31.68,34.69 53.86,43.32 				"/>
			</g>
		</mask>
		
			<linearGradient id="SVGID_00000170258705143492959920000012139370646821712005_" gradientUnits="userSpaceOnUse" x1="-97.9601" y1="-78.1246" x2="-88.459" y2="-80.6848" gradientTransform="matrix(-1.8638 -0.7249 0.651 -1.6737 -75.96 -178.936)">
			<stop  offset="0" style="stop-color:#59440A"/>
			<stop  offset="0.0884" style="stop-color:#5A450D"/>
			<stop  offset="0.2164" style="stop-color:#5A4714"/>
			<stop  offset="0.3685" style="stop-color:#58491E"/>
			<stop  offset="0.5392" style="stop-color:#524829"/>
			<stop  offset="0.7252" style="stop-color:#433E2E"/>
			<stop  offset="0.9213" style="stop-color:#282724"/>
			<stop  offset="1" style="stop-color:#1A1A1A"/>
		</linearGradient>
		
			<polygon style="clip-path:url(#SVGID_00000165922343467869355890000008112788233540822690_);fill-rule:evenodd;clip-rule:evenodd;fill:url(#SVGID_00000170258705143492959920000012139370646821712005_);" points="
			66.31,11.33 35.78,-0.59 31.68,34.69 53.86,43.32 		"/>
	</g>
	<g>
		<defs>
			<path id="SVGID_00000034769149292482232980000010194572037473857706_" d="M60.43,26.29l0.58-1.48c-1.33-2.05-3.02-4.45-4.4-5.88
				C54,16.23,52,15.2,50.68,14.42c-1.32-0.78-4.51-2.27-7.31-3.14c-1.63-0.51-6.22-1.46-8.05-1.56c-1.83-0.1-5.9-0.07-8.22,0.2
				c-2.32,0.27-6.37,1.19-9.22,2.22c-3.14,1.13-7.82,3.21-11.12,5.67c0.71,2.06,1.43,4.13,2.14,6.19c2.09-1.54,8.85-6.32,15-8.12
				c6.82-2,13.33-2.08,20.3-0.04c6.57,1.92,10.82,5.22,12.11,6.27C57.52,23.07,59.22,24.87,60.43,26.29z"/>
		</defs>
		<clipPath id="SVGID_00000054946154378160194240000001110190326957074588_">
			<use xlink:href="#SVGID_00000034769149292482232980000010194572037473857706_"  style="overflow:visible;"/>
		</clipPath>
		<defs>
			
				<filter id="Adobe_OpacityMaskFilter_00000137823641941192196340000001015377263357442458_" filterUnits="userSpaceOnUse" x="28.26" y="-7.72" width="34.63" height="43.91">
				<feFlood  style="flood-color:white;flood-opacity:1" result="back"/>
				<feBlend  in="SourceGraphic" in2="back" mode="normal"/>
			</filter>
		</defs>
		
			<mask maskUnits="userSpaceOnUse" x="28.26" y="-7.72" width="34.63" height="43.91" id="SVGID_00000013889325495253963170000005919514260755031463_">
			<g style="filter:url(#Adobe_OpacityMaskFilter_00000137823641941192196340000001015377263357442458_);">
				<defs>
					
						<filter id="Adobe_OpacityMaskFilter_00000039120699484359207020000006971315165046177706_" filterUnits="userSpaceOnUse" x="28.26" y="-7.72" width="34.63" height="43.91">
						<feFlood  style="flood-color:white;flood-opacity:1" result="back"/>
						<feBlend  in="SourceGraphic" in2="back" mode="normal"/>
					</filter>
				</defs>
				
					<mask maskUnits="userSpaceOnUse" x="28.26" y="-7.72" width="34.63" height="43.91" id="SVGID_00000013889325495253963170000005919514260755031463_">
					<g style="filter:url(#Adobe_OpacityMaskFilter_00000039120699484359207020000006971315165046177706_);">
					</g>
				</mask>
				
					<linearGradient id="SVGID_00000023281192757265908160000002163161952794372529_" gradientUnits="userSpaceOnUse" x1="-95.079" y1="-75.1156" x2="-85.5773" y2="-77.676" gradientTransform="matrix(-1.8638 -0.7249 0.651 -1.6737 -75.96 -178.936)">
					<stop  offset="0" style="stop-color:#FFFFFF"/>
					<stop  offset="0.0884" style="stop-color:#F8F8F8"/>
					<stop  offset="0.2164" style="stop-color:#E5E5E5"/>
					<stop  offset="0.3685" style="stop-color:#C5C5C5"/>
					<stop  offset="0.5392" style="stop-color:#999999"/>
					<stop  offset="0.7252" style="stop-color:#616161"/>
					<stop  offset="0.9213" style="stop-color:#1D1D1D"/>
					<stop  offset="1" style="stop-color:#000000"/>
				</linearGradient>
				
					<polygon style="clip-path:url(#SVGID_00000054946154378160194240000001110190326957074588_);mask:url(#SVGID_00000013889325495253963170000005919514260755031463_);fill-rule:evenodd;clip-rule:evenodd;fill:url(#SVGID_00000023281192757265908160000002163161952794372529_);" points="
					62.9,4.2 32.37,-7.72 28.26,27.57 50.45,36.19 				"/>
			</g>
		</mask>
		
			<linearGradient id="SVGID_00000149362488997282821700000005883791030995460234_" gradientUnits="userSpaceOnUse" x1="-95.079" y1="-75.1156" x2="-85.5773" y2="-77.676" gradientTransform="matrix(-1.8638 -0.7249 0.651 -1.6737 -75.96 -178.936)">
			<stop  offset="0" style="stop-color:#59440A"/>
			<stop  offset="0.1408" style="stop-color:#5E430A"/>
			<stop  offset="0.3444" style="stop-color:#6D3D0A"/>
			<stop  offset="0.5864" style="stop-color:#88300B"/>
			<stop  offset="0.8555" style="stop-color:#B2160C"/>
			<stop  offset="1" style="stop-color:#CD000C"/>
		</linearGradient>
		
			<polygon style="clip-path:url(#SVGID_00000054946154378160194240000001110190326957074588_);fill-rule:evenodd;clip-rule:evenodd;fill:url(#SVGID_00000149362488997282821700000005883791030995460234_);" points="
			62.9,4.2 32.37,-7.72 28.26,27.57 50.45,36.19 		"/>
		
			<rect x="53.55" y="18.98" transform="matrix(0.276 -0.9612 0.9612 0.276 20.9567 72.304)" style="clip-path:url(#SVGID_00000054946154378160194240000001110190326957074588_);fill-rule:evenodd;clip-rule:evenodd;fill:#59440A;" width="9.85" height="6.53"/>
	</g>
	<g>
		<defs>
			<path id="SVGID_00000170239161851373844290000002874452704144141441_" d="M60.14,27.22l0.34-0.87c-1.22-1.43-2.94-3.26-4.16-4.25
				c-1.29-1.05-5.54-4.35-12.11-6.27c-6.97-2.04-13.47-1.96-20.3,0.04c-6.14,1.8-12.91,6.58-15,8.12c0.63,1.82,1.26,3.64,1.88,5.46
				c1.95-1.79,12.53-10.39,26.96-10.93c6.52-0.24,12.91,1.16,16.81,3.73C56.82,23.73,58.73,25.62,60.14,27.22z"/>
		</defs>
		<clipPath id="SVGID_00000014628761678294276450000007760358493581041826_">
			<use xlink:href="#SVGID_00000170239161851373844290000002874452704144141441_"  style="overflow:visible;"/>
		</clipPath>
		<defs>
			
				<filter id="Adobe_OpacityMaskFilter_00000144333852560365824460000005657756250545522851_" filterUnits="userSpaceOnUse" x="33.57" y="5.34" width="30.12" height="38.18">
				<feFlood  style="flood-color:white;flood-opacity:1" result="back"/>
				<feBlend  in="SourceGraphic" in2="back" mode="normal"/>
			</filter>
		</defs>
		
			<mask maskUnits="userSpaceOnUse" x="33.57" y="5.34" width="30.12" height="38.18" id="SVGID_00000084495990027817890040000006982449169930518455_">
			<g style="filter:url(#Adobe_OpacityMaskFilter_00000144333852560365824460000005657756250545522851_);">
				<defs>
					
						<filter id="Adobe_OpacityMaskFilter_00000096779429033769345470000009178586638890849962_" filterUnits="userSpaceOnUse" x="33.57" y="5.34" width="30.12" height="38.18">
						<feFlood  style="flood-color:white;flood-opacity:1" result="back"/>
						<feBlend  in="SourceGraphic" in2="back" mode="normal"/>
					</filter>
				</defs>
				
					<mask maskUnits="userSpaceOnUse" x="33.57" y="5.34" width="30.12" height="38.18" id="SVGID_00000084495990027817890040000006982449169930518455_">
					<g style="filter:url(#Adobe_OpacityMaskFilter_00000096779429033769345470000009178586638890849962_);">
					</g>
				</mask>
				
					<linearGradient id="SVGID_00000158716524161583740030000006204082327279538877_" gradientUnits="userSpaceOnUse" x1="-97.9007" y1="-79.8721" x2="-89.6386" y2="-82.0985" gradientTransform="matrix(-1.8638 -0.7249 0.651 -1.6737 -75.96 -178.936)">
					<stop  offset="0" style="stop-color:#FFFFFF"/>
					<stop  offset="0.0884" style="stop-color:#F8F8F8"/>
					<stop  offset="0.2164" style="stop-color:#E5E5E5"/>
					<stop  offset="0.3685" style="stop-color:#C5C5C5"/>
					<stop  offset="0.5392" style="stop-color:#999999"/>
					<stop  offset="0.7252" style="stop-color:#616161"/>
					<stop  offset="0.9213" style="stop-color:#1D1D1D"/>
					<stop  offset="1" style="stop-color:#000000"/>
				</linearGradient>
				
					<polygon style="clip-path:url(#SVGID_00000014628761678294276450000007760358493581041826_);mask:url(#SVGID_00000084495990027817890040000006982449169930518455_);fill-rule:evenodd;clip-rule:evenodd;fill:url(#SVGID_00000158716524161583740030000006204082327279538877_);" points="
					63.68,15.71 37.14,5.34 33.57,36.02 52.86,43.53 				"/>
			</g>
		</mask>
		
			<linearGradient id="SVGID_00000007388477469110174080000008533296451835524480_" gradientUnits="userSpaceOnUse" x1="-97.9007" y1="-79.8721" x2="-89.6386" y2="-82.0985" gradientTransform="matrix(-1.8638 -0.7249 0.651 -1.6737 -75.96 -178.936)">
			<stop  offset="0" style="stop-color:#59440A"/>
			<stop  offset="0.1408" style="stop-color:#604A0A"/>
			<stop  offset="0.3444" style="stop-color:#75590D"/>
			<stop  offset="0.5864" style="stop-color:#9B7610"/>
			<stop  offset="0.8555" style="stop-color:#D6A815"/>
			<stop  offset="1" style="stop-color:#FFCC17"/>
		</linearGradient>
		
			<polygon style="clip-path:url(#SVGID_00000014628761678294276450000007760358493581041826_);fill-rule:evenodd;clip-rule:evenodd;fill:url(#SVGID_00000007388477469110174080000008533296451835524480_);" points="
			63.68,15.71 37.14,5.34 33.57,36.02 52.86,43.53 		"/>
		
			<rect x="58.52" y="22.09" style="clip-path:url(#SVGID_00000014628761678294276450000007760358493581041826_);fill-rule:evenodd;clip-rule:evenodd;fill:#59440A;" width="3.74" height="6.36"/>
	</g>
	<g id="Marokko">
		<defs>
			<path id="SVGID_00000106148624080026783300000000249065094631066763_" d="M108.33,22.99c-0.43-2.15-0.91-4.59-1.35-6.79
				c-0.69-3.48-1.25-6.35-1.26-6.49C96.6,20.86,86.17,27.66,79.43,29.81c-11.85,3.78-14.31-0.46-15.75-2.02
				c-0.78-0.85-2.11-2.48-3.03-3.72l-0.97,2.68c0.9,0.91,2.14,2.5,2.45,2.89c4.28,5.49,9.62,12.88,18.55,12.77
				c7.39-0.09,10.95-1.77,12.96-2.52c9.81-3.64,15.83-11.05,15.84-11.05C109.47,28.76,108.97,26.21,108.33,22.99z"/>
		</defs>
		<clipPath id="SVGID_00000124135049726432365520000010629728183237637504_">
			<use xlink:href="#SVGID_00000106148624080026783300000000249065094631066763_"  style="overflow:visible;"/>
		</clipPath>
		<g id="Flagge_Marokko" style="clip-path:url(#SVGID_00000124135049726432365520000010629728183237637504_);">
			<polygon id="Green_18_" class="st20" points="62.59,21.25 107.83,6.83 116.16,32.95 59.94,52.41 			"/>
			<g id="star_14_">
				<path class="st21" d="M89,31.47c-0.09,0.6-0.17,1.19-0.24,1.79c-0.67,0.2-1.37,0.37-2.08,0.48c0.62,0.25,1.27,0.46,1.95,0.62
					c-0.06,0.6-0.12,1.19-0.18,1.79c0.41-0.38,1.11-1.1,1.47-1.54c0.72,0.1,1.46,0.16,2.22,0.16c-0.51-0.36-0.99-0.74-1.42-1.15
					c0.41-0.54,0.78-1.09,1.11-1.65c-0.59,0.32-1.21,0.61-1.85,0.86C89.62,32.4,89.29,31.94,89,31.47z M89.25,32.56
					c0.11,0.14,0.22,0.29,0.33,0.43c-0.13,0.05-0.26,0.09-0.39,0.13C89.21,32.94,89.23,32.75,89.25,32.56z M88.72,33.64
					c-0.01,0.12-0.03,0.23-0.04,0.35c-0.21-0.05-0.41-0.11-0.62-0.17C88.28,33.76,88.5,33.7,88.72,33.64z M89.15,33.5
					c0.22-0.07,0.44-0.15,0.66-0.23c0.12,0.14,0.25,0.28,0.39,0.42c-0.14,0.17-0.28,0.35-0.43,0.52c-0.23-0.04-0.45-0.08-0.67-0.13
					C89.12,33.89,89.14,33.7,89.15,33.5z M90.23,33.11c0.21-0.08,0.41-0.17,0.61-0.26c-0.12,0.17-0.25,0.34-0.37,0.51
					C90.39,33.28,90.31,33.19,90.23,33.11z M89.07,34.46c0.14,0.03,0.27,0.05,0.41,0.08c-0.15,0.16-0.3,0.33-0.45,0.49
					C89.04,34.84,89.06,34.65,89.07,34.46z M90.47,33.96c0.13,0.13,0.27,0.26,0.42,0.39c-0.23-0.02-0.45-0.04-0.67-0.07c0,0,0,0,0,0
					C90.3,34.17,90.39,34.07,90.47,33.96z"/>
			</g>
			<g id="Original_Marokko">
				<rect x="109.09" y="37.28" class="st20" width="23.03" height="15.35"/>
				<path id="star_13_" class="st21" d="M120.61,42.4l-0.57,1.77l-1.86,0l1.51,1.09l-0.57,1.77c0.39-0.29,1.09-0.79,1.51-1.1
					l1.51,1.1l-0.58-1.77l1.51-1.09h-1.86L120.61,42.4z M120.61,43.61l0.18,0.56l-0.36,0L120.61,43.61z M119.91,44.54l-0.11,0.35
					l-0.47-0.35L119.91,44.54z M120.31,44.54h0.61l0.19,0.58l-0.49,0.36l-0.49-0.36L120.31,44.54z M121.31,44.54h0.59l-0.47,0.35
					L121.31,44.54z M120,45.5l0.29,0.21l-0.47,0.35L120,45.5z M121.22,45.5l0.18,0.56l-0.48-0.35l0,0L121.22,45.5z"/>
			</g>
		</g>
		<defs>
			
				<filter id="Adobe_OpacityMaskFilter_00000145038234493125489150000007055153079009110196_" filterUnits="userSpaceOnUse" x="55.32" y="6.47" width="33.33" height="43.53">
				<feFlood  style="flood-color:white;flood-opacity:1" result="back"/>
				<feBlend  in="SourceGraphic" in2="back" mode="normal"/>
			</filter>
		</defs>
		
			<mask maskUnits="userSpaceOnUse" x="55.32" y="6.47" width="33.33" height="43.53" id="SVGID_00000027592142276449731520000000184599470351547802_">
			<g style="filter:url(#Adobe_OpacityMaskFilter_00000145038234493125489150000007055153079009110196_);">
				<defs>
					
						<filter id="Adobe_OpacityMaskFilter_00000085246121977393365490000014163107433960686725_" filterUnits="userSpaceOnUse" x="55.32" y="6.47" width="34.23" height="43.6">
						<feFlood  style="flood-color:white;flood-opacity:1" result="back"/>
						<feBlend  in="SourceGraphic" in2="back" mode="normal"/>
					</filter>
				</defs>
				
					<mask maskUnits="userSpaceOnUse" x="55.32" y="6.47" width="34.23" height="43.6" id="SVGID_00000027592142276449731520000000184599470351547802_">
					<g style="filter:url(#Adobe_OpacityMaskFilter_00000085246121977393365490000014163107433960686725_);">
					</g>
				</mask>
				
					<linearGradient id="SVGID_00000010302192605778903850000013708537904946143668_" gradientUnits="userSpaceOnUse" x1="-130.1072" y1="-42.7344" x2="-117.8242" y2="-47.4502" gradientTransform="matrix(1.8758 0.6932 -0.6225 1.6845 279.3037 190.1239)">
					<stop  offset="0" style="stop-color:#FFFFFF"/>
					<stop  offset="0.1234" style="stop-color:#FBFBFB"/>
					<stop  offset="0.2412" style="stop-color:#F0F0F0"/>
					<stop  offset="0.3568" style="stop-color:#DCDCDC"/>
					<stop  offset="0.4711" style="stop-color:#C1C1C1"/>
					<stop  offset="0.5845" style="stop-color:#9E9E9E"/>
					<stop  offset="0.6972" style="stop-color:#747474"/>
					<stop  offset="0.8094" style="stop-color:#414141"/>
					<stop  offset="0.9185" style="stop-color:#080808"/>
					<stop  offset="0.9318" style="stop-color:#000000"/>
				</linearGradient>
				
					<polygon style="clip-path:url(#SVGID_00000124135049726432365520000010629728183237637504_);mask:url(#SVGID_00000027592142276449731520000000184599470351547802_);fill-rule:evenodd;clip-rule:evenodd;fill:url(#SVGID_00000010302192605778903850000013708537904946143668_);" points="
					55.32,38.67 86.05,50.07 89.56,14.73 67.22,6.47 				"/>
			</g>
		</mask>
		<g style="clip-path:url(#SVGID_00000124135049726432365520000010629728183237637504_);">
			<defs>
				
					<filter id="Adobe_OpacityMaskFilter_00000101804062964810193220000012156177562995485588_" filterUnits="userSpaceOnUse" x="55.32" y="6.47" width="33.33" height="43.53">
					<feFlood  style="flood-color:white;flood-opacity:1" result="back"/>
					<feBlend  in="SourceGraphic" in2="back" mode="normal"/>
				</filter>
			</defs>
			
				<mask maskUnits="userSpaceOnUse" x="55.32" y="6.47" width="33.33" height="43.53" id="SVGID_00000125591212884736168180000011555358790669839016_">
				<g style="filter:url(#Adobe_OpacityMaskFilter_00000101804062964810193220000012156177562995485588_);">
					<defs>
						
							<filter id="Adobe_OpacityMaskFilter_00000043456668415200347700000018104568094750423472_" filterUnits="userSpaceOnUse" x="55.32" y="6.47" width="33.33" height="43.53">
							<feFlood  style="flood-color:white;flood-opacity:1" result="back"/>
							<feBlend  in="SourceGraphic" in2="back" mode="normal"/>
						</filter>
					</defs>
					
						<mask maskUnits="userSpaceOnUse" x="55.32" y="6.47" width="33.33" height="43.53" id="SVGID_00000125591212884736168180000011555358790669839016_">
						<g style="filter:url(#Adobe_OpacityMaskFilter_00000043456668415200347700000018104568094750423472_);">
						</g>
					</mask>
					
						<linearGradient id="SVGID_00000139986608974985597510000007798637085785065653_" gradientUnits="userSpaceOnUse" x1="-130.1991" y1="-42.7162" x2="-118.2326" y2="-47.3104" gradientTransform="matrix(1.8758 0.6932 -0.6225 1.6845 279.3037 190.1239)">
						<stop  offset="0" style="stop-color:#FFFFFF"/>
						<stop  offset="0.1234" style="stop-color:#FBFBFB"/>
						<stop  offset="0.2412" style="stop-color:#F0F0F0"/>
						<stop  offset="0.3568" style="stop-color:#DCDCDC"/>
						<stop  offset="0.4711" style="stop-color:#C1C1C1"/>
						<stop  offset="0.5845" style="stop-color:#9E9E9E"/>
						<stop  offset="0.6972" style="stop-color:#747474"/>
						<stop  offset="0.8094" style="stop-color:#414141"/>
						<stop  offset="0.9185" style="stop-color:#080808"/>
						<stop  offset="0.9318" style="stop-color:#000000"/>
					</linearGradient>
					
						<polygon style="mask:url(#SVGID_00000125591212884736168180000011555358790669839016_);fill-rule:evenodd;clip-rule:evenodd;fill:url(#SVGID_00000139986608974985597510000007798637085785065653_);" points="
						55.32,38.67 85.51,50 88.66,14.99 67.22,6.47 					"/>
				</g>
			</mask>
			
				<linearGradient id="SVGID_00000036938533338959571870000015071347959077426067_" gradientUnits="userSpaceOnUse" x1="-130.1991" y1="-42.7162" x2="-118.2326" y2="-47.3104" gradientTransform="matrix(1.8758 0.6932 -0.6225 1.6845 279.3037 190.1239)">
				<stop  offset="0" style="stop-color:#59440A"/>
				<stop  offset="0.1234" style="stop-color:#59450C"/>
				<stop  offset="0.2412" style="stop-color:#5A4610"/>
				<stop  offset="0.3568" style="stop-color:#5A4817"/>
				<stop  offset="0.4711" style="stop-color:#58491F"/>
				<stop  offset="0.5845" style="stop-color:#534828"/>
				<stop  offset="0.6972" style="stop-color:#49422D"/>
				<stop  offset="0.8094" style="stop-color:#38352C"/>
				<stop  offset="0.9185" style="stop-color:#1D1D1C"/>
				<stop  offset="0.9318" style="stop-color:#1A1A1A"/>
			</linearGradient>
			
				<polygon style="fill-rule:evenodd;clip-rule:evenodd;fill:url(#SVGID_00000036938533338959571870000015071347959077426067_);" points="
				55.32,38.67 85.51,50 88.66,14.99 67.22,6.47 			"/>
		</g>
	</g>
</g>
</svg>
