<?xml version="1.0" encoding="utf-8"?>
<!-- Generator: Adobe Illustrator 28.0.0, SVG Export Plug-In . SVG Version: 6.00 Build 0)  -->
<svg version="1.1" id="Calque_1" xmlns="http://www.w3.org/2000/svg" xmlns:xlink="http://www.w3.org/1999/xlink" x="0px" y="0px"
	 viewBox="0 0 283.46 283.46" style="enable-background:new 0 0 283.46 283.46;" xml:space="preserve">
<style type="text/css">
	.st0{fill:#878787;}
	.st1{fill:#FC4D32;}
	.st2{fill:#FFFFFF;}
</style>
<g>
	<g>
		<path class="st0" d="M72.97,226.08c0.1-0.24,0.33-0.3,0.51-0.19l1.86,1.12c0.11,0.06,0.15,0.24,0.09,0.34l-2.83,5.4l0.06,0.04
			l6.11-3.71c0.1-0.06,0.24-0.09,0.36-0.01l0.25,0.15c0.11,0.06,0.15,0.2,0.11,0.3l-1.9,6.23l0.04,0.03l4.91-4.15
			c0.11-0.08,0.3-0.11,0.4-0.05l1.85,1.11c0.2,0.12,0.2,0.33-0.02,0.49l-10.26,7.92c-0.12,0.1-0.3,0.12-0.41,0.05l-0.23-0.14
			c-0.09-0.06-0.14-0.19-0.11-0.3l2.11-7.3l-0.06-0.04l-7.21,4.24c-0.12,0.06-0.27,0.07-0.36,0.01l-0.21-0.13
			c-0.12-0.07-0.16-0.22-0.1-0.35L72.97,226.08z"/>
		<path class="st0" d="M91.09,235.79c0.09-0.16,0.3-0.25,0.45-0.18l6.25,2.61c0.17,0.07,0.2,0.26,0.12,0.42l-1.02,1.69
			c-0.09,0.16-0.28,0.26-0.45,0.18l-3.94-1.65l-1.16,1.93l3.21,1.34c0.15,0.06,0.2,0.26,0.12,0.42l-1.02,1.7
			c-0.11,0.17-0.31,0.24-0.46,0.18l-3.2-1.34l-1.25,2.11l3.94,1.65c0.16,0.07,0.19,0.25,0.1,0.41l-1,1.7
			c-0.09,0.16-0.3,0.24-0.46,0.18l-6.25-2.61c-0.17-0.07-0.2-0.26-0.1-0.41L91.09,235.79z"/>
		<path class="st0" d="M104.73,253.19l9.27-10.3c0.09-0.09,0.2-0.16,0.34-0.13l0.16,0.04c0.12,0.03,0.19,0.13,0.2,0.25l0.66,12.52
			c0.02,0.24-0.19,0.43-0.44,0.38l-1.98-0.44c-0.32-0.07-0.47-0.2-0.46-0.56l0.01-1.45l-3.87-0.87l-1,1.25
			c-0.15,0.2-0.43,0.35-0.79,0.26l-2-0.45C104.59,253.64,104.55,253.39,104.73,253.19z M112.36,250.96l0.11-3.05l-0.02,0l-2.05,2.61
			L112.36,250.96z"/>
		<path class="st0" d="M130.25,245.06c1.59,0.15,2.76,0.81,3.6,2.01c0.09,0.15,0.06,0.37-0.12,0.49l-1.66,1.22
			c-0.16,0.11-0.32,0.08-0.41-0.04c-0.4-0.54-1.14-0.94-1.85-1c-1.84-0.17-3.6,1.65-3.81,3.92c-0.15,1.68,0.66,3.16,2.13,3.3
			c0.61,0.06,1.49-0.28,2.16-0.74c0.14-0.1,0.35-0.06,0.43,0.06l1.07,1.72c0.09,0.15,0,0.36-0.14,0.47
			c-1.38,1.06-2.76,1.44-4.19,1.31c-2.7-0.25-4.86-2.95-4.57-6.1C123.26,247.61,126.39,244.7,130.25,245.06z"/>
		<path class="st0" d="M141.31,248.19l-2.19,0.05c-0.18,0-0.29-0.15-0.28-0.34l0.24-1.96c0.02-0.18,0.17-0.34,0.33-0.35l7.25-0.17
			c0.18,0,0.29,0.16,0.28,0.34l-0.24,1.96c-0.01,0.18-0.15,0.34-0.33,0.35l-2.21,0.05l-1.12,9.61c-0.01,0.18-0.19,0.35-0.35,0.35
			l-2.22,0.05c-0.16,0-0.29-0.15-0.28-0.33L141.31,248.19z"/>
		<path class="st1" d="M158.05,253.98l-0.08-1.92l5.12-8.6c0.04-0.06,0.1-0.13,0.23-0.15l1.32-0.25c0.16-0.03,0.31,0.09,0.31,0.29
			l0.36,7.42l1.25-0.24c0.16-0.03,0.29,0.09,0.31,0.27l0.08,1.5c0.02,0.18-0.13,0.37-0.29,0.4l-1.25,0.24l0.12,2.22
			c0.01,0.18-0.13,0.37-0.29,0.4l-1.94,0.36c-0.16,0.03-0.31-0.11-0.31-0.29l-0.1-2.21l-4.5,0.84
			C158.2,254.3,158.07,254.16,158.05,253.98z M162.82,251.18l-0.13-3.25l-2.11,3.66L162.82,251.18z"/>
		<path class="st0" d="M178.06,239.47c-0.04-0.18,0.06-0.38,0.21-0.43l2.12-0.73c0.15-0.05,0.31,0.06,0.35,0.24l2.3,11.77
			c0.04,0.17-0.06,0.38-0.21,0.43l-2.12,0.73c-0.15,0.05-0.31-0.06-0.35-0.24L178.06,239.47z"/>
		<path class="st0" d="M190.52,247.57l-2.19-12.35c-0.02-0.17,0-0.32,0.18-0.41l0.23-0.11c0.1-0.05,0.22-0.03,0.3,0.05l5.77,5.81
			l0.03-0.02l1.18-9.21c0.02-0.13,0.05-0.22,0.19-0.3l0.24-0.12c0.11-0.05,0.27,0.01,0.34,0.16l5.37,10.8
			c0.11,0.21,0,0.44-0.17,0.52l-1.98,0.97c-0.13,0.06-0.3-0.01-0.37-0.14l-2.26-5.07c-0.02,0.01-0.02,0.01-0.03,0.02l-0.53,6.73
			c-0.02,0.13-0.07,0.26-0.19,0.31l-0.26,0.13c-0.11,0.05-0.23,0.01-0.31-0.07l-4.18-4.43c-0.03,0.02-0.02,0.01-0.03,0.02l1.24,5.57
			c0.03,0.15-0.02,0.33-0.2,0.42l-1.99,0.97C190.76,247.89,190.56,247.81,190.52,247.57z"/>
		<path class="st0" d="M204.42,226.67c-0.09-0.16-0.04-0.38,0.11-0.48l3.27-2.22c1.49-1.01,3.5-0.38,4.57,1.2
			c1.34,1.98,0.94,4.74-0.99,6.05l-1.22,0.83l1.88,3.82c0.09,0.16,0.03,0.39-0.11,0.48l-1.81,1.23c-0.15,0.1-0.31,0.02-0.4-0.14
			L204.42,226.67z M210.06,228.94c0.52-0.35,0.62-1.29,0.11-2.05c-0.35-0.52-0.92-0.72-1.32-0.45l-1.09,0.74l1.23,2.49
			L210.06,228.94z"/>
		<path class="st0" d="M220.53,229.72l-2.76-13.58c-0.02-0.13-0.01-0.26,0.1-0.35l0.12-0.11c0.1-0.08,0.22-0.07,0.32-0.02
			l10.45,6.92c0.21,0.13,0.24,0.41,0.05,0.58l-1.53,1.33c-0.24,0.21-0.44,0.26-0.73,0.04l-1.16-0.87l-3,2.6l0.41,1.54
			c0.07,0.25,0.02,0.55-0.26,0.8l-1.55,1.34C220.81,230.1,220.59,229.98,220.53,229.72z M223.28,222.27l-2.38-1.9l-0.01,0.01
			l0.88,3.2L223.28,222.27z"/>
		<path class="st0" d="M229.16,204.44c1.07-1.19,2.29-1.73,3.76-1.69c0.18,0.02,0.33,0.17,0.32,0.39l-0.01,2.06
			c0,0.19-0.12,0.3-0.28,0.31c-0.67,0-1.43,0.36-1.91,0.89c-1.23,1.37-0.82,3.87,0.88,5.39c1.26,1.13,2.93,1.35,3.91,0.26
			c0.41-0.45,0.66-1.36,0.69-2.17c0-0.17,0.16-0.31,0.3-0.31l2.02,0.17c0.18,0.02,0.29,0.21,0.3,0.39c0.03,1.74-0.49,3.08-1.45,4.14
			c-1.81,2.02-5.27,2.14-7.62,0.03C227.03,211.57,226.57,207.33,229.16,204.44z"/>
		<path class="st0" d="M238.27,197.45l-1.27,1.78c-0.11,0.15-0.3,0.14-0.43,0.02l-1.43-1.37c-0.14-0.12-0.17-0.34-0.08-0.48
			l4.2-5.91c0.11-0.15,0.3-0.14,0.43-0.02l1.43,1.37c0.13,0.12,0.18,0.33,0.08,0.47l-1.28,1.8l7.03,6.65
			c0.13,0.12,0.16,0.36,0.07,0.49l-1.29,1.81c-0.09,0.13-0.3,0.14-0.43,0.02L238.27,197.45z"/>
	</g>
	<circle class="st1" cx="137.71" cy="126.65" r="101.32"/>
	<path class="st2" d="M147.41,50.99c-0.04,0.35,0.05,0.67-0.06,0.97c-0.71,1.75-0.59,3.49-0.47,5.1c0.13,1.74-0.27,3.41-0.99,5.02
		c-0.49,1.21-1.05,2.38-0.64,3.57c0.16,0.37-0.14,0.78-0.36,1.18c-1.67,3.62-3.42,7.19-5.09,10.88c-2.17,4.77-4.34,9.6-6.25,14.51
		c-0.98,2.56-2.14,5.17-3.32,7.65c-0.84,1.78-1.62,3.54-3.13,4.94c-0.6,0.56-1,1.34-1.46,2.07c-0.63,1.11-1.26,2.22-2.3,2.96
		c-0.55,0.41-0.84,0.96-0.97,1.74c-0.37,2.07-0.49,2.17-2.53,2.54c-0.5,0.19-1,0.45-1.51,0.65c-0.5,0.26-0.95,0.17-1.36-0.14
		l0.07,0.05c-1.19-0.45-1.72-1.48-2.13-2.68c-0.6-2.03-0.62-4.21-0.59-6.4c0.12-2.76,0.57-5.53,1.01-8.3
		c0.34-2.4,0.62-4.86,0.89-7.31l-0.07-0.94c-0.77,0.12-0.79,0.74-0.95,1.12c-1.44,3.22-2.83,6.36-4.21,9.57
		c-0.44,1-0.89,1.99-1.6,2.92c-0.42,0.51-0.69,1.13-0.26,1.77c0.21,0.22-0.09,0.57-0.2,0.87c-0.73,2.43-2.12,4.62-3.17,6.99
		c-0.67,1.46-2.01,2.55-3.38,3.3c-0.93,0.5-1.4,1.16-1.66,2.05c-0.2,0.73-0.6,1.58-0.22,2.3c-0.11,0.23-0.29,0.41-0.4,0.65
		c-0.22,0.53-0.3,1.17-1,1.27c-0.76,0.19-1.52,0.31-2.15-0.22c-2.71-2.73-4.19-6.12-3.8-10.58c0.33-3.49,1.18-6.91,1.77-10.33
		c0.57-3.69,1.28-7.34,1.91-11.05c0.49-2.99,0.92-6.03,1.34-9.06c0.31-1.99,0.48-4.08,0.66-6.1c0.13-0.85-0.05-1.56-0.3-2.31
		c-0.5-1.58-0.26-1.84,1.12-2.39c0.87-0.42,1.69-0.69,2.55-1.38c0.6-0.56,2.75-0.41,3.36,0.05c1.7,1.21,2.35,3.03,2.26,5.37
		c-0.22,5.03-1.35,9.95-2.28,14.96c-0.66,3.3-1.19,6.71-1.73,10.05c-0.11,0.3-0.15,0.65-0.19,0.94c0.05,0.67-0.74,1.41-0.11,2.01
		c0.74-0.46,0.88-1.24,1.15-1.92c1.43-3.42,3.19-6.79,4.76-10.12c1.45-3.09,2.97-6.2,4.63-9.13c0.85-1.58,1.57-3.26,2.49-4.78
		c0.8-1.43,1.67-2.8,2.55-4.04c0.53-0.74,1.35-1.01,2.1-1.27c0.49,1.45,0.49,1.45,0.19,2.68c-0.36,1.25-0.35,2.27-0.01,3.48
		c0.5,1.58,0.87,3.19,0.63,5.1c-0.19,1.89,0.07,3.73-0.11,5.62l-1.57,13.97c-0.09,0.57-0.18,1.13-0.13,1.74
		c0.03,0.47-0.61,1.31,0.16,1.39c0.52,0.01,0.85-0.76,1.07-1.29c1.23-2.62,2.53-5.26,3.62-7.92c2.53-6.15,5.24-12.35,8.16-18.4
		c1.91-3.89,3.83-7.77,5.87-11.69c0.96-1.88,1.66-3.82,2.62-5.77c1.22-2.69,2.52-5.4,3.8-8.11c0.22-0.53,0.57-1.03,1.22-0.92
		C147.11,50.44,147.49,50.35,147.41,50.99z M100.51,120l-0.01-0.07L100.51,120z"/>
	<path class="st2" d="M140.25,97.34c0.53-2.17,1.31-4.22,2.16-6.34l1.35-3.51c0.26-0.6,0.51-1.13,0.89-1.67
		c0.79-1.22,1.53-2.49,1.62-3.86c0.03-0.45,0.35-0.99,0.51-1.46c1.68-3.79,3.62-7.6,5.55-11.35c0.56-1.07,1.12-2.14,1.63-3.27
		c0.71-1.47,1.69-2.96,2.54-4.43c0.32-0.54,0.7-0.76,1.31-0.86c0.33-0.02,0.7-0.18,1.05-0.26c1.49-0.49,2.9-0.9,3.86,0.14
		c0.26,0.31,0.75,0.21,1.19-0.01c0.3-0.15,0.58-0.23,0.87-0.38c4.95-2.46,10.03-4.28,15.07-6.54c1.9-0.84,3.87-1.42,5.87-2.13
		c1.07-0.39,2.15-0.79,3.28-1.12c0.58-0.23,1.13-0.33,1.74-0.44c0.47-0.03,0.86,0.59,0.51,1c-0.68,0.69-0.66,1.53-1.27,2.22
		c-0.53,0.62-1.16,1.11-1.6,1.91c-0.25,0.53-0.9,0.83-1.55,1.07c-0.79,0.31-1.56,0.81-2.16,1.43c-1.19,1.24-2.59,1.91-4.03,2.46
		c-1.38,0.61-2.73,1.34-4,2.01c-3.85,1.93-7.59,3.99-11.48,5.53c-0.45,0.22-0.89,0.45-1.31,0.54c-1.67,0.11-2.3,1.18-2.98,2.52
		c-1.07,2.2-2.33,4.35-3.45,6.49l-1.97,3.94c-0.15,0.4,0.13,0.64,0.54,0.54l5.45-1.71c1.41-0.41,2.76-0.57,4.17-0.66
		c0.52,0.03,0.66,0.28,0.48,0.81c-0.17,0.46-0.45,0.87-0.34,1.25c0.04,0.13,0,0.32-0.08,0.39c-1.01,0.71-1.55,1.97-2.78,2.51
		c-0.73,0.31-1.41,0.74-1.73,1.6c-0.22,0.4-0.66,0.63-1.12,0.91c-1.51,0.87-3.06,1.62-4.67,2.05c-0.91,0.25-1.86,0.38-2.74,0.18
		c-0.93-0.26-1.02-0.19-1.54,1.01c-1.36,2.61-2.19,5.25-3.28,7.84c-0.23,0.47-0.25,0.86-0.35,1.31c-0.07,0.33,0.36,0.49,0.73,0.28
		c0.61-0.36,1.21-0.73,1.83-1.16c4.26-2.93,8.69-5.41,13.29-7.46c1.24-0.53,2.47-1.07,3.69-1.21c0.88-0.12,0.95,0.2,1.05,0.97
		c0.17,1.02-0.63,1.98-0.92,3.03c-0.22,0.73-1.02,1.36-1.66,1.92c-0.88,0.7-1.81,1.35-2.42,2.36c-0.18,0.21-0.47,0.35-0.78,0.57
		c-3.52,2.23-7.02,4.4-10.55,6.7c-1.54,1-3.09,1.49-4.66,2.05c-0.43,0.16-0.75,0.11-1.09,0.14c-1.98,0-3.53-0.74-4.64-2.02
		c-1.41-1.72-1.92-3.95-1.35-6.57L140.25,97.34z"/>
	<g>
		<path class="st2" d="M139.8,122.35c-0.66,1.95-1.32,3.84-2.55,5.66c-0.34,0.55-0.56,1.06-0.84,1.66c-0.7,1.5-1.57,1.97-2.84,1.61
			c-0.07,0.02-0.13-0.04-0.19-0.02c-1.15-0.32-1.62-1.33-1.05-2.6c0.64-1.41,0.82-2.79,1.07-4.17c0.16-0.7,0.32-1.47,0.41-2.15
			c0.25-1.45-0.48-2.41-1.79-1.96c-1.57,0.45-2.89,1.23-3.93,3.01c-1.32,2.18-1.54,4.42-2.4,6.55c-0.07,0.22-0.08,0.48-0.03,0.74
			c0.02,2.65,0.17,5.27,1.51,7.33c0.86,1.19,1.11,2.78,1.77,4.08c0.59,1.25,1.65,2.19,2.18,3.59c0.46,1.35,0.92,2.7,1.12,4.24
			c0.09,0.97,0.37,1.9,0.79,2.73c1.25,2.48,1.78,5.27,1.46,8.54c-0.12,1.36-0.17,2.69-0.29,4.05c-0.41,3.75-1.91,7.36-3.74,10.92
			c-0.07,0.08-0.14,0.16-0.14,0.23c-0.95,2.68-3.02,4.31-5.14,5.89c-1.2,0.95-2.53,1.87-3.8,2.84c-0.8,0.66-1.67,1.4-2.58,1.55
			c-0.98,0.24-1.88,0.05-2.77-0.06c-0.26,0-0.57-0.19-0.83-0.13c-1.57,0.51-2.57-0.24-3.38-1.04l-0.07,0.02
			c-0.32-0.12-0.63-0.24-0.95-0.37c-0.19-0.15-0.18-0.35,0.15-0.57c0.2-0.11,0.52-0.13,0.53-0.4c0.01-0.27-0.25-0.27-0.44-0.22
			c-0.71,0.04-1.09-0.2-1.25-0.89c-0.16-0.69-0.53-1.33-0.89-1.91c-0.85-1.25-1.05-2.8-0.72-4.54c0.32-1.6,0.71-3.16,1.81-4.75
			c1.44-2,2.88-4.08,3.43-6.47c0.75-1.04,1.06-2.31,1.95-3.39c0.95-1.16,1.82-1.83,3.11-1.88l-0.07,0.02
			c-0.55,0.73-0.83,1.53-1.19,2.35c-1.13,2.4-2.07,4.95-3.66,7.32c-0.96,1.49-1.55,3.3-2.27,4.99c-0.28,0.6-0.37,1.22,0,1.59
			c0.62,0.52,0.58,1.45,0.75,2.21c0.27,1.19,0.55,2.32,1.63,2.79c1.01,0.48,1.86,0.28,2.62-0.9c0.76-1.25,1.77-2.29,2.66-3.43
			c0.75-0.91,1.43-1.81,1.86-2.91c1.36-3.31,2.91-6.61,3.7-9.98c0.94-4.01,0.83-7.7-0.65-10.92c-0.12-0.23-0.3-0.52-0.63-0.38
			c-0.2,0.05-0.4,0.29-0.54,0.53c-0.35,0.62-0.63,1.21-0.98,1.9c-0.23-0.74-0.38-3.42-0.36-3.89c0.09-0.62,0.56-1.13,0.84-1.66
			c0.42-0.83,0.58-1.6,0.22-2.31c-0.12-0.24-0.1-0.57-0.29-0.79c-1.07-2.33-1.6-4.99-2.21-7.56c-0.6-2.71-0.48-5.66,0.23-8.68
			c0.3-1.14,0.54-2.19,0.84-3.26c0.69-2.69,2.08-5.15,4.23-7.19c0.34-0.35,0.67-0.69,1-0.84c1.85-0.98,3.75-1.84,5.5-1.86
			c1.29,0.02,2.59-0.3,3.82-0.26c1.36,0,2.45,0.14,3.11,1.3c0.12,0.3,0.5,0.48,0.68,0.7C140.04,119.84,140.32,120.83,139.8,122.35z
			 M112.67,184.84l-0.33,0.08c-0.2,0.18-0.34,0.35-0.54,0.46c0.19,0.02,0.32-0.01,0.58-0.08
			C112.58,185.25,112.78,185.14,112.67,184.84z"/>
		<path class="st2" d="M177.07,134.23c-1.46,1.08-1.6,2.84-2.81,4.06c-0.4,0.43-0.36,0.95-0.44,1.43c-0.56,2.72-1,5.42-1.75,8.12
			c-0.45,1.43-0.83,2.92-1.28,4.42c-0.3,1-0.66,2.02-1.16,3.07c-0.85,1.86-1.44,3.73-1.97,5.65c-0.53,1.99-1.7,3.79-2.68,5.62
			c-0.28,0.6-0.5,1.05-0.39,1.62c0.03,0.79-0.62,0.95-1.08,1.12c-0.12-0.24-0.11-0.5-0.23-0.54c-1.29-0.09-1.44-1.11-1.46-2.23
			c-0.07-1.51,0.07-3.13,0.39-4.8c0.92-5.2,1.91-10.41,3.09-15.61c0.01-0.13,0.01-0.2,0.08-0.28c0.34-2.01,0.15-2.03-1.77-0.9
			l-2.24,1.14c-2.17,0.99-4.28,2.03-6.44,2.88c-0.99,0.44-1.47,1.15-1.7,2.14c-0.31,1.13-0.61,2.27-0.79,3.44
			c-0.64,3.07-1.09,6.17-2.18,9.29c-0.36,0.95-0.73,1.97-0.7,2.89c0.08,1.11-0.73,2.1-1.1,3.18c-0.15,0.5-0.74,0.78-1.19,0.62
			c-1.15-0.32-1.83-1.08-2.23-2.25c-0.86-2.58-1.07-5.45-0.95-8.4c0.06-1.41,0.25-2.91,0.31-4.32c0.02-0.47-0.29-0.73-0.69-0.5
			c-0.79,0.32-1.58,0.65-2.31,1.16c-1.26,0.83-2.56,1.02-3.86,1.26c-1.56,0.25-2.77-0.19-3.56-1.4c-0.36-0.64-0.85-1.25-1.28-1.88
			c-0.37-0.51-0.21-1.14,0.45-1.7c0.27-0.2,0.6-0.41,0.86-0.54c3.18-1.96,6.35-3.86,9.65-5.52c0.26-0.13,0.59-0.28,0.92-0.49
			c1.19-0.62,1.87-1.45,2.12-2.9c0.93-5.4,2.12-10.79,3.18-16.16c0.5-2.84,0.88-5.72,1.32-8.54c0.18-1.31-0.03-2.51-0.1-3.76
			c-0.13-1.56,0.07-1.81,1.6-2.84c1.66-1.13,3.07-0.94,4.27-0.24c1.26,0.82,2.05,2.09,2.17,3.92c0.16,2.28,0.21,4.46-0.22,6.88
			c-0.94,5.53-1.87,11.07-3.07,16.6c-0.01,0.27-0.02,0.47-0.09,0.75c-0.03,0.67,0.16,0.89,0.75,0.68c1.3-0.31,2.67-0.65,3.92-1.15
			c1.38-0.53,2.69-0.98,3.99-1.36c0.52-0.13,1.05-0.32,1.57-0.58c0.72-0.31,1.07-0.86,1.23-1.62c0.35-2.21,0.76-4.36,1.17-6.58
			c0.5-2.84,0.94-5.67,1.45-8.58c0.25-1.32,0.36-2.54,0.02-3.72c-0.4-1.23,0.82-2.65,2.18-2.78c4.53-0.3,6.47,2.75,5.6,6.74
			c-0.57,2.92-1.14,5.85-1.78,8.79l-0.73,3.69c-0.08,0.42,0.17,0.56,0.49,0.55c0.45,0.02,0.91-0.09,1.36-0.06
			C177.15,133.75,177.27,134.05,177.07,134.23z M163.43,169.37l0.07-0.02l0,0.07L163.43,169.37z"/>
		<path class="st2" d="M176.95,154.43c0.16-2.23,0.57-4.38,1.05-6.62l0.73-3.69c0.15-0.64,0.31-1.2,0.59-1.8
			c0.57-1.33,1.08-2.72,0.94-4.08c-0.05-0.45,0.17-1.04,0.26-1.52c1-4.02,2.27-8.11,3.53-12.13c0.37-1.15,0.74-2.3,1.05-3.5
			c0.45-1.57,1.16-3.2,1.74-4.8c0.22-0.58,0.55-0.86,1.14-1.07c0.33-0.08,0.66-0.29,0.98-0.44c1.39-0.73,2.7-1.38,3.83-0.53
			c0.31,0.26,0.77,0.08,1.17-0.22c0.27-0.2,0.53-0.33,0.8-0.52c4.46-3.27,9.15-5.93,13.73-9.02c1.72-1.15,3.57-2.06,5.42-3.1
			c0.99-0.57,1.98-1.14,3.04-1.66c0.53-0.33,1.05-0.52,1.64-0.73c0.46-0.11,0.95,0.43,0.67,0.9c-0.55,0.8-0.39,1.62-0.87,2.4
			c-0.41,0.7-0.96,1.29-1.25,2.16c-0.15,0.57-0.75,0.98-1.34,1.32c-0.73,0.44-1.4,1.07-1.88,1.78c-0.96,1.43-2.23,2.33-3.55,3.11
			c-1.26,0.84-2.46,1.79-3.59,2.66c-3.46,2.56-6.8,5.23-10.37,7.42c-0.4,0.29-0.8,0.59-1.19,0.75c-1.63,0.39-2.06,1.56-2.51,2.99
			c-0.68,2.35-1.54,4.69-2.28,6.99l-1.27,4.22c-0.08,0.42,0.23,0.61,0.63,0.44l5.08-2.62c1.32-0.65,2.62-1.03,3.99-1.36
			c0.52-0.06,0.7,0.16,0.62,0.71c-0.09,0.48-0.3,0.93-0.12,1.29c0.06,0.12,0.05,0.32-0.02,0.4c-0.87,0.87-1.19,2.21-2.31,2.95
			c-0.66,0.43-1.27,0.97-1.43,1.87c-0.15,0.43-0.55,0.73-0.95,1.09c-1.34,1.12-2.73,2.12-4.24,2.82c-0.86,0.41-1.77,0.69-2.67,0.65
			c-0.96-0.1-1.03-0.01-1.34,1.25c-0.89,2.8-1.26,5.54-1.89,8.28c-0.15,0.5-0.1,0.89-0.12,1.36c-0.01,0.34,0.43,0.43,0.77,0.15
			c0.53-0.46,1.07-0.92,1.61-1.45c3.7-3.61,7.64-6.82,11.82-9.62c1.12-0.74,2.25-1.48,3.43-1.82c0.85-0.27,0.97,0.03,1.19,0.77
			c0.35,0.98-0.28,2.06-0.39,3.15c-0.09,0.75-0.77,1.51-1.31,2.17c-0.74,0.85-1.55,1.64-1.98,2.74c-0.14,0.23-0.41,0.43-0.67,0.7
			c-3.08,2.8-6.16,5.53-9.25,8.4c-1.34,1.25-2.79,2-4.25,2.82c-0.4,0.23-0.72,0.24-1.05,0.32c-1.95,0.34-3.61-0.12-4.92-1.2
			c-1.69-1.45-2.57-3.56-2.46-6.24L176.95,154.43z"/>
	</g>
	<g>
		<path class="st2" d="M146.97,182.99c6.28-1.79,12.57-3.7,18.98-5.52c5.14-1.39,10.17-2.87,15.28-3.55
			c1.71-0.31,3.31-0.7,5.02-1.13c1.25-0.19,1.7,0.05,1.99,1.25c0.09,0.68,0.41,1.3-0.3,2.17c-0.35,0.32-0.25,0.64-0.15,0.97
			c0.1,0.33-0.14,0.62-0.48,0.7c-1.6,0.4-2.88,1.53-4.37,2.02c-0.8,0.2-1.39,1.04-2.31,1.39c-2.4,0.59-4.69,1.39-7.09,2.22
			c-0.46,0.11-0.8,0.2-1.26,0.43c-2.3,1.15-4.59,1.84-6.88,2.52c-1.6,0.4-3.1,1.12-4.58,1.6c-5.16,1.86-10.29,3.02-15.42,4.29
			c-1.26,0.43-2.38,0.24-3.26-0.47c-0.77-0.62-1.67-0.87-2.21-1.67c-1.09-1.13-1.15-2.63-0.19-4.15c0.49-0.94,1.19-1.69,2.21-1.83
			c0.79-0.08,1.71-0.42,2.51-0.62C145.26,183.41,146.05,183.22,146.97,182.99z"/>
	</g>
	<g>
		<path class="st2" d="M83.9,172.59c-3.26,0.88-5.94,0.79-8.4-0.27c-1.58-0.72-2.97-1.67-3.25-3.72c0.01-0.28-0.15-0.61-0.23-0.86
			c-1.76-2.89-1.78-6.65-1.99-10.28c-0.11-1.81,0.34-3.85,0.77-5.7c1.69-6.39,4.09-12.67,8-18.58c1.14-1.75,2.03-3.62,3.17-5.36
			c0.28-0.34,0.66-0.8,1.03-1.08c0.1-0.12,0.37-0.18,0.54-0.13c0.18-0.04,0.35,0.19,0.43,0.36c-0.01,0.19,0.08,0.35-0.02,0.56
			c-0.7,1.92-0.02,2.76,1.1,3.78c1.99,1.54,2.43,4.01,1.59,7.16c-1.05,3.84-2.19,7.61-3.25,11.54c-0.82,2.68-1.47,5.41-2.3,8.1
			l-0.02,0.37c-0.13,1.04-0.54,2.25,0.06,2.84c0.87,0.52,1.82-0.71,2.73-1.21c0.55-0.32,1.11-0.91,1.75-1.25
			c2.01-1.13,2.89-2.9,3.42-4.96c1.6-6.46,3.3-12.94,5.26-19.39c0.83-2.68,1.92-5.34,3.45-7.92c0.67-1.17,0.94-1.24,1.83-0.99
			c0.27,0.03,0.52,0.33,0.79,0.27c3.13,0.07,3.66,2.52,3.54,5.21c-0.21,2.99-0.24,5.94-1,9.07c-0.53,1.97-0.69,3.85-1.04,5.77
			c-0.24,1.53-0.16,1.79,1.18,1.83c1.16-0.01,2.33-0.2,3.01,0.83c0.34,0.38,1.52,0.09,1.22,0.9c-0.4,1.02,0.19,1.98-0.75,2.94
			c-1.78,1.99-2.96,4.58-5.26,6.15c-2.02,1.41-3.17,3.25-3.81,5.61c-1.46,5.13-3.1,10.22-4.65,15.28c-0.61,1.9-1.32,3.81-2.2,5.68
			c-1.76,3.64-2.81,7.39-4.21,11.04c-0.5,1.32-0.82,2.5-1.75,3.55c-0.84,0.85-0.79,1.75-1,2.63c-0.23,1.16-0.27,2.27-1.03,3.37
			c-0.47,0.67-1.12,1.1-1.73,0.88c-0.62-0.13-1.52,0.09-1.48-1.02c0.04-3.14-0.01-6.25,0.66-9.63c0.78-3.87,1.21-7.65,1.9-11.49
			c0.49-3.15,1.15-6.35,1.73-9.52C83.83,174.26,83.86,173.61,83.9,172.59z"/>
	</g>
</g>
</svg>
