<?xml version="1.0" encoding="utf-8"?>
<!-- Generator: Adobe Illustrator 28.0.0, SVG Export Plug-In . SVG Version: 6.00 Build 0)  -->
<svg version="1.1" id="Layer_1" xmlns="http://www.w3.org/2000/svg" xmlns:xlink="http://www.w3.org/1999/xlink" x="0px" y="0px"
	 viewBox="0 0 215.43 226.77" style="enable-background:new 0 0 215.43 226.77;" xml:space="preserve">
<style type="text/css">
	.st0{fill:#003399;}
	.st1{fill:#FFFFFF;}
	.st2{fill:#FFCC00;}
	.st3{font-family:'Arial-BoldMT';}
	.st4{font-size:21px;}
</style>
<g>
	<rect x="18.04" y="21.72" class="st0" width="179.75" height="120.45"/>
	<g>
		<path class="st1" d="M107.67,83.02"/>
		<g>
			<path class="st1" d="M16.09,19.66v124.41h183.15V19.66H16.09z M195.72,140.48H19.62V23.07h176.11V140.48z"/>
			<path class="st1" d="M107.67,81.78"/>
		</g>
		<g>
			<g>
				<polygon class="st2" points="103.92,48.65 107.63,45.94 111.35,48.65 109.93,44.27 113.71,41.56 109.06,41.56 107.63,37.12 
					106.21,41.56 101.56,41.56 105.33,44.27 				"/>
				<polygon class="st2" points="84.69,53.82 88.4,51.11 92.11,53.82 90.7,49.44 94.48,46.72 89.82,46.72 88.4,42.28 86.97,46.73 
					82.33,46.72 86.1,49.44 				"/>
				<polygon class="st2" points="74.33,56.38 72.91,60.83 68.26,60.83 72.03,63.54 70.61,67.92 74.33,65.21 78.05,67.92 
					76.63,63.54 80.4,60.83 75.75,60.83 				"/>
				<polygon class="st2" points="69.17,84.42 72.88,87.13 71.47,82.74 75.24,80.03 70.59,80.03 69.17,75.59 67.74,80.04 
					63.09,80.03 66.87,82.74 65.45,87.13 				"/>
				<polygon class="st2" points="75.75,99.3 74.33,94.85 72.91,99.3 68.26,99.3 72.03,102.01 70.61,106.39 74.33,103.68 
					78.05,106.39 76.63,102.01 80.4,99.3 				"/>
				<polygon class="st2" points="89.85,113.39 88.43,108.96 87.01,113.4 82.35,113.39 86.13,116.11 84.71,120.49 88.43,117.78 
					92.14,120.49 90.73,116.11 94.5,113.39 				"/>
				<polygon class="st2" points="109.06,118.5 107.63,114.06 106.21,118.51 101.56,118.5 105.33,121.21 103.92,125.6 107.64,122.89 
					111.35,125.6 109.94,121.21 113.71,118.5 				"/>
				<polygon class="st2" points="128.26,113.39 126.84,108.96 125.42,113.4 120.77,113.39 124.54,116.11 123.13,120.49 
					126.84,117.78 130.56,120.49 129.14,116.11 132.92,113.39 				"/>
				<polygon class="st2" points="142.37,99.3 140.94,94.85 139.51,99.3 134.87,99.3 138.64,102.01 137.22,106.39 140.94,103.68 
					144.66,106.39 143.24,102.01 147.01,99.3 				"/>
				<polygon class="st2" points="152.12,79.98 147.47,79.98 146.04,75.54 144.62,79.98 139.97,79.98 143.74,82.69 142.33,87.08 
					146.04,84.36 149.76,87.08 148.35,82.69 				"/>
				<polygon class="st2" points="137.22,67.87 140.94,65.15 144.66,67.87 143.24,63.48 147.01,60.77 142.37,60.77 140.94,56.33 
					139.51,60.78 134.87,60.77 138.64,63.48 				"/>
				<polygon class="st2" points="126.9,42.28 125.47,46.73 120.82,46.72 124.59,49.44 123.18,53.83 126.9,51.11 130.61,53.83 
					129.2,49.44 132.97,46.72 128.32,46.72 				"/>
			</g>
		</g>
	</g>
	<text transform="matrix(1 0 0 1 34.7862 174.0032)"><tspan x="0" y="0" class="st3 st4">Cofinancé par </tspan><tspan x="-24.66" y="25.2" class="st3 st4">l&apos;Union européenne</tspan></text>
</g>
</svg>
